<svg width="640" height="640" viewBox="0 0 640 640" fill="none" xmlns="http://www.w3.org/2000/svg">
<path d="M284.083 586.24C284.083 586.24 386.483 602.688 466.79 530.726C547.098 458.765 569.191 341.773 589.568 247.552C609.946 153.331 566.63 69.4913 486.592 42.6241C406.554 15.7569 371.943 84.0833 273.216 105.664C174.49 127.245 144.461 117.824 75.0721 190.502C5.68335 263.181 21.6705 400.986 109.632 488.64C197.594 576.294 284.083 586.24 284.083 586.24Z" fill="#8AAB8F"/>
<path opacity="0.7" d="M284.083 586.24C284.083 586.24 386.483 602.688 466.79 530.726C547.098 458.765 569.191 341.773 589.568 247.552C609.946 153.331 566.63 69.4913 486.592 42.6241C406.554 15.7569 371.943 84.0833 273.216 105.664C174.49 127.245 144.461 117.824 75.0721 190.502C5.68335 263.181 21.6705 400.986 109.632 488.64C197.594 576.294 284.083 586.24 284.083 586.24Z" fill="white"/>
<path d="M48.1919 569.933H562.522" stroke="#263238" stroke-linecap="round" stroke-linejoin="round"/>
<path d="M450.381 569.933V128.563H267.866V569.933H450.381Z" stroke="#263238" stroke-miterlimit="10"/>
<path d="M547.507 106.867L450.381 128.845H476.582V569.178" stroke="#263238" stroke-miterlimit="10"/>
<path d="M476.582 128.845L547.417 114.342" stroke="#263238" stroke-miterlimit="10"/>
<path d="M347.366 306.662V146.585H284.698V306.662H347.366Z" stroke="#263238" stroke-miterlimit="10"/>
<path d="M347.366 146.585H340.966V306.662H347.366V146.585Z" stroke="#263238" stroke-miterlimit="10"/>
<path d="M199.514 569.933V193.715L244.736 183.833V569.933H199.514Z" stroke="#263238" stroke-miterlimit="10"/>
<path d="M199.462 569.933V193.728L243.29 184.141V569.933H199.462Z" stroke="#263238" stroke-miterlimit="10"/>
<path d="M203.417 349.811V207.834L218.278 204.723V347.93L203.417 349.811Z" stroke="#263238" stroke-miterlimit="10"/>
<path d="M203.417 207.834V349.811L204.915 349.619V207.526L203.417 207.834Z" stroke="#263238" stroke-miterlimit="10"/>
<path d="M122.483 569.933V210.56L153.357 203.814V569.933H122.483Z" stroke="#263238" stroke-miterlimit="10"/>
<path d="M122.445 569.933V210.573L152.371 204.032V569.933H122.445Z" stroke="#263238" stroke-miterlimit="10"/>
<path d="M125.158 359.77V224.23L135.347 222.093V358.477L125.158 359.77Z" stroke="#263238" stroke-miterlimit="10"/>
<path d="M125.158 224.23V359.769L126.195 359.641V224.013L125.158 224.23Z" stroke="#263238" stroke-miterlimit="10"/>
<path d="M267.942 149.376L84.2112 192.486" stroke="#263238" stroke-miterlimit="10"/>
<path d="M565.76 79.488L355.008 128.947" stroke="#263238" stroke-miterlimit="10"/>
<path d="M115.2 158.72L488.96 51.2" stroke="#263238" stroke-miterlimit="10"/>
<path d="M268.8 64H561.92" stroke="#263238" stroke-miterlimit="10"/>
<path d="M160.294 101.12H469.76" stroke="#263238" stroke-miterlimit="10"/>
<path d="M104.96 136.96H268.8" stroke="#263238" stroke-miterlimit="10"/>
<path d="M208.09 162.803H143.936" stroke="#263238" stroke-miterlimit="10"/>
<path d="M433.101 360.96L433.446 388.621C433.446 388.621 436.301 449.242 439.373 471.437C442.445 493.632 453.12 563.379 453.12 563.379L469.158 563.712C467.059 476.275 470.093 477.03 472.115 461.542C473.139 453.683 474.675 404.237 474.675 404.237L477.747 404.915C477.747 404.915 491.264 476.877 493.325 480.678C495.385 484.48 514.598 565.03 514.598 565.03L527.027 557.581C527.027 557.581 522.829 482.061 523.097 475.661C523.366 469.261 514.969 420.326 515.648 406.323C516.326 392.32 509.849 357.491 509.849 357.491C509.849 357.491 460.8 376.666 433.101 360.96Z" fill="#7A7A7A" stroke="#263238" stroke-linecap="round" stroke-linejoin="round"/>
<path d="M504.051 471.462L526.029 522.496" stroke="#263238" stroke-linecap="round" stroke-linejoin="round"/>
<path d="M509.005 497.69L526.029 537.382" stroke="#263238" stroke-linecap="round" stroke-linejoin="round"/>
<path d="M474.765 404.237L460.045 399.296" stroke="#263238" stroke-linecap="round" stroke-linejoin="round"/>
<path d="M507.571 373.709L483.354 388.787L502.08 382.4" stroke="#263238" stroke-linecap="round" stroke-linejoin="round"/>
<path d="M437.657 378.278L450.905 382.848L441.766 383.309" stroke="#263238" stroke-linecap="round" stroke-linejoin="round"/>
<path d="M468.723 557.414C468.723 557.414 461.414 535.475 460.506 524.058" stroke="#263238" stroke-linecap="round" stroke-linejoin="round"/>
<path d="M464.154 376L466.906 383.309C466.906 383.309 464.614 388.339 464.614 390.157C464.614 391.974 468.275 394.278 468.275 394.278" stroke="#263238" stroke-linecap="round" stroke-linejoin="round"/>
<path d="M470.093 376.448C470.978 379.433 471.591 382.492 471.923 385.587C471.923 388.339 468.723 401.126 468.723 401.126" stroke="#263238" stroke-linecap="round" stroke-linejoin="round"/>
<path d="M451.2 253.44C451.2 253.44 408.858 274.611 407.834 276.659C406.81 278.707 411.251 337.92 411.251 337.92L407.155 392.55L414.72 394.24L432.128 351.219C432.572 354.104 432.572 357.039 432.128 359.923C431.45 365.389 438.618 371.187 444.762 372.902C450.906 374.618 474.138 374.605 487.104 372.211C500.07 369.818 512.704 363.341 512.704 360.602C512.704 357.862 503.488 319.642 503.488 319.642C503.488 319.642 498.022 253.402 496.32 251.008C494.618 248.614 463.501 251.354 451.2 253.44Z" fill="#44BBA4" stroke="#263238" stroke-linecap="round" stroke-linejoin="round"/>
<path d="M430.72 344.064L414.835 286.695" stroke="#263238" stroke-linecap="round" stroke-linejoin="round"/>
<path d="M440.96 333.811C440.96 333.811 478.349 315.379 474.24 321.523C470.131 327.667 461.952 330.227 461.952 330.227" stroke="#263238" stroke-linecap="round" stroke-linejoin="round"/>
<path d="M434.355 261.952C435.725 264.627 438.003 269.632 438.003 273.062C438.003 277.965 440.627 293.376 453.85 287.987C467.072 282.598 461.286 267.917 460.25 261.555C459.761 258.469 459.111 255.409 458.304 252.39C455.565 252.736 453.184 253.082 451.149 253.402C451.2 253.44 443.366 257.28 434.355 261.952Z" fill="#263238" stroke="#263238" stroke-linecap="round" stroke-linejoin="round"/>
<path d="M495.245 250.88C496.197 250.917 497.129 251.166 497.973 251.609C498.816 252.052 499.55 252.677 500.121 253.44C501.913 256 513.344 284.519 519.501 293.735C525.657 302.951 529.485 317.043 523.597 322.419C517.709 327.795 516.761 328.73 512.665 326.682C508.569 324.634 499.097 302.08 499.097 302.08C499.097 302.08 496.281 263.411 495.769 260.595" fill="#44BBA4"/>
<path d="M495.245 250.88C496.197 250.917 497.129 251.166 497.973 251.609C498.816 252.052 499.55 252.677 500.121 253.44C501.913 256 513.344 284.519 519.501 293.735C525.657 302.951 529.485 317.043 523.597 322.419C517.709 327.795 516.761 328.73 512.665 326.682C508.569 324.634 499.097 302.08 499.097 302.08C499.097 302.08 496.281 263.411 495.769 260.595" stroke="#263238" stroke-linecap="round" stroke-linejoin="round"/>
<path d="M436.352 259.29C436.352 259.29 440.96 266.202 441.216 272.09C441.472 277.978 447.872 283.866 452.736 278.234C457.6 272.602 454.784 259.277 454.784 254.157C454.784 249.037 452.48 240.077 452.48 240.077C452.48 240.077 449.408 252.109 445.056 254.925C442.315 256.68 439.398 258.143 436.352 259.29Z" fill="#B9846E" stroke="#263238" stroke-linecap="round" stroke-linejoin="round"/>
<path d="M456.96 229.901C458.728 223.492 458.635 216.713 456.691 210.355C453.44 199.77 439.053 195.981 430.093 197.338C421.133 198.694 413.811 208.998 413.542 214.157C413.273 219.315 415.987 229.35 417.382 231.526C418.777 233.702 421.721 238.31 421.721 234.778C421.721 231.245 420.915 221.21 420.915 221.21H437.197C437.197 221.21 437.619 225.229 444.787 228.544C451.955 231.859 451.84 233.664 451.302 234.509C450.765 235.354 453.747 234.509 455.142 233.421C456.062 232.438 456.691 231.22 456.96 229.901Z" fill="#263238" stroke="#263238" stroke-linecap="round" stroke-linejoin="round"/>
<path d="M417.434 216.154C417.434 216.154 418.278 229.607 417.434 235.495C416.589 241.383 419.674 247.015 421.082 250.074C422.49 253.133 429.21 261.594 435.098 264.371C440.986 267.149 446.029 261.811 447.987 259.597C449.485 257.882 451.981 252.237 453.107 249.677C453.461 248.841 453.661 247.947 453.696 247.04L453.926 241.664C453.926 241.664 459.2 238.08 459.52 232.96C459.84 227.84 455.872 227.072 454.195 229.043C453.396 229.934 452.648 230.87 451.955 231.847C451.955 231.847 452.506 225.677 450.829 224.551C449.152 223.424 444.429 223.987 442.982 220.352C442.164 218.295 441.597 216.146 441.293 213.952C441.293 213.952 427.52 220.647 417.434 216.154Z" fill="#B9846E" stroke="#263238" stroke-linecap="round" stroke-linejoin="round"/>
<path d="M428.646 238.298L428.275 240.026C428.176 240.614 428.237 241.218 428.452 241.774C428.667 242.33 429.028 242.818 429.497 243.186C429.966 243.555 430.526 243.789 431.117 243.866C431.709 243.943 432.31 243.859 432.858 243.622C434.816 242.509 437.056 240.819 435.661 239.142" stroke="#263238" stroke-linecap="round" stroke-linejoin="round"/>
<path d="M431.731 248.666C434.168 248.453 436.531 247.717 438.658 246.509C440.785 245.301 442.627 243.648 444.058 241.664" stroke="#263238" stroke-linecap="round" stroke-linejoin="round"/>
<path d="M434.688 248.179C434.688 248.179 438.528 253.043 441.088 250.803C443.648 248.563 442.509 243.917 442.509 243.917C440.278 245.939 437.597 247.4 434.688 248.179Z" fill="#263238" stroke="#263238" stroke-linecap="round" stroke-linejoin="round"/>
<path d="M424.141 237.798C424.777 237.798 425.293 236.841 425.293 235.661C425.293 234.48 424.777 233.523 424.141 233.523C423.505 233.523 422.989 234.48 422.989 235.661C422.989 236.841 423.505 237.798 424.141 237.798Z" fill="#263238"/>
<path d="M437.478 236.058C438.115 236.058 438.63 235.101 438.63 233.92C438.63 232.74 438.115 231.782 437.478 231.782C436.842 231.782 436.326 232.74 436.326 233.92C436.326 235.101 436.842 236.058 437.478 236.058Z" fill="#263238"/>
<path d="M433.267 230.144C433.267 230.144 436.877 226.214 441.574 226.304" stroke="#263238" stroke-linecap="round" stroke-linejoin="round"/>
<path d="M419.84 228.941C419.84 228.941 423.782 227.853 426.24 230.579" stroke="#263238" stroke-linecap="round" stroke-linejoin="round"/>
<path d="M481.28 265.357C481.28 265.357 477.184 250.675 475.469 246.579C473.754 242.483 461.811 240.09 460.787 240.09C459.763 240.09 456.691 239.398 457.037 241.114C457.382 242.829 458.394 244.186 460.109 246.579C461.658 248.539 463.37 250.363 465.229 252.032C466.67 255.794 468.381 259.448 470.349 262.963C472.397 266.035 474.112 268.774 474.112 268.774L481.28 265.357Z" fill="#B9846E" stroke="#263238" stroke-linecap="round" stroke-linejoin="round"/>
<path d="M459.725 245.76C459.725 245.76 460.339 244.263 461.466 245.261C462.592 246.259 468.083 249.383 469.21 250.752C469.825 251.461 470.33 252.26 470.707 253.12" stroke="#263238" stroke-linecap="round" stroke-linejoin="round"/>
<path d="M457.971 242.56C458.494 242.225 459.104 242.051 459.725 242.061C460.467 242.189 467.405 246.311 469.21 247.181C470.21 247.663 471.103 248.342 471.834 249.178" stroke="#263238" stroke-linecap="round" stroke-linejoin="round"/>
<path d="M458.598 240.32C458.598 240.32 468.71 243.942 469.837 244.557C470.615 245.052 471.293 245.691 471.834 246.438" stroke="#263238" stroke-linecap="round" stroke-linejoin="round"/>
<path d="M481.28 265.357C481.28 265.357 512.435 300.519 516.275 302.579C520.115 304.64 525.235 310.515 524.979 315.379C524.723 320.243 524.467 326.387 517.043 327.155C509.619 327.923 503.731 316.403 497.587 307.443C491.443 298.483 474.086 268.8 474.086 268.8L481.28 265.357Z" fill="#44BBA4" stroke="#263238" stroke-linecap="round" stroke-linejoin="round"/>
<path d="M407.155 392.551C407.155 392.551 403.315 403.687 401.421 407.283C399.526 410.88 401.907 417.101 401.907 418.803C401.907 420.506 405.978 423.36 407.181 423.847C408.384 424.333 412.928 423.603 412.928 423.603C412.928 423.603 414.605 420.48 412.454 420.48H409.101C407.898 420.48 407.654 414.259 407.654 414.259L409.818 410.893C409.818 410.893 408.614 417.613 410.291 417.843C410.707 417.861 411.123 417.793 411.511 417.643C411.899 417.492 412.253 417.263 412.548 416.97C412.844 416.677 413.076 416.325 413.229 415.938C413.383 415.551 413.454 415.136 413.44 414.72V408.96C413.44 407.04 414.874 403.917 415.117 400.333C415.282 398.294 415.149 396.241 414.72 394.24L407.155 392.551Z" fill="#B9846E" stroke="#263238" stroke-linecap="round" stroke-linejoin="round"/>
<path d="M512.09 567.898C512.09 567.898 511.181 563.392 515.699 557.747C520.218 552.103 526.758 554.355 529.69 556.839C532.621 559.322 533.312 562.931 536.474 564.967C538.411 566.238 540.031 567.937 541.21 569.933H511.859L512.09 567.898Z" fill="#C97D00" stroke="#263238" stroke-linecap="round" stroke-linejoin="round"/>
<path d="M470.618 567.898C470.618 567.898 471.526 563.392 467.008 557.747C462.49 552.103 455.949 554.355 453.005 556.839C450.061 559.322 449.395 562.931 446.234 564.967C444.296 566.238 442.676 567.937 441.498 569.933H470.848L470.618 567.898Z" fill="#C97D00" stroke="#263238" stroke-linecap="round" stroke-linejoin="round"/>
<path d="M296.768 538.342C295.703 542.586 294.121 546.682 292.058 550.541C289.011 555.802 284.851 563.277 284.851 566.054C284.894 567.341 284.8 568.628 284.57 569.894H304.525C305.671 567.127 306.529 564.249 307.085 561.306C307.917 556.595 306.803 558.81 309.299 551.066C310.748 545.996 310.748 540.622 309.299 535.552C309.299 535.552 302.08 539.456 296.768 538.342Z" fill="#7C432C" stroke="#263238" stroke-linecap="round" stroke-linejoin="round"/>
<path d="M360.051 363.021C364.921 363.161 369.731 361.909 373.914 359.411C380.839 355.264 381.837 333.005 384.333 320.256C386.829 307.507 384.333 300.582 378.791 285.056C373.248 269.53 356.621 244.096 349.415 243.494C342.208 242.893 337.779 252.634 335.002 273.971C332.224 295.309 335.117 336.41 340.122 347.226C345.127 358.042 354.791 362.739 360.051 363.021Z" fill="#545454" stroke="#263238" stroke-linecap="round" stroke-linejoin="round"/>
<path d="M264.179 345.28C262.54 352.563 261.61 359.988 261.402 367.45C261.402 377.69 259.469 389.069 260.57 399.322C261.67 409.575 267.942 438.311 271.27 450.522C274.598 462.733 275.43 469.645 275.43 472.691C275.43 475.738 279.27 497.357 282.637 505.971C286.003 514.586 295.936 535.347 296.205 536.179C296.474 537.011 295.654 539.776 300.045 540.019C304.435 540.263 308.902 537.523 309.184 534.195C309.466 530.867 308.634 472.128 308.634 467.968C308.634 463.808 313.498 417.28 313.498 417.28C313.498 417.28 313.664 446.016 312.832 458.24C312 470.464 311.45 506.739 312.282 519.488C313.114 532.237 312.013 563.008 312.013 563.008L328.077 563.559C328.077 563.559 330.573 538.061 334.17 529.203C337.766 520.346 343.603 494.003 346.97 480.154C350.336 466.304 350.298 460.48 350.016 459.674C349.734 458.867 361.037 426.599 361.869 397.773C362.403 381.124 362.002 364.457 360.666 347.853C360.666 347.853 337.933 353.946 307.456 350.899C276.979 347.853 264.499 342.311 264.499 342.311L264.179 345.28Z" fill="#263238" stroke="#263238" stroke-linecap="round" stroke-linejoin="round"/>
<path d="M294.029 224.179C294.029 224.179 269.709 238.758 259.738 243.878C249.767 248.998 261.901 293.005 261.901 297.638C261.901 302.272 261.786 342.861 262.592 345.83C263.399 348.8 267.994 354.202 280.947 359.91C293.901 365.619 328.461 365.568 340.877 361.523C353.293 357.478 360.077 354.778 362.202 348.838C364.327 342.899 361.779 305.92 359.885 295.68C357.991 285.44 358.81 256 359.347 248.448C359.885 240.896 360.154 239.002 352.871 233.869C345.587 228.736 326.413 223.347 322.368 222.797C318.323 222.246 308.327 219.046 294.029 224.179Z" fill="#44BBA4"/>
<path d="M314.688 253.248H299.712V238.272H314.688V253.248ZM276.8 330.432H268.992V345.408H283.968V330.432H276.8ZM276.48 330.048H283.968V315.072H268.992V330.048H276.48ZM314.688 299.712H299.712V314.688H314.688V299.712ZM314.688 253.632H299.712V268.608H314.688V253.632ZM314.688 276.8V268.992H299.712V283.968H314.688V276.8ZM314.688 284.352H299.712V299.328H314.688V284.352ZM276.48 314.688H283.968V299.712H268.992V314.688H276.48ZM299.328 276.16V268.992H284.352V283.968H299.328V276.16ZM330.048 253.248V238.272H315.072V253.248H330.048ZM345.408 315.072H330.432V330.048H345.408V315.072ZM284.352 299.328H299.328V284.352H284.352V299.328ZM284.352 314.688H299.328V299.712H284.352V314.688ZM284.352 360.768H299.328V345.792H284.352V360.768ZM315.072 268.608H330.048V253.632H315.072V268.608ZM284.352 238.272V253.248H299.328V238.272H284.352ZM284.352 345.408H299.328V330.432H284.352V345.408ZM314.688 222.912H299.712V237.888H314.688V222.912ZM284.352 330.048H299.328V315.072H284.352V330.048ZM345.408 253.632H330.432V268.608H345.408V253.632ZM345.408 276.8V268.992H330.432V283.968H345.408V276.8ZM345.408 238.272H330.432V253.248H345.408V238.272ZM330.048 276.16V268.992H315.072V283.968H330.048V276.16ZM345.408 284.352H330.432V299.328H345.408V284.352ZM314.688 315.072H299.712V330.048H314.688V315.072ZM360.768 330.048V315.072H345.792V330.048H360.768ZM299.328 268.608V253.632H284.352V268.608H299.328ZM345.408 299.712H330.432V314.688H345.408V299.712ZM345.792 345.408H360.768V330.432H345.792V345.408ZM276.48 268.608H283.968V253.632H268.992V268.608H276.48V268.608ZM345.408 330.432H330.432V345.408H345.408V330.432ZM276.48 299.328H283.968V284.352H268.992V299.328H276.48ZM315.072 360.768H330.048V345.792H315.072V360.768ZM299.712 345.792V360.768H314.688V345.792H299.712ZM314.688 330.432H299.712V345.408H314.688V330.432ZM315.072 330.048H330.048V315.072H315.072V330.048ZM276.48 283.968H283.968V268.992H268.992V283.968H276.48ZM315.072 314.688H330.048V299.712H315.072V314.688ZM315.072 345.408H330.048V330.432H315.072V345.408ZM315.072 299.328H330.048V284.352H315.072V299.328ZM284.352 229.926L283.968 230.144V237.824H284.352V229.926ZM283.968 276.16V276.48H284.352V268.992H283.968V276.16ZM284.352 268.608V253.632H283.968V268.608H284.352ZM284.352 238.272H283.968V253.248H284.352V238.272ZM315.072 253.248V238.272H314.688V253.248H315.072ZM315.072 221.632H314.688V222.566H315.072V221.632ZM314.688 276.16V276.48H315.072V268.992H314.688V276.16ZM314.688 237.888H315.072V222.912H314.688V237.888ZM314.688 253.632V268.608H315.072V253.632H314.688ZM345.408 268.608H345.792V253.632H345.408V268.608ZM345.408 276.16V276.48H345.792V268.992H345.408V276.16ZM345.408 253.248H345.792V238.272H345.408V253.248ZM345.792 230.208L345.408 230.042V237.926H345.792V230.208ZM330.432 268.608V268.992H358.72V268.608H330.432ZM283.968 268.608H276.8V268.992H299.328V268.608H283.968ZM315.072 268.992H330.048V268.608H299.712V268.992H315.072ZM299.328 238.272V237.888H276.8V238.272H299.328ZM299.712 237.888V238.272H330.048V237.888H299.712ZM345.408 238.272H357.888C357.794 238.138 357.691 238.01 357.581 237.888H330.432V238.272H345.408ZM283.968 253.632H299.328V253.248H276.8V253.632H283.968ZM330.432 253.248V253.632H359.078C359.078 253.504 359.078 253.376 359.078 253.248H330.432V253.248ZM315.072 253.632H330.048V253.248H299.712V253.632H315.072ZM298.125 222.912H299.328V222.592C298.931 222.72 298.522 222.81 298.125 222.912V222.912ZM314.688 222.912H322.893L322.368 222.822C321.869 222.758 321.28 222.656 320.614 222.528H299.712V222.912H314.688ZM299.328 253.248V276.48H299.712V222.528L299.328 222.605V253.261V253.248ZM330.048 253.248V276.48H330.432V224.794L330.048 224.678V253.248V253.248ZM276.48 268.608V268.992H276.8V268.608H276.48ZM276.48 237.888V238.272H276.8V237.888H276.48ZM276.8 253.632V253.248H276.48V253.632H276.8ZM284.352 299.328V284.352H283.968V299.328H284.352ZM283.968 330.432V345.408H284.352V330.432H283.968ZM284.352 345.792H283.968V360.768H284.352V345.792ZM284.352 314.688V299.712H283.968V314.688H284.352ZM283.968 283.968H284.352V276.8H283.968V283.968ZM284.352 330.048V315.072H283.968V330.048H284.352ZM315.072 299.328V284.352H314.688V299.328H315.072ZM315.072 345.408V330.432H314.688V345.408H315.072ZM314.688 283.968H315.072V276.8H314.688V283.968ZM315.072 314.688V299.712H314.688V314.688H315.072ZM314.688 364.301H315.072V361.152H314.688V364.301ZM315.072 330.048V315.072H314.688V330.048H315.072ZM314.688 345.792V360.768H315.072V345.792H314.688ZM345.408 283.968H345.792V276.8H345.408V283.968ZM345.408 330.432V345.408H345.792V330.432H345.408ZM345.408 359.936L345.792 359.795V345.792H345.408V359.936ZM345.408 314.688H345.792V299.712H345.408V314.688ZM345.408 299.328H345.792V284.352H345.408V299.328ZM345.792 330.048V315.072H345.408V330.048H345.792ZM284.352 360.768H283.456L284.736 361.152H299.341V360.768H284.352ZM330.432 360.768V361.152H341.76L342.925 360.768H330.432ZM315.072 360.768H299.712V361.152H330.048V360.768H315.072ZM362.854 330.432C362.854 330.304 362.854 330.176 362.854 330.048H361.165V330.432H362.854ZM283.968 330.048H276.8V330.432H299.328V330.048H283.968ZM314.688 330.048H299.712V330.432H330.048V330.048H314.688ZM345.792 330.432H360.768V330.048H330.432V330.432H345.792ZM330.432 299.328V299.712H360.486V299.328H330.432V299.328ZM283.968 299.328H276.8V299.712H299.328V299.328H283.968ZM314.688 299.328H299.712V299.712H330.048V299.328H314.688ZM362.739 345.792V345.408H361.114V345.792H362.739ZM345.792 345.408H330.432V345.792H360.768V345.408H345.792ZM299.328 345.792V345.408H276.8V345.792H299.328ZM314.688 345.408H299.712V345.792H330.048V345.408H314.688ZM330.432 314.688V315.072H360.768V314.688H330.432ZM361.984 315.072C361.984 314.944 361.984 314.816 361.984 314.688H361.178V315.072H361.984ZM283.904 314.688H276.736V315.072H299.264V314.688H283.904ZM314.624 314.688H299.648V315.072H329.984V314.688H314.624ZM330.368 283.968V284.352H358.835C358.835 284.224 358.835 284.096 358.835 283.968H330.432H330.368ZM283.904 283.968H276.736V284.352H299.264V283.968H283.904ZM314.624 283.968H299.648V284.352H329.984V283.968H314.624ZM299.648 345.792V276.8H299.264V363.648H299.648V345.728V345.792ZM330.368 345.792V276.8H329.984V363.52H330.368V345.856V345.792ZM360.704 330.048V351.411C360.832 351.232 360.973 351.053 361.088 350.874V305.498C360.96 304.218 360.832 303.066 360.704 301.952V330.112V330.048ZM276.416 330.432H276.736V330.048H276.48L276.416 330.432ZM276.416 299.712H276.736V299.328H276.48L276.416 299.712ZM276.416 345.408V345.792H276.736V345.408H276.416ZM276.416 315.072H276.736V314.688H276.48L276.416 315.072ZM276.416 284.352H276.736V283.968H276.48L276.416 284.352ZM283.904 276.8H284.288V276.48H283.904V276.8ZM314.624 276.8H315.008V276.48H314.624V276.8ZM345.344 276.8H345.728V276.48H345.344V276.8ZM299.264 276.48V276.8H299.648V276.48H299.264ZM329.984 276.48V276.8H330.368V276.48H329.984ZM256.691 268.608C256.691 268.736 256.691 268.864 256.691 268.992H268.493V268.608H256.691ZM276.416 268.992V268.608H268.928V268.992H276.48H276.416ZM276.096 237.888H270.566L269.901 238.272H276.48V237.888H276.096ZM255.846 253.248C255.846 253.376 255.846 253.504 255.846 253.632H268.57V253.248H255.846ZM276.096 253.632H276.48V253.248H268.992V253.632H276.096ZM268.928 276.16V238.822L268.544 239.04V276.48H268.928V276.16ZM261.952 330.048V330.432H268.544V330.048H261.952ZM276.416 330.432V330.048H268.928V330.432H276.48H276.416ZM261.837 299.328V299.712H268.544V299.328H261.837ZM276.416 299.712V299.328H268.928V299.712H276.48H276.416ZM262.464 345.408C262.473 345.538 262.494 345.667 262.528 345.792H268.544V345.408H262.464ZM276.096 345.408H268.928V345.792H276.48V345.408H276.096ZM261.85 314.688V315.072H268.544V314.688H261.85ZM276.416 315.072V314.688H268.928V315.072H276.48H276.416ZM259.29 283.968L259.366 284.352H268.544V283.968H259.29ZM276.416 284.352V283.968H268.928V284.352H276.48H276.416ZM268.928 330.432V276.8H268.544V352.909L268.928 353.19V330.432V330.432ZM268.928 276.48H268.544V276.8H268.928V276.48Z" stroke="white" stroke-width="0.25" stroke-miterlimit="10"/>
<path d="M294.029 224.179C294.029 224.179 269.709 238.758 259.738 243.878C249.767 248.998 261.901 293.005 261.901 297.638C261.901 302.272 261.786 342.861 262.592 345.83C263.399 348.8 267.994 354.202 280.947 359.91C293.901 365.619 328.461 365.568 340.877 361.523C353.293 357.478 360.077 354.778 362.202 348.838C364.327 342.899 361.779 305.92 359.885 295.68C357.991 285.44 358.81 256 359.347 248.448C359.885 240.896 360.154 239.002 352.871 233.869C345.587 228.736 326.413 223.347 322.368 222.797C318.323 222.246 308.327 219.046 294.029 224.179Z" stroke="#263238" stroke-linecap="round" stroke-linejoin="round"/>
<path d="M278.823 304.64C278.823 304.64 321.92 293.12 326.426 291.776" stroke="#263238" stroke-linecap="round" stroke-linejoin="round"/>
<path d="M298.765 293.67L328.358 288.525" stroke="#263238" stroke-linecap="round" stroke-linejoin="round"/>
<path d="M297.536 226.342C297.536 226.342 305.088 251.443 309.146 257.382C313.203 263.322 316.429 259.802 318.861 255.219C321.293 250.637 328.307 227.955 328.307 227.955C328.307 227.955 313.459 219.584 297.536 226.342Z" fill="#263238" stroke="#263238" stroke-linecap="round" stroke-linejoin="round"/>
<path d="M302.656 231.59C302.656 231.59 307.699 248.333 310.4 252.288C313.101 256.243 315.264 253.914 316.877 250.854C318.49 247.795 323.174 232.678 323.174 232.678C323.174 232.678 313.28 227.098 302.656 231.59Z" fill="#FFD6C6" stroke="#263238" stroke-linecap="round" stroke-linejoin="round"/>
<path d="M286.784 209.447C286.784 209.447 286.784 214.477 288.73 217.549C289.414 218.494 290.292 219.282 291.305 219.86C292.318 220.439 293.443 220.794 294.605 220.903L292.647 207.207C292.647 207.207 287.335 203.29 286.784 209.447Z" fill="#FFD6C6" stroke="#263238" stroke-linecap="round" stroke-linejoin="round"/>
<path d="M330.125 222.861C332.314 220.65 333.774 217.823 334.311 214.759C335.155 209.728 336 205.53 334.311 203.571C332.621 201.613 330.675 204.135 330.407 207.77C330.138 211.405 330.125 222.861 330.125 222.861Z" fill="#FFD6C6" stroke="#263238" stroke-linecap="round" stroke-linejoin="round"/>
<path d="M289.575 210.56C290.286 215.676 291.407 220.727 292.928 225.664C295.168 232.371 303.271 240.205 309.427 243.277C315.584 246.349 321.447 240.486 324.787 236.288C328.128 232.09 330.381 223.706 331.187 218.957C331.994 214.208 331.187 206.362 332.583 201.613C333.978 196.864 328.96 186.79 321.447 181.76C313.933 176.73 296.563 181.478 292.647 189.03C288.73 196.582 289.575 210.56 289.575 210.56Z" fill="#FFD6C6" stroke="#263238" stroke-linecap="round" stroke-linejoin="round"/>
<path d="M297.408 220.634C297.408 220.634 299.367 224.269 306.368 221.184" stroke="#263238" stroke-linecap="round" stroke-linejoin="round"/>
<path d="M316.979 220.634C316.979 220.634 318.938 224.269 325.939 221.184" stroke="#263238" stroke-linecap="round" stroke-linejoin="round"/>
<path d="M296.563 216.999C296.563 216.999 302.157 214.759 305.792 214.759" stroke="#263238" stroke-width="2" stroke-linecap="round" stroke-linejoin="round"/>
<path d="M316.698 215.04C316.698 215.04 320.051 214.195 325.082 217.267" stroke="#263238" stroke-width="2" stroke-linecap="round" stroke-linejoin="round"/>
<path d="M308.314 227.341C308.314 227.341 307.187 230.413 310.874 231.258C314.56 232.102 315.354 229.581 315.917 227.904" stroke="#263238" stroke-linecap="round" stroke-linejoin="round"/>
<path d="M308.032 234.048H316.416" stroke="#263238" stroke-linecap="round" stroke-linejoin="round"/>
<path d="M287.334 203.52C287.334 203.52 282.022 209.677 284.544 211.072C287.066 212.467 295.168 211.072 295.168 211.072C295.168 211.072 289.293 214.144 294.054 215.27C298.816 216.397 314.739 206.08 314.739 206.08C314.739 206.08 311.667 211.392 317.299 211.11C322.931 210.829 329.318 199.59 329.318 199.59L330.714 214.694C330.714 214.694 331.84 214.976 332.403 213.018C332.966 211.059 333.517 208.256 333.517 208.256C333.517 208.256 337.715 206.029 337.715 203.507C337.715 200.986 333.798 194.547 333.798 194.547C333.798 194.547 338.266 195.661 337.434 188.147C337.134 185.928 336.251 183.827 334.874 182.06C333.498 180.292 331.678 178.921 329.6 178.086C329.6 178.086 325.965 171.098 322.048 169.421C318.131 167.744 322.048 172.493 322.048 172.493C322.048 172.493 309.747 166.899 300.8 168.576C291.853 170.253 284.301 189.056 283.738 192.896C283.174 196.736 286.298 194.854 286.298 194.854C286.298 194.854 277.632 205.197 280.986 206.042C284.339 206.886 287.334 203.52 287.334 203.52Z" fill="#263238" stroke="#263238" stroke-linecap="round" stroke-linejoin="round"/>
<path d="M358.912 239.782C363.013 244.882 366.695 250.306 369.92 256C375.04 265.178 390.707 290.829 395.302 298.112C399.898 305.395 394.214 315.123 388.275 317.811C382.336 320.499 375.322 319.168 369.075 312.422C362.829 305.677 356.659 284.621 356.659 284.621C356.659 284.621 356.122 256 357.197 245.747" fill="#44BBA4"/>
<path d="M391.488 299.712H376.512V314.688H391.488V299.712Z" stroke="white" stroke-width="0.25" stroke-miterlimit="10"/>
<path d="M376.128 276.48V276.16V268.992H368.96H368.64H368.32H361.152V276.16V276.48V276.8V283.968H368.32H368.64H368.96H376.128V276.8V276.48Z" stroke="white" stroke-width="0.25" stroke-miterlimit="10"/>
<path d="M376.512 267.392L376.128 266.752V268.608H376.512V267.392Z" stroke="white" stroke-width="0.25" stroke-miterlimit="10"/>
<path d="M376.128 276.16V276.48H376.512V276.16V268.992H376.128V276.16Z" stroke="white" stroke-width="0.25" stroke-miterlimit="10"/>
<path d="M376.128 268.992H377.408L377.178 268.608H368.909V268.992H376.128Z" stroke="white" stroke-width="0.25" stroke-miterlimit="10"/>
<path d="M368.96 268.608H368.64V268.992H368.96V268.608Z" stroke="white" stroke-width="0.25" stroke-miterlimit="10"/>
<path d="M376.512 276.8H376.128V283.968H376.512V276.8Z" stroke="white" stroke-width="0.25" stroke-miterlimit="10"/>
<path d="M376.512 284.352H376.128V299.328H376.512V284.352Z" stroke="white" stroke-width="0.25" stroke-miterlimit="10"/>
<path d="M376.512 299.712H376.128V314.688H376.512V299.712Z" stroke="white" stroke-width="0.25" stroke-miterlimit="10"/>
<path d="M376.128 317.747L376.512 317.914V315.072H376.128V317.747Z" stroke="white" stroke-width="0.25" stroke-miterlimit="10"/>
<path d="M391.488 299.712V299.328H376.512H376.128H368.96V299.712H376.128H376.512H391.488Z" stroke="white" stroke-width="0.25" stroke-miterlimit="10"/>
<path d="M396.058 299.712C396.058 299.584 395.942 299.456 395.878 299.328H391.872V299.712H396.058Z" stroke="white" stroke-width="0.25" stroke-miterlimit="10"/>
<path d="M376.512 314.688H371.392C371.546 314.829 371.712 314.944 371.866 315.072H391.488V314.688H376.512Z" stroke="white" stroke-width="0.25" stroke-miterlimit="10"/>
<path d="M392.435 314.688H391.872V315.072H392.051C392.179 314.944 392.307 314.88 392.435 314.688Z" stroke="white" stroke-width="0.25" stroke-miterlimit="10"/>
<path d="M386.752 284.352L386.522 283.968H368.96V284.352H386.752Z" stroke="white" stroke-width="0.25" stroke-miterlimit="10"/>
<path d="M391.872 299.712V292.71L391.488 292.083V315.635L391.872 315.251V299.712Z" stroke="white" stroke-width="0.25" stroke-miterlimit="10"/>
<path d="M368.96 299.328H368.64V299.712H368.96V299.328Z" stroke="white" stroke-width="0.25" stroke-miterlimit="10"/>
<path d="M368.96 283.968H368.64V284.352H368.96V283.968Z" stroke="white" stroke-width="0.25" stroke-miterlimit="10"/>
<path d="M376.512 276.48H376.128V276.8H376.512V276.48Z" stroke="white" stroke-width="0.25" stroke-miterlimit="10"/>
<path d="M368.32 268.992H368.64V268.608H368.32H361.152V268.992H368.32Z" stroke="white" stroke-width="0.25" stroke-miterlimit="10"/>
<path d="M356.519 268.608V268.992H360.768V268.608H356.519Z" stroke="white" stroke-width="0.25" stroke-miterlimit="10"/>
<path d="M356.736 253.248C356.736 253.376 356.736 253.504 356.736 253.632H360.781V253.248H356.736Z" stroke="white" stroke-width="0.25" stroke-miterlimit="10"/>
<path d="M368.32 253.632H368.487L368.256 253.248H361.152V253.632H368.32Z" stroke="white" stroke-width="0.25" stroke-miterlimit="10"/>
<path d="M361.152 276.16V242.675L360.768 242.163V276.48H361.152V276.16Z" stroke="white" stroke-width="0.25" stroke-miterlimit="10"/>
<path d="M368.32 299.328H361.843L361.997 299.712H368.64V299.328H368.32Z" stroke="white" stroke-width="0.25" stroke-miterlimit="10"/>
<path d="M356.634 283.968V284.352H360.755V283.968H356.634Z" stroke="white" stroke-width="0.25" stroke-miterlimit="10"/>
<path d="M368.32 283.968H361.152V284.352H368.32H368.64V283.968H368.32Z" stroke="white" stroke-width="0.25" stroke-miterlimit="10"/>
<path d="M361.152 276.8H360.768V296.64L361.152 297.613V276.8Z" stroke="white" stroke-width="0.25" stroke-miterlimit="10"/>
<path d="M361.152 276.48H360.768V276.8H361.152V276.48Z" stroke="white" stroke-width="0.25" stroke-miterlimit="10"/>
<path d="M358.912 239.782C363.013 244.882 366.695 250.306 369.92 256C375.04 265.178 390.707 290.829 395.302 298.112C399.898 305.395 394.214 315.123 388.275 317.811C382.336 320.499 375.322 319.168 369.075 312.422C362.829 305.677 356.659 284.621 356.659 284.621C356.659 284.621 356.122 256 357.197 245.747" stroke="#263238" stroke-linecap="round" stroke-linejoin="round"/>
<path d="M336.397 226.586L333.069 281.178L364.493 354.432L371.418 346.112L339.994 283.955L343.603 228.8L336.397 226.586Z" fill="#263238" stroke="#263238" stroke-linecap="round" stroke-linejoin="round"/>
<path d="M396.326 298.138C396.326 298.138 393.626 290.035 386.342 287.898C379.059 285.76 359.078 284.659 355.034 283.84C350.989 283.021 349.632 281.69 348.826 278.989C348.019 276.288 347.2 268.454 345.856 266.842C344.512 265.229 335.859 265.754 332.621 265.754C329.382 265.754 327.501 267.648 327.77 269.811C328.038 271.974 326.95 278.451 326.95 280.602C327.063 281.879 327.605 283.081 328.488 284.011C329.372 284.941 330.544 285.544 331.814 285.722C333.537 286.052 335.318 285.865 336.934 285.184C336.934 285.184 338.816 287.885 340.71 288.422C342.216 288.802 343.748 289.072 345.293 289.229C345.293 289.229 355.84 300.8 362.317 307.047C368.794 313.293 373.389 320.269 382.797 320.269C392.205 320.269 396.557 312.986 397.632 308.122C398.707 303.258 396.326 298.138 396.326 298.138Z" fill="#FFD6C6" stroke="#263238" stroke-linecap="round" stroke-linejoin="round"/>
<path d="M328.307 270.874H339.098" stroke="#263238" stroke-linecap="round" stroke-linejoin="round"/>
<path d="M327.77 276.007L339.098 275.738" stroke="#263238" stroke-linecap="round" stroke-linejoin="round"/>
<path d="M326.95 280.589L336.678 280.858" stroke="#263238" stroke-linecap="round" stroke-linejoin="round"/>
<path d="M386.342 287.885C379.046 285.722 359.078 284.646 355.034 283.827C353.781 283.624 352.571 283.217 351.45 282.624C351.605 284.927 350.857 287.2 349.363 288.96C348.689 289.78 347.944 290.538 347.136 291.226C350.438 294.822 357.491 302.426 362.317 307.046C368.794 313.254 373.389 320.269 382.797 320.269C392.205 320.269 396.557 312.986 397.632 308.122C398.707 303.258 396.288 298.138 396.288 298.138C396.288 298.138 393.626 290.035 386.342 287.885Z" fill="#44BBA4"/>
<path d="M391.488 299.712H376.512V314.688H391.488V299.712Z" stroke="white" stroke-width="0.25" stroke-miterlimit="10"/>
<path d="M376.128 318.886L376.512 319.066V315.072H376.128V318.886Z" stroke="white" stroke-width="0.25" stroke-miterlimit="10"/>
<path d="M376.512 286.131H376.128V299.379H376.512V286.131Z" stroke="white" stroke-width="0.25" stroke-miterlimit="10"/>
<path d="M376.512 299.712H376.128V314.688H376.512V299.712Z" stroke="white" stroke-width="0.25" stroke-miterlimit="10"/>
<path d="M396.941 299.712C396.941 299.571 396.852 299.443 396.8 299.328H391.872V299.712H396.941Z" stroke="white" stroke-width="0.25" stroke-miterlimit="10"/>
<path d="M376.128 299.712H376.512H391.488V299.328H376.512H376.128H368.96V299.712H376.128Z" stroke="white" stroke-width="0.25" stroke-miterlimit="10"/>
<path d="M376.512 314.688H369.92L370.343 315.072H391.45V314.688H376.512Z" stroke="white" stroke-width="0.25" stroke-miterlimit="10"/>
<path d="M394.24 315.072L394.535 314.688H391.859V315.072H394.24Z" stroke="white" stroke-width="0.25" stroke-miterlimit="10"/>
<path d="M391.488 314.688V317.632L391.872 317.337V291.2L391.488 290.854V314.688Z" stroke="white" stroke-width="0.25" stroke-miterlimit="10"/>
<path d="M368.96 299.328H368.64V299.712H368.96V299.328Z" stroke="white" stroke-width="0.25" stroke-miterlimit="10"/>
<path d="M354.701 299.328L355.072 299.712H360.768V299.328H354.701Z" stroke="white" stroke-width="0.25" stroke-miterlimit="10"/>
<path d="M368.32 299.712H368.64V299.328H368.32H361.152V299.712H368.32Z" stroke="white" stroke-width="0.25" stroke-miterlimit="10"/>
<path d="M359.104 284.352C357.824 284.211 356.672 284.083 355.853 283.968H351.437V284.352H359.104Z" stroke="white" stroke-width="0.25" stroke-miterlimit="10"/>
<path d="M360.768 299.712V305.536L361.152 305.92V284.557H360.768V299.75V299.712Z" stroke="white" stroke-width="0.25" stroke-miterlimit="10"/>
<path d="M386.342 287.885C379.046 285.722 359.078 284.646 355.034 283.827C353.781 283.624 352.571 283.217 351.45 282.624C351.605 284.927 350.857 287.2 349.363 288.96C348.689 289.78 347.944 290.538 347.136 291.226C350.438 294.822 357.491 302.426 362.317 307.046C368.794 313.254 373.389 320.269 382.797 320.269C392.205 320.269 396.557 312.986 397.632 308.122C398.707 303.258 396.288 298.138 396.288 298.138C396.288 298.138 393.626 290.035 386.342 287.885Z" stroke="#263238" stroke-linecap="round" stroke-linejoin="round"/>
<path d="M257.971 244.877C254.51 247.35 252.052 250.984 251.047 255.117C249.383 262.042 236.634 304.167 234.138 314.151C231.642 324.135 229.261 342.503 233.139 349.709C237.018 356.915 254.195 371.866 254.195 371.866L266.394 364.391C266.394 364.391 262.234 353.306 261.402 348.877C260.742 345.855 259.62 342.954 258.074 340.275C258.074 340.275 262.682 309.991 263.795 308.275C264.909 306.56 264.896 289.434 264.896 274.739C264.828 265.603 263.333 256.534 260.467 247.859" fill="#44BBA4"/>
<path d="M253.248 299.712H238.272V314.688H253.248V299.712Z" stroke="white" stroke-width="0.25" stroke-miterlimit="10"/>
<path d="M253.248 330.432H238.272V345.408H253.248V330.432Z" stroke="white" stroke-width="0.25" stroke-miterlimit="10"/>
<path d="M253.248 315.072H238.272V330.048H253.248V315.072Z" stroke="white" stroke-width="0.25" stroke-miterlimit="10"/>
<path d="M253.632 249.331L253.248 249.907V253.248H253.632V249.331Z" stroke="white" stroke-width="0.25" stroke-miterlimit="10"/>
<path d="M253.632 253.632H253.248V268.608H253.632V253.632Z" stroke="white" stroke-width="0.25" stroke-miterlimit="10"/>
<path d="M253.248 276.16V276.48H253.632V276.16V268.992H253.248V276.16Z" stroke="white" stroke-width="0.25" stroke-miterlimit="10"/>
<path d="M264.64 268.608H247.258L247.142 268.992H264.666C264.666 268.864 264.653 268.8 264.64 268.608Z" stroke="white" stroke-width="0.25" stroke-miterlimit="10"/>
<path d="M262.144 253.632C262.144 253.504 262.08 253.376 262.042 253.248H251.622C251.622 253.376 251.52 253.504 251.482 253.632H262.144V253.632Z" stroke="white" stroke-width="0.25" stroke-miterlimit="10"/>
<path d="M253.632 276.8H253.248V283.968H253.632V276.8Z" stroke="white" stroke-width="0.25" stroke-miterlimit="10"/>
<path d="M253.632 284.352H253.248V299.328H253.632V284.352Z" stroke="white" stroke-width="0.25" stroke-miterlimit="10"/>
<path d="M253.632 315.072H253.248V330.048H253.632V315.072Z" stroke="white" stroke-width="0.25" stroke-miterlimit="10"/>
<path d="M253.632 299.712H253.248V314.688H253.632V299.712Z" stroke="white" stroke-width="0.25" stroke-miterlimit="10"/>
<path d="M253.632 330.432H253.248V345.408H253.632V330.432Z" stroke="white" stroke-width="0.25" stroke-miterlimit="10"/>
<path d="M253.248 368.32V368.64H253.632V368.32V361.152H253.248V368.32Z" stroke="white" stroke-width="0.25" stroke-miterlimit="10"/>
<path d="M253.632 345.792H253.248V360.768H253.632V345.792Z" stroke="white" stroke-width="0.25" stroke-miterlimit="10"/>
<path d="M242.368 360.768L242.739 361.152H265.203L265.075 360.768H242.368Z" stroke="white" stroke-width="0.25" stroke-miterlimit="10"/>
<path d="M231.488 330.048C231.488 330.176 231.488 330.304 231.488 330.432H237.888V330.048H231.488Z" stroke="white" stroke-width="0.25" stroke-miterlimit="10"/>
<path d="M238.272 330.048V330.432H259.622V330.048H238.272Z" stroke="white" stroke-width="0.25" stroke-miterlimit="10"/>
<path d="M238.285 299.328V299.712H264.678C264.678 299.584 264.678 299.456 264.678 299.328H238.285Z" stroke="white" stroke-width="0.25" stroke-miterlimit="10"/>
<path d="M231.68 345.408C231.68 345.536 231.68 345.664 231.77 345.792H237.837V345.408H231.68Z" stroke="white" stroke-width="0.25" stroke-miterlimit="10"/>
<path d="M238.272 345.408V345.792H260.57L260.442 345.408H238.272Z" stroke="white" stroke-width="0.25" stroke-miterlimit="10"/>
<path d="M238.272 314.688V315.072H262.234L262.31 314.688H238.272Z" stroke="white" stroke-width="0.25" stroke-miterlimit="10"/>
<path d="M234.01 314.688C234.01 314.816 234.01 314.944 233.92 315.072H237.888V314.688H234.01Z" stroke="white" stroke-width="0.25" stroke-miterlimit="10"/>
<path d="M242.765 283.968L242.65 284.352H264.883V283.968H242.765Z" stroke="white" stroke-width="0.25" stroke-miterlimit="10"/>
<path d="M238.272 330.432V299.366L237.888 300.646V355.968L238.272 356.39V330.432Z" stroke="white" stroke-width="0.25" stroke-miterlimit="10"/>
<path d="M253.632 276.48H253.248V276.8H253.632V276.48Z" stroke="white" stroke-width="0.25" stroke-miterlimit="10"/>
<path d="M253.248 371.047L253.632 371.392V368.96H253.248V371.047Z" stroke="white" stroke-width="0.25" stroke-miterlimit="10"/>
<path d="M253.632 368.64H253.248V368.96H253.632V368.64Z" stroke="white" stroke-width="0.25" stroke-miterlimit="10"/>
<path d="M257.971 244.877C254.51 247.35 252.052 250.984 251.047 255.117C249.383 262.042 236.634 304.167 234.138 314.151C231.642 324.135 229.261 342.503 233.139 349.709C237.018 356.915 254.195 371.866 254.195 371.866L266.394 364.391C266.394 364.391 262.234 353.306 261.402 348.877C260.742 345.855 259.62 342.954 258.074 340.275C258.074 340.275 262.682 309.991 263.795 308.275C264.909 306.56 264.896 289.434 264.896 274.739C264.828 265.603 263.333 256.534 260.467 247.859" stroke="#263238" stroke-linecap="round" stroke-linejoin="round"/>
<path d="M256.307 266.01C256.307 266.01 259.52 280.807 264.666 300.749" stroke="#263238" stroke-linecap="round" stroke-linejoin="round"/>
<path d="M250.048 368.563C250.048 368.563 257.523 358.323 264.448 359.143" stroke="#263238" stroke-linecap="round" stroke-linejoin="round"/>
<path d="M242.842 339.469C242.842 339.469 251.431 335.629 258.074 340.288" stroke="#263238" stroke-linecap="round" stroke-linejoin="round"/>
<path d="M266.394 364.403C266.394 364.403 270.554 365.786 272.205 366.618C273.856 367.45 273.869 369.395 276.365 371.328C278.861 373.261 280.806 373.824 279.974 374.938C279.142 376.051 278.029 377.421 276.134 377.152C274.24 376.883 270.592 373.824 270.592 373.824C270.592 373.824 263.386 385.741 263.104 386.624C262.822 387.507 260.339 384.41 257.843 380.531C256.221 377.859 255.005 374.96 254.234 371.93L266.394 364.403Z" fill="#FFD6C6" stroke="#263238" stroke-linecap="round" stroke-linejoin="round"/>
<path d="M313.498 417.331L312.653 393.075" stroke="white" stroke-linecap="round" stroke-linejoin="round"/>
<path d="M309.338 393.075L317.926 391.143" stroke="white" stroke-linecap="round" stroke-linejoin="round"/>
<path d="M310.912 567.104C310.912 567.104 309.747 562.061 315.558 555.763C321.37 549.466 329.792 551.923 333.581 554.752C337.37 557.581 338.227 561.562 342.298 563.827C344.727 565.188 346.812 567.089 348.39 569.383H310.618L310.912 567.104Z" fill="#7C432C" stroke="#263238" stroke-linecap="round" stroke-linejoin="round"/>
<path d="M175.565 200.474C175.565 200.474 182.349 205.965 186.867 206.874C191.386 207.782 196.237 210.714 193.984 217.856C191.731 224.998 185.254 229.811 185.574 233.037C185.894 236.262 180.454 244.992 181.056 249.83C181.658 254.669 187.52 261.786 190.746 272.448C193.971 283.11 185.6 284.16 180.083 291.84C174.566 299.52 157.798 302.182 141.325 295.078C124.851 287.974 116.122 275.046 120.653 263.731C125.184 252.416 132.928 251.136 133.568 243.392C134.208 235.648 127.168 220.454 132.928 210.432C138.688 200.41 145.203 198.157 152.96 196.544C160.717 194.931 170.726 197.568 175.565 200.474Z" fill="#263238" stroke="#263238" stroke-linecap="round" stroke-linejoin="round"/>
<path d="M191.501 283.123C191.501 283.123 206.413 314.329 209.894 331.277C213.376 348.224 212.454 355.597 201.101 360.486C189.747 365.376 174.221 358.873 172.019 331.417C169.818 303.961 174.579 277.465 184.627 277.465C186.269 277.396 187.878 277.935 189.146 278.979C190.415 280.023 191.253 281.499 191.501 283.123Z" fill="#44BBA4" stroke="#263238" stroke-linecap="round" stroke-linejoin="round"/>
<path d="M188.544 271.181C188.544 271.181 194.611 271.808 197.965 275.993C201.318 280.179 202.15 291.904 203.827 297.357C205.504 302.809 213.248 311.168 215.552 318.72C217.856 326.272 214.707 330.24 209.894 331.289C205.081 332.339 201.933 326.477 199.001 322.073C196.044 317.272 193.656 312.144 191.885 306.79C190.003 301.555 186.445 277.478 185.395 274.79C184.345 272.102 185.817 271.181 188.544 271.181Z" fill="#FFD6C6" stroke="#263238" stroke-linecap="round" stroke-linejoin="round"/>
<path d="M203.827 297.357C202.15 291.904 201.267 280.179 197.965 275.993C194.662 271.808 188.544 271.181 188.544 271.181C185.817 271.181 184.345 272.013 185.395 274.739C186.445 277.465 190.003 301.542 191.885 306.739V306.803C195.752 303.686 200.231 301.414 205.03 300.134C204.545 299.247 204.142 298.317 203.827 297.357Z" fill="#44BBA4" stroke="#263238" stroke-linecap="round" stroke-linejoin="round"/>
<path d="M150.118 542.989C149.209 546.609 147.86 550.104 146.099 553.395C143.539 557.888 139.955 564.262 139.955 566.63C139.992 567.736 139.915 568.843 139.725 569.933H156.736C157.696 567.572 158.408 565.119 158.861 562.611C159.565 558.592 158.63 560.486 160.755 553.869C161.988 549.543 161.988 544.959 160.755 540.634C160.755 540.634 154.611 544 150.118 542.989Z" fill="#282828" stroke="#263238" stroke-linecap="round" stroke-linejoin="round"/>
<path d="M153.715 245.35C153.715 245.35 155.789 258.56 156.16 263.77C156.646 270.387 147.379 271.962 139.699 274.317C136.512 275.302 130.381 277.018 128.653 284.634C126.925 292.25 134.797 306.24 138.726 313.114C142.656 319.987 146.086 327.104 146.086 331.034C146.086 334.963 139.955 348.467 136.755 357.542C133.555 366.618 131.11 377.19 131.353 395.11C131.597 413.03 145.843 441.267 148.544 446.426C151.245 451.584 151.245 453.786 151.245 453.786C151.245 453.786 147.801 461.146 146.585 463.603C145.369 466.061 138.726 488.397 140.685 503.872C142.643 519.347 148.173 539.034 148.659 541.235C148.665 541.316 148.665 541.397 148.659 541.478C148.904 542.895 149.59 544.197 150.62 545.2C151.65 546.202 152.971 546.853 154.393 547.059C156.115 547.296 157.862 546.86 159.271 545.842C160.679 544.824 161.642 543.302 161.958 541.594C163.52 533.12 166.144 518.733 166.656 515.162C167.398 510.042 168.384 497.485 168.384 497.485L169.856 490.368C169.856 490.368 170.585 550.528 170.585 554.202C170.585 557.875 171.085 564.019 171.085 564.019L185.741 558.285C185.741 558.285 188.761 531.405 190.72 519.334C192.678 507.264 195.136 492.582 198.336 477.35C201.536 462.118 209.382 431.936 210.854 406.95C212.326 381.965 207.91 367.168 207.91 367.168C207.91 367.168 200.294 341.389 198.336 336.448C196.377 331.507 193.664 320.486 194.163 318.285C194.662 316.083 199.065 308.454 199.065 300.851C199.065 293.248 192.934 283.174 192.934 279.002C192.934 274.829 191.949 272.858 187.814 270.656C183.68 268.454 179.469 269.171 175.782 265.741C172.096 262.31 171.366 249.779 171.366 249.779L153.715 245.35Z" fill="#9C9C9C" stroke="#263238" stroke-linecap="round" stroke-linejoin="round"/>
<path d="M187.84 270.643C183.667 268.429 179.494 269.158 175.808 265.728C172.121 262.298 171.392 249.766 171.392 249.766L153.715 245.35C153.715 245.35 155.789 258.56 156.16 263.77C156.557 269.235 150.31 271.258 143.808 273.126C149.005 281.894 161.561 299.341 177.088 294.886C184.857 292.621 189.683 284.646 192.678 275.686C192.089 273.574 190.72 272.166 187.84 270.643Z" fill="#FFD6C6" stroke="#263238" stroke-linecap="round" stroke-linejoin="round"/>
<path d="M170.739 567.398C170.739 567.398 169.715 562.982 174.81 557.466C179.904 551.949 183.77 552.806 187.021 555.238C190.272 557.67 194.637 562.534 198.195 564.518C200.329 565.706 202.16 567.371 203.546 569.382H170.483L170.739 567.398Z" fill="#282828" stroke="#263238" stroke-linecap="round" stroke-linejoin="round"/>
<path d="M199.13 300.8C199.13 293.184 192.998 283.123 192.998 278.95C192.998 274.778 192.013 272.806 187.878 270.605C184.141 268.621 180.39 268.992 177.011 266.624C177.626 267.75 180.749 274.394 171.738 279.424C163.2 284.147 154.253 273.254 151.949 270.195C148.659 271.974 143.974 273.037 139.75 274.33C136.563 275.315 130.432 277.03 128.704 284.646C126.976 292.262 134.848 306.253 138.778 313.126C142.707 320 146.138 327.117 146.138 331.046C146.138 334.976 140.006 348.48 136.806 357.555C135.872 360.23 135.002 363.034 134.246 366.106C144.32 369.805 171.891 377.242 207.386 365.056C205.542 358.835 200.051 340.506 198.426 336.448C196.454 331.533 193.754 320.486 194.253 318.285C194.752 316.083 199.13 308.48 199.13 300.8Z" fill="#263238" stroke="#263238" stroke-linecap="round" stroke-linejoin="round"/>
<path d="M179.75 267.674L202.457 301.734L198.4 336.435L201.254 344.038L205.555 301.555L187.315 270.08L179.75 267.674Z" fill="#44BBA4" stroke="#263238" stroke-linecap="round" stroke-linejoin="round"/>
<path d="M204.339 300.006C204.339 300.006 197.811 300.698 197.632 301.901C197.638 303.236 197.814 304.565 198.157 305.856C198.157 305.856 197.632 308.416 198.323 309.696C198.728 310.372 198.965 311.136 199.014 311.923C199.014 311.923 198.835 313.651 199.872 314.342C200.909 315.034 201.075 315.546 201.075 315.546C201.075 315.546 201.254 317.261 202.112 317.773C202.969 318.285 208.985 318.63 210.88 317.952C212.774 317.274 213.12 314.342 213.286 312.96C213.444 311.074 213.504 309.182 213.465 307.29C213.465 305.395 213.12 301.786 212.429 300.582C211.737 299.379 206.233 299.661 204.339 300.006Z" fill="#FFD6C6" stroke="#263238" stroke-linecap="round" stroke-linejoin="round"/>
<path d="M198.157 305.856L208.294 305.165" stroke="#263238" stroke-linecap="round" stroke-linejoin="round"/>
<path d="M199.014 310.502L208.128 310.323" stroke="#263238" stroke-linecap="round" stroke-linejoin="round"/>
<path d="M201.075 315.494L208.294 315.149" stroke="#263238" stroke-linecap="round" stroke-linejoin="round"/>
<path d="M171.712 209.651C171.712 209.651 167.501 214.835 162.97 219.699C158.297 225.074 153.974 230.743 150.029 236.672C147.11 240.883 145.779 244.006 148.378 248.192C150.976 252.378 159.757 260.864 167.949 262.912C172.864 264.192 177.549 258.278 179.469 253.094C181.389 247.91 185.306 240.41 184.986 236.198C184.666 231.987 180.48 218.726 180.48 218.726C180.48 218.726 173.99 211.264 171.712 209.651Z" fill="#FFD6C6" stroke="#263238" stroke-linecap="round" stroke-linejoin="round"/>
<path d="M175.053 225.958C175.053 225.958 172.045 228.723 173.555 231.488C175.065 234.253 178.829 236.262 177.574 238.016C176.32 239.769 172.045 239.526 172.045 239.526" stroke="#263238" stroke-linecap="round" stroke-linejoin="round"/>
<path d="M172.8 245.043C172.8 245.043 166.771 246.554 162.752 242.278" stroke="#263238" stroke-linecap="round" stroke-linejoin="round"/>
<path d="M156.979 225.459C157.312 224.282 165.069 221.542 168.026 226.458" stroke="#263238" stroke-linecap="round" stroke-linejoin="round"/>
<path d="M175.053 225.958C175.053 225.958 178.074 222.438 181.594 225.203" stroke="#263238" stroke-linecap="round" stroke-linejoin="round"/>
<path d="M164.262 244.045C164.262 244.045 163.507 248.563 165.542 249.561C167.577 250.56 170.317 245.555 170.317 245.555C170.317 245.555 166.771 244.544 164.262 244.045Z" fill="#263238" stroke="#263238" stroke-linecap="round" stroke-linejoin="round"/>
<path d="M158.49 231.68C158.49 231.68 163.008 229.12 166.515 230.938" stroke="#263238" stroke-linecap="round" stroke-linejoin="round"/>
<path d="M160.486 231.68C160.486 231.68 164.762 230.4 166.771 231.936" stroke="#263238" stroke-linecap="round" stroke-linejoin="round"/>
<path d="M174.31 231.232C174.31 231.232 178.829 228.672 182.336 230.477" stroke="#263238" stroke-linecap="round" stroke-linejoin="round"/>
<path d="M176.32 231.232C176.32 231.232 180.582 229.952 182.592 231.488" stroke="#263238" stroke-linecap="round" stroke-linejoin="round"/>
<path d="M135.795 276.48C135.795 276.48 127.437 277.21 124.275 284.083C121.113 290.957 125.99 294.886 128.947 299.059C131.904 303.232 134.835 311.59 139.494 312.077C144.153 312.563 149.568 310.605 150.541 303.974C151.513 297.344 143.424 288.512 142.195 286.784" fill="#44BBA4"/>
<path d="M135.795 276.48C135.795 276.48 127.437 277.21 124.275 284.083C121.113 290.957 125.99 294.886 128.947 299.059C131.904 303.232 134.835 311.59 139.494 312.077C144.153 312.563 149.568 310.605 150.541 303.974C151.513 297.344 143.424 288.512 142.195 286.784" stroke="#263238" stroke-linecap="round" stroke-linejoin="round"/>
<path d="M201.792 275.61C201.792 275.61 205.005 276.89 205.632 277.683C206.226 279.089 207.127 280.344 208.269 281.357C209.997 282.637 210.688 283.661 209.549 284.006C208.41 284.352 207.718 284.224 205.875 283.085C204.032 281.946 203.686 280.666 202.547 280.09C201.408 279.514 201.792 275.61 201.792 275.61Z" fill="#FFD6C6" stroke="#263238" stroke-linecap="round" stroke-linejoin="round"/>
<path d="M143.718 312.013C142.613 312.347 141.445 312.415 140.308 312.21C139.172 312.005 138.101 311.533 137.182 310.833C136.264 310.133 135.525 309.226 135.025 308.185C134.526 307.144 134.281 305.999 134.31 304.845C134.216 300.928 135.621 297.122 138.24 294.208C144.141 288.32 153.958 288.32 161.818 284.877C169.677 281.433 180.467 277.517 183.91 276.045C187.354 274.573 198.067 270.08 200.026 270.08C201.984 270.08 203.802 271.091 208.218 272.077C210.893 272.665 214.106 272.806 213.862 274.521C213.619 276.237 212.147 275.264 209.446 275.264C206.746 275.264 202.317 274.777 202.317 274.777L204.134 279.897C204.246 280.645 204.083 281.408 203.676 282.046C203.269 282.683 202.645 283.152 201.92 283.366L194.714 285.542C193.908 285.827 193.05 285.93 192.2 285.844C191.35 285.757 190.53 285.484 189.798 285.043C189.069 284.557 186.125 282.342 186.125 282.342C186.125 282.342 174.822 289.216 169.92 293.645C165.018 298.073 155.917 306.649 148.8 309.837C147.148 310.655 145.451 311.382 143.718 312.013Z" fill="#FFD6C6" stroke="#263238" stroke-linecap="round" stroke-linejoin="round"/>
<path d="M196.429 275.059C197.873 277.822 199.088 280.699 200.064 283.661L196.429 275.059Z" fill="#FFD6C6"/>
<path d="M196.429 275.059C197.873 277.822 199.088 280.699 200.064 283.661" stroke="#263238" stroke-linecap="round" stroke-linejoin="round"/>
<path d="M192.486 277.338C192.486 277.338 195.942 282.458 195.942 285.12L192.486 277.338Z" fill="#FFD6C6"/>
<path d="M192.486 277.338C192.486 277.338 195.942 282.458 195.942 285.12" stroke="#263238" stroke-linecap="round" stroke-linejoin="round"/>
<path d="M202.317 274.816L201.587 272.845" stroke="#263238" stroke-linecap="round" stroke-linejoin="round"/>
<path d="M189.44 284.608C189.44 284.608 187.942 282.854 189.299 282.713C190.05 282.61 190.814 282.753 191.475 283.123L189.977 281.357" fill="#FFD6C6"/>
<path d="M189.44 284.608C189.44 284.608 187.942 282.854 189.299 282.713C190.05 282.61 190.814 282.753 191.475 283.123L189.977 281.357" stroke="#263238" stroke-linecap="round" stroke-linejoin="round"/>
<path d="M184.947 379.545L176.87 383.757C176.87 383.757 177.19 426.393 176.218 451.597C175.245 476.8 169.92 490.381 169.92 490.381" stroke="#263238" stroke-linecap="round" stroke-linejoin="round"/>
</svg>
