<svg width="375" height="369" viewBox="0 0 375 369" fill="none" xmlns="http://www.w3.org/2000/svg">
<path d="M168.096 367.558C168.096 367.558 236.333 378.538 289.848 330.5C343.363 282.462 358.085 204.364 371.664 141.467C385.243 78.5704 356.379 22.6031 303.043 4.6679C249.707 -13.2673 226.643 32.344 160.854 46.7502C95.0651 61.1564 75.0545 54.8676 28.8154 103.384C-17.4238 151.9 -6.77025 243.892 51.8454 302.405C110.461 360.919 168.096 367.558 168.096 367.558Z" fill="#E5F1E6"/>
<path d="M263.1 364.865C233.609 346.834 224.976 310.578 224.108 277.569C223.961 272.064 223.008 266.302 225.331 261.321C227.654 256.34 233.572 252.678 238.646 254.692C242.852 256.365 244.919 261.016 247.437 264.8C250.812 269.856 255.551 273.856 261.107 276.336C264.775 277.948 269.128 278.778 272.466 276.678C277.063 273.773 277.222 267.193 276.856 261.724C276.187 251.543 275.511 241.37 274.826 231.205C274.459 225.736 274.105 220.158 275.498 214.859C276.892 209.561 280.389 204.52 285.476 202.75C290.562 200.98 297.226 203.592 298.644 208.853C299.243 211.051 298.925 213.395 299.219 215.653C299.512 217.911 300.71 220.353 302.887 220.866C305.063 221.378 307.215 219.645 308.756 217.985C314.075 212.125 317.474 204.788 320.628 197.488C323.783 190.188 326.827 182.754 331.633 176.418C336.438 170.083 343.212 164.894 351.025 163.979C358.838 163.063 367.495 167.385 369.94 174.966C372.385 182.546 368.363 190.652 363.826 197.183C357.116 206.879 349.036 215.555 339.837 222.941C338.174 224.271 336.389 225.712 335.851 227.824C334.885 231.486 338.553 234.953 342.234 235.929C346.403 237.04 350.792 236.357 355.109 236.601C359.425 236.845 364.144 238.444 366.003 242.375C368.583 247.832 364.254 253.972 359.889 258.086C351.121 266.318 341.001 272.983 329.97 277.789C326.033 279.51 321.863 281.06 318.794 284.076C315.725 287.091 314.05 292.133 316.239 295.868C318.427 299.604 323.575 300.531 327.72 299.53C331.865 298.529 335.533 295.978 339.47 294.22C346.806 290.936 356.588 290.863 361.785 297.064C365.208 301.142 365.856 307.074 364.56 312.263C363.264 317.451 360.281 322.029 357.065 326.277C345.865 341.133 331.107 353.438 314.014 360.531C296.92 367.623 280.842 370.297 263.1 364.95" fill="#8AAB8F"/>
<path d="M270.449 343.386C274.818 325.174 280.228 307.227 286.651 289.635C288.329 284.955 289.987 280.331 291.625 275.765C293.267 271.215 294.897 266.713 296.758 262.382C300.369 254.108 304.429 246.037 308.922 238.207C313.154 230.713 317.436 223.741 321.498 217.269C325.561 210.796 329.49 204.822 333.285 199.542C339.23 191.169 345.836 183.284 353.038 175.964C355.58 173.372 357.611 171.426 359.01 170.124L360.616 168.652C360.791 168.481 360.978 168.323 361.175 168.177C361.175 168.177 361.029 168.372 360.689 168.725L359.156 170.27C357.806 171.62 355.811 173.603 353.318 176.231C346.248 183.643 339.742 191.573 333.856 199.956C330.11 205.248 326.242 211.222 322.204 217.719C318.166 224.216 313.921 231.187 309.724 238.682C305.275 246.491 301.256 254.536 297.683 262.783C295.834 267.066 294.228 271.543 292.586 276.106C290.944 280.668 289.302 285.291 287.624 289.963C281.212 307.519 275.787 325.419 271.374 343.58" fill="#242E25"/>
<path d="M298.099 262.359C297.785 261.619 297.551 260.851 297.399 260.066C297.005 258.578 296.509 256.407 295.937 253.699C294.792 248.308 293.469 240.807 292.044 232.537C290.62 224.267 289.195 216.79 287.974 211.436C287.363 208.752 286.842 206.557 286.473 205.093C286.231 204.327 286.073 203.538 286.002 202.739C286.378 203.454 286.668 204.207 286.867 204.984C287.363 206.447 287.987 208.643 288.686 211.265C290.111 216.607 291.663 224.072 293.087 232.366C294.512 240.66 295.72 247.918 296.674 253.565C297.12 256.114 297.501 258.261 297.806 259.981C297.996 260.76 298.095 261.558 298.099 262.359Z" fill="#242E25"/>
<path d="M366.359 245.097C365.462 245.342 364.544 245.509 363.618 245.594C361.87 245.861 359.32 246.238 356.184 246.808C349.911 247.889 341.292 249.685 331.882 252.089C322.473 254.493 314.033 257.067 307.94 259.106C304.911 260.09 302.481 260.964 300.757 261.534C299.901 261.9 299.01 262.177 298.099 262.36C298.904 261.88 299.749 261.474 300.625 261.146C302.265 260.442 304.671 259.47 307.676 258.39C313.662 256.18 322.114 253.534 331.619 251.106C339.681 249.021 347.845 247.36 356.076 246.128C359.237 245.655 361.798 245.388 363.582 245.242C364.501 245.097 365.431 245.048 366.359 245.097Z" fill="#242E25"/>
<path d="M271.313 342.717C271.107 342.465 270.932 342.189 270.79 341.894C270.434 341.219 270.006 340.397 269.471 339.439C268.282 337.279 266.773 334.1 264.883 330.159C261.115 322.267 256.23 311.195 251 298.908C245.771 286.62 240.992 275.499 237.379 267.533L233.1 258.081L231.912 255.516C231.748 255.227 231.631 254.912 231.567 254.583C231.769 254.839 231.94 255.12 232.078 255.418L233.397 257.873C234.586 260.045 236.107 263.212 237.997 267.165C241.765 275.058 246.65 286.129 251.88 298.417C257.11 310.704 261.888 321.813 265.501 329.779L269.804 339.194L270.992 341.771C271.147 342.067 271.256 342.386 271.313 342.717Z" fill="#242E25"/>
<path d="M362.903 306.426C362.623 306.615 362.319 306.766 362 306.872L359.338 307.963L349.57 311.867C341.279 315.164 329.899 319.862 317.322 325.055C304.745 330.248 293.292 334.846 284.94 337.97C280.764 339.531 277.37 340.758 275.013 341.564L272.29 342.469C271.979 342.6 271.649 342.684 271.313 342.717C271.597 342.533 271.9 342.384 272.217 342.27L274.879 341.192L284.647 337.288C292.938 333.991 304.33 329.294 316.907 324.1C329.484 318.907 340.925 314.346 349.24 311.186C353.416 309.612 356.81 308.385 359.167 307.579L361.89 306.674C362.213 306.54 362.555 306.457 362.903 306.426Z" fill="#242E25"/>
<path d="M120.443 365.241C146.119 349.544 153.634 317.98 154.389 289.243C154.517 284.45 155.347 279.434 153.325 275.098C151.302 270.762 146.15 267.573 141.733 269.327C138.071 270.783 136.272 274.832 134.079 278.127C131.141 282.529 127.015 286.01 122.179 288.17C118.985 289.573 115.196 290.295 112.29 288.467C108.287 285.938 108.149 280.21 108.468 275.448C109.05 266.585 109.639 257.729 110.235 248.879C110.555 244.118 110.863 239.261 109.65 234.649C108.436 230.036 105.392 225.647 100.964 224.106C96.5355 222.565 90.7341 224.84 89.4993 229.42C88.9777 231.333 89.2545 233.374 88.9991 235.34C88.7436 237.306 87.7004 239.431 85.8057 239.878C83.9109 240.324 82.0374 238.815 80.6961 237.37C76.0657 232.268 73.1065 225.881 70.3602 219.526C67.6139 213.17 64.9633 206.698 60.78 201.182C56.5966 195.667 50.6994 191.15 43.8975 190.353C37.0955 189.556 29.559 193.318 27.4301 199.918C25.3011 206.517 28.8033 213.574 32.7524 219.26C38.5945 227.701 45.629 235.254 53.6373 241.684C55.085 242.843 56.6391 244.097 57.1075 245.935C57.9484 249.124 54.755 252.142 51.5509 252.992C47.9211 253.959 44.0997 253.364 40.3421 253.577C36.5845 253.789 32.4757 255.181 30.8577 258.604C28.6117 263.354 32.3799 268.7 36.1801 272.281C43.8132 279.448 52.6241 285.25 62.2276 289.434C65.6552 290.933 69.2851 292.283 71.9569 294.908C74.6287 297.533 76.087 301.922 74.1816 305.174C72.2762 308.426 67.7948 309.234 64.1863 308.362C60.5777 307.491 57.3843 305.27 53.9567 303.739C47.5698 300.88 39.0541 300.817 34.5301 306.215C31.5496 309.765 30.9854 314.93 32.1138 319.447C33.2421 323.964 35.8394 327.949 38.639 331.647C48.3895 344.581 61.2376 355.294 76.1189 361.469C91.0002 367.643 104.998 369.971 120.443 365.316" fill="#8AAB8F"/>
<path d="M114.045 346.543C110.241 330.688 105.532 315.064 99.9401 299.748C98.4788 295.673 97.0352 291.648 95.6091 287.673C94.1796 283.711 92.7606 279.792 91.1405 276.022C87.9972 268.818 84.4622 261.792 80.5513 254.975C76.8662 248.451 73.1389 242.382 69.6021 236.747C66.0653 231.112 62.645 225.911 59.3411 221.314C54.1651 214.024 48.4145 207.16 42.1443 200.787C39.9311 198.531 38.1627 196.836 36.9449 195.703L35.5472 194.421C35.394 194.273 35.2313 194.135 35.0601 194.008C35.0601 194.008 35.1871 194.178 35.4836 194.485L36.8179 195.83C37.9933 197.006 39.7299 198.732 41.9007 201.02C48.0556 207.472 53.719 214.376 58.8434 221.674C62.1049 226.282 65.4723 231.483 68.9879 237.139C72.5035 242.795 76.1991 248.864 79.8524 255.389C83.7256 262.187 87.2252 269.192 90.3357 276.371C91.9452 280.1 93.343 283.997 94.7726 287.969C96.2021 291.941 97.6317 295.966 99.093 300.034C104.675 315.317 109.398 330.901 113.24 346.712" fill="#242E25"/>
<path d="M89.9736 276.001C90.2468 275.358 90.4508 274.689 90.5826 274.005C90.9259 272.71 91.3578 270.82 91.8562 268.462C92.8528 263.769 94.0045 257.238 95.2448 250.039C96.4851 242.839 97.7253 236.33 98.7884 231.668C99.32 229.332 99.774 227.421 100.095 226.147C100.306 225.479 100.443 224.792 100.505 224.097C100.178 224.719 99.9255 225.375 99.7519 226.051C99.32 227.325 98.7774 229.237 98.1683 231.52C96.928 236.171 95.577 242.669 94.3367 249.89C93.0964 257.111 92.0444 263.429 91.2138 268.345C90.8263 270.565 90.494 272.434 90.2283 273.931C90.0628 274.61 89.9774 275.304 89.9736 276.001Z" fill="#242E25"/>
<path d="M30.547 260.973C31.3287 261.187 32.1272 261.332 32.9336 261.406C34.4552 261.639 36.6751 261.967 39.4057 262.463C44.8669 263.404 52.3708 264.968 60.5625 267.061C68.7543 269.154 76.1018 271.394 81.4067 273.17C84.0434 274.026 86.1591 274.787 87.6599 275.284C88.4051 275.602 89.1803 275.843 89.9736 276.002C89.2729 275.585 88.537 275.231 87.7746 274.945C86.3468 274.332 84.2519 273.487 81.636 272.546C76.4249 270.623 69.067 268.319 60.7918 266.205C53.7727 264.39 46.6658 262.943 39.4995 261.871C36.7481 261.459 34.5178 261.227 32.9649 261.1C32.1653 260.974 31.3551 260.931 30.547 260.973Z" fill="#242E25"/>
<path d="M113.293 345.96C113.472 345.741 113.625 345.5 113.748 345.244C114.059 344.656 114.431 343.94 114.897 343.106C115.932 341.225 117.246 338.458 118.891 335.027C122.172 328.156 126.424 318.517 130.977 307.82C135.53 297.123 139.69 287.441 142.836 280.506L146.561 272.277L147.596 270.044C147.739 269.792 147.84 269.517 147.896 269.231C147.72 269.455 147.571 269.699 147.451 269.958L146.302 272.095C145.268 273.987 143.943 276.744 142.298 280.185C139.018 287.056 134.765 296.695 130.212 307.392C125.659 318.09 121.499 327.761 118.353 334.696L114.607 342.893L113.573 345.137C113.438 345.394 113.343 345.672 113.293 345.96Z" fill="#242E25"/>
<path d="M33.5559 314.366C33.7998 314.53 34.0643 314.661 34.3425 314.754L36.6599 315.704L45.1641 319.103C52.382 321.973 62.2893 326.062 73.2384 330.584C84.1875 335.105 94.1586 339.108 101.43 341.827C105.065 343.187 108.02 344.255 110.072 344.956L112.443 345.744C112.714 345.858 113 345.931 113.293 345.96C113.046 345.8 112.782 345.67 112.506 345.571L110.189 344.632L101.685 341.234C94.4669 338.363 84.5489 334.274 73.5998 329.753C62.6507 325.232 52.6903 321.261 45.4511 318.509C41.8156 317.139 38.8604 316.071 36.8088 315.369L34.4382 314.582C34.1565 314.465 33.859 314.392 33.5559 314.366Z" fill="#242E25"/>
<path d="M338.632 97.1228C337.316 86.4443 328.283 76.485 317.519 76.485C311.168 76.485 305.134 79.8007 300.794 84.4329C299.254 86.0039 297.832 87.6866 296.54 89.4674C295.63 87.4681 294.571 85.5406 293.37 83.7015C290.03 78.3013 284.764 73.8519 278.535 72.6085C267.99 70.4996 257.178 78.4719 253.777 88.6872C250.376 98.9025 253.204 110.349 258.799 119.54C264.394 128.732 274.012 140.739 291.712 146.7C303.903 145.127 320.31 134.29 327.6 126.379C334.89 118.468 339.912 107.789 338.632 97.1228Z" fill="#FF5B5B"/>
<path d="M334.707 116.286C334.59 116.299 334.471 116.299 334.354 116.286L333.318 116.212L329.331 115.883L314.703 114.542L314.971 114.384C313.204 118.98 311.144 124.368 308.876 130.231L308.511 131.182L308.267 130.182C306.402 122.478 304.329 113.835 302.172 104.729C301.501 101.913 300.831 99.1341 300.185 96.4279L300.806 96.5499L289.64 111.909L289.531 112.056H289.348L263.651 109.374L256.337 108.569L254.411 108.325C254.187 108.313 253.966 108.272 253.753 108.204C253.976 108.182 254.2 108.182 254.423 108.204L256.349 108.338L263.663 108.972L289.384 111.41L289.104 111.531L300.221 96.1476L300.66 95.5259L300.831 96.2695C301.489 98.9757 302.147 101.743 302.83 104.571L308.925 130.036H308.316C310.62 124.148 312.728 118.772 314.533 114.189L314.594 114.006H314.789L329.417 115.566L333.378 116.03L334.415 116.164C334.517 116.191 334.615 116.232 334.707 116.286Z" fill="#FAFAFA"/>
<path d="M114.831 122.291H106.785V158.362H114.831V122.291Z" fill="#FF5B5B"/>
<path d="M92.7666 136.297V144.343H128.837V136.297H92.7666Z" fill="#FF5B5B"/>
<path d="M140.759 140.418C140.729 140.256 140.709 140.094 140.698 139.93C140.698 139.576 140.637 139.101 140.601 138.504C140.601 138.187 140.601 137.833 140.528 137.455C140.454 137.078 140.406 136.651 140.332 136.236C140.197 135.19 139.985 134.155 139.699 133.14C138.993 130.337 137.866 127.658 136.359 125.192C132.805 119.235 127.284 114.705 120.748 112.384C114.212 110.063 107.071 110.096 100.556 112.478C99.2217 112.955 97.9223 113.526 96.6675 114.184C95.3956 114.883 94.1737 115.669 93.0105 116.537C91.8237 117.417 90.6957 118.374 89.6339 119.402C88.5886 120.487 87.6153 121.639 86.7204 122.852C84.8753 125.338 83.4391 128.104 82.4661 131.043C80.4183 137.138 80.4183 143.734 82.4661 149.828C83.4364 152.769 84.8728 155.535 86.7204 158.02C87.6091 159.237 88.5827 160.39 89.6339 161.47C90.6925 162.505 91.8206 163.466 93.0105 164.347C94.1737 165.215 95.3956 166.001 96.6675 166.699C97.9247 167.353 99.2238 167.923 100.556 168.406C107.071 170.77 114.205 170.795 120.736 168.478C127.267 166.16 132.79 161.645 136.359 155.704C137.869 153.235 138.995 150.551 139.699 147.744C139.986 146.733 140.198 145.702 140.332 144.66C140.406 144.197 140.491 143.782 140.528 143.441C140.564 143.099 140.528 142.709 140.601 142.392C140.601 141.783 140.674 141.32 140.698 140.966C140.708 140.802 140.728 140.64 140.759 140.479C140.773 140.641 140.773 140.804 140.759 140.966C140.759 141.32 140.759 141.795 140.759 142.392V143.453C140.759 143.843 140.649 144.257 140.601 144.672C140.479 145.725 140.284 146.767 140.016 147.793C139.341 150.638 138.235 153.363 136.736 155.875C134.538 159.585 131.573 162.784 128.039 165.256C124.505 167.728 120.484 169.417 116.245 170.21C110.942 171.193 105.474 170.752 100.398 168.93C99.0411 168.44 97.7177 167.861 96.4359 167.199C93.8161 165.756 91.4013 163.968 89.2559 161.884C88.184 160.785 87.1902 159.612 86.2816 158.374C84.3851 155.837 82.9151 153.009 81.9297 149.999C80.9251 146.899 80.395 143.664 80.3572 140.405C80.4019 137.151 80.9319 133.922 81.9297 130.824C82.9203 127.82 84.3899 124.996 86.2816 122.462C87.1932 121.222 88.1868 120.045 89.2559 118.939C90.3423 117.895 91.4946 116.921 92.7058 116.025C96.0493 113.559 99.8644 111.807 103.914 110.878C107.963 109.949 112.161 109.863 116.245 110.625C120.463 111.436 124.461 113.134 127.973 115.608C131.485 118.081 134.431 121.274 136.614 124.973C138.111 127.481 139.216 130.202 139.894 133.043C140.161 134.072 140.357 135.119 140.479 136.175C140.479 136.626 140.613 137.053 140.637 137.394V138.443C140.637 139.052 140.637 139.528 140.637 139.881C140.694 140.056 140.735 140.235 140.759 140.418Z" fill="#FF5B5B"/>
<rect x="180.033" y="164.635" width="19.1115" height="16.8598" transform="rotate(1.60145 180.033 164.635)" fill="#FF9172"/>
<path d="M219.165 131.73C218.433 153.035 203.887 169.827 186.676 169.236C176.86 168.898 162.291 164.386 156.88 155.41C152.804 148.648 158.114 134.659 158.428 125.505C159.16 104.2 172.115 91.4921 189.326 92.0833C206.537 92.6746 219.897 110.425 219.165 131.73Z" fill="#FFA288"/>
<path d="M164.672 113.77C161.112 113.003 154.624 107.617 154.624 107.617C154.624 107.617 147.636 101.99 147.195 96.9242C146.83 92.7301 148.392 90.2302 150.764 86.7521C153.415 82.8664 155.974 81.3803 160.132 79.1816C168.423 74.7971 174.672 76.5974 184.045 76.9445C193.284 77.2866 199.74 75.661 207.397 80.8434C211.319 83.4982 215.759 89.6279 215.759 89.6279C215.759 89.6279 221.303 89.1684 224.427 90.5163C231.927 93.7521 230.546 102.029 231.755 110.108C234.555 128.82 222.038 145.743 214.968 155.556C213.383 157.757 198.88 170.286 186.451 169.757C171.542 169.122 148.954 155.556 156.289 146.298C160.981 146.298 172.714 150.276 181.759 150.453C190.205 150.618 206.879 148.717 207.229 146.968C207.899 143.617 206.547 140.966 208.569 138.255C210.094 136.21 211.294 136.055 212.591 134.233C214.116 132.09 213.301 128.429 211.92 126.19C210.007 123.087 204.897 127.403 204.548 126.19C203.877 118.147 200.526 114.796 200.526 114.796C200.526 114.796 169.122 114.728 164.672 113.77Z" fill="#862500"/>
<path d="M110.5 368.5C105.996 368.353 115.351 188.223 126.151 183.471C137.727 180.006 163.306 175.523 163.306 175.523C163.306 175.523 193.014 172.275 215.582 175.523C231.725 177.846 249.711 182.607 255.327 188.223C259.82 192.717 271.48 365.544 265 369C243 369 160 369 110.5 368.5Z" fill="white"/>
<path d="M190.089 317.66C190.089 317.66 234.249 183.732 229.407 178.979C224.222 175.523 173.243 171.635 149.481 178.547C146.371 183.732 190.089 317.66 190.089 317.66Z" fill="#509E90"/>
<path d="M81.2211 276.357C81.2211 228.316 110.311 194.704 124.856 183.903C124.28 190.672 122.609 212.936 120.536 247.843C117.943 291.478 130.904 297.527 139.977 298.391C149.049 299.255 217.31 279.381 232.431 273.333C247.552 267.285 260.945 267.717 266.129 273.333C270.276 277.826 267.857 283.27 266.129 285.43C249.568 294.79 211.953 315.24 193.98 322.152C171.515 330.793 115.783 339.001 105.847 335.113C95.91 331.225 81.2211 336.409 81.2211 276.357Z" fill="white"/>
<path d="M262.241 337.101C256.624 332.348 178.571 315.499 143.001 303.834C150.201 307.003 168.769 318.718 186.636 325.004C214.842 334.927 266.561 337.965 262.241 337.101Z" fill="black" fill-opacity="0.1"/>
<path d="M166.331 339.693C178.773 337.274 237.759 337.245 265.697 337.533C252.304 336.237 225.346 333.645 224.654 333.645C223.79 333.645 187.932 327.164 186.636 324.14C184.908 325.436 160.714 330.189 152.506 332.349C145.939 334.077 122.12 335.661 111.031 336.237L110.599 348.334C123.992 346.462 153.888 342.112 166.331 339.693Z" fill="black" fill-opacity="0.1"/>
<path d="M235.023 299.514C233.641 299.514 202.765 292.026 187.5 288.282H190.524C203.917 291.306 231.74 297.441 235.887 297.786C241.071 298.218 243.664 293.034 246.256 294.762C245.824 296.49 236.751 299.514 235.023 299.514Z" fill="black" fill-opacity="0.1"/>
<path d="M122.264 223.478C120.881 227.971 120.535 258.905 120.535 271.433L126.152 272.297C125.432 270.281 124.376 266.287 123.56 262.361C120.843 249.302 123.992 217.862 122.264 223.478Z" fill="black" fill-opacity="0.1"/>
<path d="M253.6 227.599C254.983 232.092 255.328 263.026 255.328 275.555L249.712 276.419C250.432 274.402 251.487 270.408 252.304 266.482C255.021 253.423 251.872 221.983 253.6 227.599Z" fill="black" fill-opacity="0.1"/>
<path d="M234.524 272.489L246.626 295.864C253.247 291.627 266.186 284.904 266.922 283.121C269.131 277.761 267.586 274.409 266.104 271.918C261.07 264.661 242.953 269.275 234.524 272.489Z" fill="#FFA288"/>
<path d="M294.643 277.221C294.643 229.18 265.553 195.568 251.008 184.768C251.584 191.536 253.255 213.8 255.328 248.708C257.921 292.342 244.96 298.391 235.887 299.255C226.815 300.119 158.554 280.246 143.433 274.197C128.312 268.149 114.919 268.581 109.735 274.197C105.588 278.69 108.007 284.134 109.735 286.294C126.296 295.655 163.911 316.104 181.884 323.016C204.349 331.657 260.081 339.865 270.017 335.977C279.954 332.089 294.643 337.273 294.643 277.221Z" fill="white"/>
<path d="M140.842 273.161L130.473 297.354C123.561 293.61 110.167 287.847 109.304 286.121C106.71 280.937 108.007 277.481 109.304 274.889C113.797 267.285 132.201 270.569 140.842 273.161Z" fill="#FFA288"/>
<path d="M141.705 271.864C141.705 271.864 140.841 236.438 140.841 235.574C140.841 234.71 145.593 222.613 155.962 222.613C166.33 222.613 169.786 233.846 169.786 235.574C169.786 236.957 169.786 271 169.786 271" stroke="black" stroke-width="2"/>
<path d="M162.875 273.593C165.179 273.449 169.787 272.556 169.787 270.137C169.787 267.717 169.787 259.048 169.787 255.016" stroke="#C4C4C4" stroke-width="2"/>
<path d="M148.186 273.593C145.881 273.449 141.705 273.593 141.705 271.433C141.705 269.273 141.273 259.912 141.273 255.88" stroke="#C4C4C4" stroke-width="2"/>
<path d="M216.878 175.955C218.318 179.123 220.538 190.839 221.198 200.58C221.62 206.808 221.198 216.277 221.198 216.565" stroke="black" stroke-width="2"/>
<ellipse cx="149.913" cy="272.657" rx="2.59217" ry="3.02419" fill="black"/>
<ellipse cx="162.01" cy="272.657" rx="2.59217" ry="3.02419" fill="black"/>
<path d="M155.098 221.749C153.946 207.348 152.592 178.287 156.394 177.25" stroke="black" stroke-width="2"/>
<circle cx="219.47" cy="225.998" r="9.93664" fill="#C4C4C4"/>
<circle cx="219.47" cy="225.998" r="5.61636" fill="#717171"/>
</svg>
