<svg width="1002" height="558" viewBox="0 0 1002 558" fill="none" xmlns="http://www.w3.org/2000/svg">
<path d="M13.6323 281.486V289.245C18.4989 290.134 23.1167 292.061 27.1717 294.893C33.3825 299.455 39.6864 293.605 39.6864 293.605L39.1119 288.95L13.6323 281.486Z" fill="#FAF0E6"/>
<path d="M35.7115 284C35.7115 284 48.3969 278.491 69.0321 286.902C89.6673 295.312 133.717 298.71 153.607 284.171C153.094 288.391 152.458 291.603 152.458 291.603C152.458 291.603 160.423 298.105 171.913 286.948C183.403 275.791 179.521 267.474 179.521 267.474H32.0161L35.7115 284Z" fill="#FAF0E6"/>
<path d="M101.701 83.2403C101.701 83.2403 85.6148 84.1093 79.2954 104.623C74.2958 120.869 67.4174 121.102 68.1782 126.347C68.4318 127.685 69.0266 128.935 69.9052 129.976C70.7838 131.017 71.9163 131.814 73.1933 132.29C77.2459 133.997 83.7982 139.086 91.8256 133.469C83.6895 119.364 89.2947 109.619 89.2947 109.619C89.2947 109.619 101.716 116.369 118.796 108.75C121.42 120.885 120.783 127.898 114.526 131.902C125.162 137.969 128.748 133.919 133.158 128.798C133.346 128.582 133.554 128.385 133.779 128.209C135.394 126.991 136.662 125.372 137.458 123.513C138.253 121.654 138.548 119.619 138.313 117.611C137.686 112.249 135.098 107.308 131.046 103.738C121.249 95.5454 119.898 82.8369 101.701 83.2403Z" fill="black"/>
<path d="M29.0195 284.667C29.0195 284.667 48.1331 262.074 84.1243 286.824C109.79 304.436 165.345 279.826 171.835 258.086C141.869 196.918 132.366 154.433 132.366 154.433C132.366 154.433 99.589 170.927 70.2588 159.088C48.4281 218.363 29.0195 284.667 29.0195 284.667Z" fill="#4AA997"/>
<path d="M138.329 282.06C138.329 282.06 162.286 336.029 165.702 383.883C169.118 431.738 140.331 504.466 140.331 504.466L125.146 501.083C125.146 501.083 137.785 451.072 135.254 406.29C132.723 361.508 101.281 323.212 101.281 323.212V290.626L138.329 282.06Z" fill="#F0BAA4"/>
<path d="M72.4482 237.433C76.3764 212.311 67.1535 208.122 69.8707 180.998C73.9543 145.759 89.3879 148.893 103.052 149.964C116.731 148.924 132.164 145.79 136.248 180.998C138.919 208.199 129.711 212.389 133.639 237.511C137.568 262.633 138.856 290.688 138.856 290.688C135.706 293.668 132.08 296.102 128.127 297.888C119.969 301.712 111.066 303.688 102.055 303.671C93.0441 303.655 84.148 301.649 76.0038 297.795C71.9978 296.002 68.3233 293.547 65.135 290.533C65.135 290.533 68.5199 262.555 72.4482 237.433Z" fill="#F0BAA4"/>
<path d="M89.2948 127.945C89.563 127.098 89.6346 126.201 89.5041 125.322C89.3735 124.443 89.0444 123.605 88.5415 122.872C88.0386 122.139 87.3753 121.53 86.6019 121.092C85.8284 120.653 84.9652 120.397 84.0777 120.342H83.9691C80.2426 120.342 80.2892 130.893 85.5217 130.893C86.4029 130.949 87.274 130.68 87.9695 130.137C88.6651 129.593 89.1367 128.813 89.2948 127.945Z" fill="#F6A592"/>
<path d="M117.367 127.945C117.098 127.092 117.028 126.188 117.163 125.304C117.297 124.419 117.634 123.577 118.145 122.843C118.656 122.109 119.329 121.501 120.113 121.068C120.896 120.634 121.768 120.386 122.662 120.342C126.373 120.342 126.342 130.893 121.109 130.893C120.233 130.941 119.37 130.669 118.681 130.126C117.992 129.583 117.525 128.808 117.367 127.945Z" fill="#F6A592"/>
<path d="M114.076 147.388C111.7 142.857 112.647 135.952 112.647 135.952L103.331 134.524L94.0149 135.952C94.3064 138.26 94.3064 140.595 94.0149 142.903C97.3532 146.348 103.874 150.522 114.076 147.388Z" fill="#F6A592"/>
<path d="M114.076 147.388C103.875 150.491 97.3532 146.348 93.8908 142.903C93.6734 145.052 92.8854 147.104 91.6083 148.846C89.8227 150.988 92.7418 152.477 96.1111 153.502C100.818 154.82 105.797 154.82 110.504 153.502C113.874 152.54 116.808 151.05 115.023 148.846C114.661 148.392 114.344 147.903 114.076 147.388Z" fill="#F6B9A4"/>
<path d="M111.048 130.614C111.06 129.382 111.408 128.177 112.055 127.128C112.702 126.079 113.623 125.227 114.72 124.663C115.816 124.1 117.045 123.846 118.275 123.929C119.505 124.012 120.689 124.43 121.699 125.136C122.37 122.347 122.693 119.486 122.662 116.618C122.662 102.652 116.047 96.554 110.566 93.8695C108.306 92.7739 105.827 92.2047 103.315 92.2047C100.804 92.2047 98.3244 92.7739 96.0644 93.8695C90.5679 96.554 83.969 102.668 83.969 116.618C83.9405 119.488 84.2744 122.35 84.9627 125.136C86.0926 124.336 87.444 123.908 88.8289 123.911C90.3391 123.901 91.8089 124.398 93.0034 125.322C94.1978 126.246 95.048 127.543 95.4181 129.006C95.7882 130.47 95.6568 132.015 95.045 133.395C94.4332 134.775 93.3762 135.91 92.0429 136.619C92.7896 137.222 93.5783 137.772 94.403 138.264C97.1111 139.848 100.193 140.684 103.331 140.684C106.469 140.684 109.551 139.848 112.259 138.264C113.081 137.768 113.869 137.219 114.619 136.619C113.532 136.039 112.625 135.173 111.996 134.114C111.366 133.056 111.038 131.845 111.048 130.614Z" fill="#F0BAA4"/>
<path d="M95.6143 130.614C95.6102 128.818 94.8935 127.097 93.6215 125.829C92.3494 124.561 90.6259 123.848 88.8291 123.848C87.4442 123.845 86.0928 124.274 84.9629 125.074C85.9684 129.587 88.4619 133.631 92.0431 136.557C93.1194 135.98 94.0196 135.124 94.6483 134.077C95.2769 133.031 95.6108 131.834 95.6143 130.614Z" fill="#F6A592"/>
<path d="M121.699 125.136C120.685 124.427 119.495 124.009 118.26 123.928C117.025 123.847 115.791 124.107 114.692 124.678C113.594 125.249 112.674 126.11 112.031 127.168C111.389 128.225 111.048 129.439 111.048 130.676C111.05 131.897 111.383 133.094 112.012 134.141C112.641 135.187 113.542 136.044 114.619 136.619C118.195 133.688 120.687 129.646 121.699 125.136Z" fill="#F6A592"/>
<path d="M103.455 129.155V120.916C103.455 120.916 97.6481 129.155 103.455 129.155Z" fill="#F6A592"/>
<path d="M94.2788 117.75C94.6709 117.182 95.2022 116.724 95.822 116.42C96.4418 116.116 97.1294 115.975 97.8189 116.012" stroke="#703521" stroke-width="0.48" stroke-linecap="round" stroke-linejoin="round"/>
<path d="M112.383 117.75C111.993 117.191 111.469 116.739 110.859 116.435C110.248 116.132 109.571 115.986 108.89 116.012" stroke="#703521" stroke-width="0.48" stroke-linecap="round" stroke-linejoin="round"/>
<path d="M94.8066 123.15C94.8066 123.15 94.993 121.599 96.3593 121.599C97.7257 121.599 97.8344 123.15 97.8344 123.15" stroke="#703521" stroke-width="0.48" stroke-linecap="round" stroke-linejoin="round"/>
<path d="M109.154 123.15C109.154 123.15 109.34 121.599 110.706 121.599C112.073 121.599 112.259 123.15 112.259 123.15" stroke="#703521" stroke-width="0.48" stroke-linecap="round" stroke-linejoin="round"/>
<path d="M100.785 130.878H106.141C106.141 130.878 105.971 134.524 103.455 134.524C100.94 134.524 100.785 130.878 100.785 130.878Z" fill="#FAF0E6"/>
<path d="M115.395 149.669C171.09 119.752 163.761 93.2333 153.716 41.515C157.225 39.9633 159.057 39.3891 162.597 37.9305C187.052 102.59 179.676 131.172 124.401 172.929C115.287 168.227 114.898 158.7 115.395 149.669Z" fill="#F0BAA4"/>
<path d="M159.196 22.4601C157.535 22.4601 157.97 29.6755 157.97 29.6755C157.97 29.6755 156.805 20.3652 155.563 20.0549C153.591 19.698 155.082 30.3272 155.082 30.3272C155.082 30.3272 153.172 18.798 151.076 19.4653C148.98 20.1325 152.163 31.2582 152.163 31.2582C152.163 31.2582 148.514 20.9083 146.822 21.7463C145.129 22.5842 150.346 35.7116 150.346 35.7116C150.346 35.7116 144.135 32.2513 143.281 33.4772C141.946 35.5564 154.958 43.4857 154.958 43.4857L163.109 41.6236C163.109 41.6236 160.842 22.4911 159.196 22.4601Z" fill="#F0BAA4"/>
<path d="M92.2137 149.265C32.2956 129.093 35.0749 101.721 36.3171 49.0562C32.5906 48.1407 30.6808 47.8459 27.0009 47.008C13.71 114.849 25.7278 141.802 87.2451 173.658C95.4277 167.544 94.1701 158.095 92.2137 149.265Z" fill="#F0BAA4"/>
<path d="M27.7307 31.1961C29.361 30.9013 30.1529 38.0857 30.1529 38.0857C30.1529 38.0857 29.7181 28.6514 30.9137 28.2169C32.7924 27.5186 33.103 38.2564 33.103 38.2564C33.103 38.2564 33.103 26.5565 35.2302 26.8359C37.3573 27.1152 36.1462 38.6754 36.1462 38.6754C36.1462 38.6754 38.0095 27.8134 39.8261 28.4186C41.6427 29.0238 38.7082 42.896 38.7082 42.896C38.7082 42.896 44.3134 38.4271 45.2916 39.4978C46.9529 41.3288 35.4475 51.3373 35.4475 51.3373L27.1096 50.8563C27.1096 50.8563 26.1159 31.491 27.7307 31.1961Z" fill="#F0BAA4"/>
<path d="M72.0134 410.371H72.1066C72.5569 406.414 72.1687 409.098 72.0134 410.371Z" fill="#F0BAA4"/>
<path d="M104.449 288.236L67.6347 274.783C63.8462 290.936 62.9767 313.932 68.0229 337.115C71.858 354.556 76.485 385.466 72.1065 410.386C71.9201 411.426 71.9357 411.069 72.0133 410.386L19.4705 401.076L12.3281 416.593L68.6285 433.212C90.366 439.171 94.6049 427.005 96.965 421.326C102.446 408.307 109.759 389.283 111.653 377.444C119.246 330.07 104.449 288.236 104.449 288.236Z" fill="#F0BAA4"/>
<path d="M70.3364 251.569C70.3364 253.618 109.697 257.342 135.549 251.569C135.642 252.438 136.325 258.552 136.325 258.552C148.426 286.264 158.347 314.876 165.997 344.129C132.847 366.085 76.4384 355.596 51.8284 351.996C49.5149 289.71 70.3364 251.569 70.3364 251.569Z" fill="#E8B57F"/>
<path d="M72.9761 141.507L65.2127 161.043L70.9265 167.545C70.9265 167.545 59.0019 181.944 65.2127 194.963C71.4234 207.982 72.9761 223.313 65.2127 242.088C76.1746 254.626 103.719 247.737 119.79 243.469C135.86 239.202 143.235 239.218 143.235 239.218C143.235 239.218 132.366 217.68 138.903 196.484C141.139 183.915 135.798 168.832 133.717 165.667C138.825 161.415 139.835 160.546 139.835 160.546L129.168 141.507L115.194 148.846C115.194 148.846 120.1 175.225 104.169 175.225C88.239 175.225 92.2294 149.188 92.2294 149.188L72.9761 141.507Z" fill="#FAF0E6"/>
<path d="M88.8446 142.903C88.8446 142.903 78.3484 138.155 57.8841 128.845C37.4197 119.535 42.7764 90.0523 41.084 75.8387C39.3916 61.6251 36.131 58.7699 36.131 58.7699L25.2622 56.4579C25.2622 56.4579 17.6695 59.5613 15.9461 73.1697C14.2226 86.7782 2.65508 115.826 15.9305 128.24C29.206 140.653 22.9952 155.643 41.938 162.377C52.667 165.76 55.7879 166.613 55.7879 166.613C55.7879 166.613 45.0278 182.549 45.3228 199.727C45.6023 216.454 4.65804 242.756 11.5675 280.198C11.7412 281.096 12.2127 281.909 12.9058 282.506C13.5989 283.103 14.473 283.449 15.3871 283.488C24.0045 284.077 27.6688 292.534 39.1121 288.981C39.9506 248.016 52.7136 233.818 67.0604 221.187C89.2949 201.682 104.946 158.095 88.8446 142.903Z" fill="#44BBA4"/>
<path d="M115.722 144.207C115.722 144.207 107.818 173.162 113.827 190.758C119.836 208.354 149.353 215.135 153.126 242.104C156.899 269.073 153.126 286.436 153.126 286.436C163.994 288.609 171.867 282.743 176.323 277.793C179.491 274.253 181.449 269.796 181.912 265.069C183.046 253.819 181.555 230.233 155.843 207.113C141.186 193.923 143.157 166.769 143.157 166.769C143.157 166.769 166.65 154.727 168.885 137.814C171.121 120.9 184.769 112.987 184.412 97.4695C184.055 81.9524 179.754 62.7113 168.963 56.551L156.961 58.77C156.961 58.77 150.408 69.0578 154.865 83.5972C159.321 98.1367 144.089 109.495 138.748 123.942C133.407 138.388 115.722 144.207 115.722 144.207Z" fill="#44BBA4"/>
<path d="M140.984 502.79C143.284 507.113 146.456 510.911 150.3 513.947C155.889 517.95 160.02 518.881 158.281 527.121C150.967 527.4 141.776 522.73 136.046 519.363C130.317 515.995 123.532 516.042 122.072 512.582C120.612 509.121 125.395 499.796 125.395 499.796L140.984 502.79Z" fill="#DF6A3D"/>
<path d="M18.6321 418.409C18.6321 418.409 16.1167 419.371 12.6077 425.267C9.0986 431.164 8.49306 435.353 0.186197 434.314C-0.683306 427.036 3.1984 417.509 6.05534 411.519C8.91228 405.529 8.33779 398.78 11.6761 397.042C15.0143 395.304 24.8428 402.007 24.8428 402.007L18.6321 418.409Z" fill="#DF6A3D"/>
<path d="M91.0802 184.194C91.0802 184.194 93.5335 168.305 89.5276 156.9C85.5216 145.495 83.8447 140.653 83.8447 140.653C83.8447 140.653 87.478 138.124 94.3254 141.538C98.6573 157.846 97.3997 170.136 91.0802 184.194Z" fill="#FAF0E6"/>
<path d="M112.119 184.194C112.119 184.194 107.461 155.658 112.554 141.507C117.212 138.093 122.677 141.01 122.677 141.01C122.677 141.01 114.712 154.417 112.119 184.194Z" fill="#FAF0E6"/>
<path d="M25.2153 56.4889L26.3177 50.2821L36.2394 52.501L36.1307 58.801L25.2153 56.4889Z" fill="#FAF0E6"/>
<path d="M157.038 58.7234L155.625 51.2752L166.603 48.9942L169.041 56.4889L157.038 58.7234Z" fill="#FAF0E6"/>
<path d="M15.7751 254.642C15.7751 254.642 27.9482 253.928 37.9164 239.621" stroke="#703521" stroke-width="0.48" stroke-linecap="round" stroke-linejoin="round"/>
<path d="M162.116 237.247C162.116 237.247 164.041 248.838 180.08 247.131" stroke="#703521" stroke-width="0.48" stroke-linecap="round" stroke-linejoin="round"/>
<path d="M13.6323 284.636V289.291C13.6323 289.291 18.1196 288.174 23.8024 292.845C29.4852 297.515 35.8512 297.189 39.6864 293.652C39.3137 290.672 39.2206 289.865 39.2206 289.865" stroke="#703521" stroke-width="0.48" stroke-linecap="round" stroke-linejoin="round"/>
<path d="M40.4473 282.743C40.4473 282.743 46.099 281.269 57.8839 283.441" stroke="#703521" stroke-width="0.48" stroke-linecap="round" stroke-linejoin="round"/>
<path d="M149.104 286.902L152.194 285.086" stroke="#703521" stroke-width="0.48" stroke-linecap="round" stroke-linejoin="round"/>
<path d="M153.048 287.74L152.38 291.603C152.38 291.603 167.255 300.215 179.599 274.783" stroke="#703521" stroke-width="0.48" stroke-linecap="round" stroke-linejoin="round"/>
<path d="M92.3069 181.339C92.3069 181.339 98.9213 171.563 96.0178 148.49" stroke="#703521" stroke-width="0.48" stroke-linecap="round" stroke-linejoin="round"/>
<path d="M111.576 144.859C111.576 144.859 108.237 157.179 111.576 181.339" stroke="#703521" stroke-width="0.48" stroke-linecap="round" stroke-linejoin="round"/>
<path d="M25.4172 55.3872L26.3178 50.2821L36.2394 52.501V57.5596" stroke="#703521" stroke-width="0.48" stroke-linecap="round" stroke-linejoin="round"/>
<path d="M156.821 57.5596L155.625 51.2752L166.603 48.9942L168.761 55.6045" stroke="#703521" stroke-width="0.48" stroke-linecap="round" stroke-linejoin="round"/>
<path d="M84.3882 140.312C85.91 139.759 87.5363 139.553 89.1481 139.709C90.76 139.864 92.3166 140.378 93.7043 141.212" stroke="#703521" stroke-width="0.48" stroke-linecap="round" stroke-linejoin="round"/>
<path d="M113.346 140.979C113.346 140.979 116.451 138.807 121.73 140.622" stroke="#703521" stroke-width="0.48" stroke-linecap="round" stroke-linejoin="round"/>
<path d="M91.6084 183.186C91.6084 183.186 94.869 188.865 91.6084 193.303C90.6674 194.712 90.0692 196.321 89.8616 198.002C89.654 199.684 89.8428 201.39 90.4128 202.985" stroke="#703521" stroke-width="0.48" stroke-linecap="round" stroke-linejoin="round"/>
<path d="M111.576 183.822C111.576 183.822 107.741 190.168 109.619 195.382C111.498 200.596 114.277 205.779 105.551 211.706" stroke="#703521" stroke-width="0.48" stroke-linecap="round" stroke-linejoin="round"/>
<path d="M89.6829 203.963C89.6829 204.187 89.7493 204.406 89.8739 204.592C89.9984 204.779 90.1755 204.924 90.3826 205.01C90.5897 205.095 90.8176 205.118 91.0374 205.074C91.2573 205.03 91.4593 204.922 91.6178 204.764C91.7763 204.606 91.8843 204.404 91.928 204.184C91.9717 203.964 91.9493 203.737 91.8635 203.53C91.7777 203.323 91.6324 203.146 91.446 203.021C91.2596 202.897 91.0405 202.83 90.8163 202.83C90.5157 202.83 90.2274 202.95 90.0148 203.162C89.8023 203.375 89.6829 203.663 89.6829 203.963V203.963Z" stroke="#703521" stroke-width="0.48" stroke-linecap="round" stroke-linejoin="round"/>
<path d="M103.285 212.528C103.281 212.788 103.356 213.042 103.498 213.258C103.64 213.475 103.843 213.644 104.082 213.745C104.321 213.846 104.585 213.873 104.839 213.823C105.094 213.773 105.328 213.649 105.511 213.465C105.694 213.282 105.819 213.049 105.869 212.794C105.918 212.54 105.891 212.277 105.791 212.038C105.69 211.799 105.52 211.596 105.304 211.454C105.087 211.312 104.832 211.237 104.573 211.241C104.231 211.241 103.904 211.376 103.662 211.618C103.42 211.859 103.285 212.187 103.285 212.528V212.528Z" stroke="#703521" stroke-width="0.48" stroke-linecap="round" stroke-linejoin="round"/>
<path d="M68.1162 239.621C76.9921 244.088 87.1005 245.485 96.8564 243.594" stroke="#703521" stroke-width="0.48" stroke-linecap="round" stroke-linejoin="round"/>
<path d="M57.884 165.9C57.884 165.9 72.3085 160.484 74.6375 141.212" stroke="#703521" stroke-width="0.48" stroke-linecap="round" stroke-linejoin="round"/>
<path d="M126.497 142.903C126.497 142.903 126.497 156.481 141.667 164.907" stroke="#703521" stroke-width="0.48" stroke-linecap="round" stroke-linejoin="round"/>
<path d="M151.899 125.043C152.797 127.923 154.405 130.531 156.576 132.627C158.746 134.723 161.409 136.24 164.32 137.038" stroke="#703521" stroke-width="0.48" stroke-linecap="round" stroke-linejoin="round"/>
<path d="M161.215 103.087C164.401 102.511 167.681 102.767 170.738 103.83C173.796 104.893 176.527 106.727 178.667 109.154" stroke="#703521" stroke-width="0.48" stroke-linecap="round" stroke-linejoin="round"/>
<path d="M30.7275 139.691C36.5388 136.781 40.9923 131.73 43.149 125.602" stroke="#703521" stroke-width="0.48" stroke-linecap="round" stroke-linejoin="round"/>
<path d="M23.197 116.012C23.197 116.012 25.8366 109.154 36.9693 109.154" stroke="#703521" stroke-width="0.48" stroke-linecap="round" stroke-linejoin="round"/>
<path d="M48.1331 205.096C48.1331 205.096 55.2133 215.446 65.2126 216.144" stroke="#703521" stroke-width="0.48" stroke-linecap="round" stroke-linejoin="round"/>
<path d="M141.667 214.98C141.667 214.98 146.899 215.911 152.194 207.066" stroke="#703521" stroke-width="0.48" stroke-linecap="round" stroke-linejoin="round"/>
<path d="M69.5291 256.085C69.5291 256.085 97.26 265.597 134.742 257.326" stroke="#703521" stroke-width="0.48" stroke-linecap="round" stroke-linejoin="round"/>
<path d="M81.112 260.709C81.112 260.709 82.2144 298.058 57.8218 298.679" stroke="#703521" stroke-width="0.48" stroke-linecap="round" stroke-linejoin="round"/>
<path d="M123.733 261.686C123.733 261.686 131.031 296.538 149.104 296.677" stroke="#703521" stroke-width="0.48" stroke-linecap="round" stroke-linejoin="round"/>
<path d="M106.98 263.316L113.827 309.013" stroke="#703521" stroke-width="0.48" stroke-linecap="round" stroke-linejoin="round"/>
<path d="M117.321 263.316L127.46 307.151L115.458 312.52L117.321 357.489" stroke="#703521" stroke-width="0.48" stroke-linecap="round" stroke-linejoin="round"/>
<path d="M53.5986 342.499C53.5986 342.499 85.2579 349.125 113.392 348.287" stroke="#703521" stroke-width="0.48" stroke-linecap="round" stroke-linejoin="round"/>
<path d="M120.209 348.365C120.209 348.365 142.148 347.465 161.169 336.091" stroke="#703521" stroke-width="0.48" stroke-linecap="round" stroke-linejoin="round"/>
<path d="M18.6321 418.424L24.7807 402.007L35.3545 403.885L28.0724 421.217L18.6321 418.424Z" fill="#FAF0E6"/>
<path d="M125.317 499.842L127.677 489.709L144.493 493.154L140.983 502.79L125.317 499.842Z" fill="#FAF0E6"/>
<path d="M19.9673 418.812L28.0723 421.217L35.3544 403.885L26.1625 402.255" stroke="#703521" stroke-width="0.48" stroke-linecap="round" stroke-linejoin="round"/>
<path d="M125.643 498.446L127.677 489.709L144.493 493.154L141.589 501.301" stroke="#703521" stroke-width="0.48" stroke-linecap="round" stroke-linejoin="round"/>
<path d="M123.221 510.657C125.285 512.213 127.594 513.413 130.053 514.211C132.801 515.209 135.41 516.554 137.816 518.214C143.157 521.783 150.61 525.476 157.069 525.476" stroke="#703521" stroke-width="0.48" stroke-linecap="round" stroke-linejoin="round"/>
<path d="M14.5796 398.236C13.1657 400.393 12.1165 402.768 11.4742 405.266C10.6566 408.065 9.47691 410.747 7.96512 413.241C4.75106 418.828 1.58359 426.415 1.98728 432.933" stroke="#703521" stroke-width="0.48" stroke-linecap="round" stroke-linejoin="round"/>
<path d="M24.7808 418.533L30.2462 404.552" stroke="#703521" stroke-width="0.48" stroke-linecap="round" stroke-linejoin="round"/>
<path d="M128.593 493.309L140.689 496.242" stroke="#703521" stroke-width="0.48" stroke-linecap="round" stroke-linejoin="round"/>
<path d="M124.975 108.983C125.068 108.952 125.162 108.906 124.975 108.983V108.983Z" fill="#DF6A3D"/>
<path d="M124.743 115.826C125.127 113.561 125.05 111.242 124.517 109.008C123.983 106.774 123.004 104.67 121.637 102.823C113.486 91.3402 96.67 85.5213 85.9255 100.449C84.0167 103.022 82.7012 105.986 82.073 109.127C81.4449 112.269 81.5197 115.51 82.2922 118.619C82.7112 120.581 83.6619 122.39 85.0404 123.848C85.1555 120.249 86.1639 116.736 87.975 113.623C93.8286 115.035 104.216 115.981 118.439 111.404C120.529 114.005 121.976 117.061 122.662 120.326C123.783 119.063 124.507 117.498 124.743 115.826Z" fill="black"/>
<path d="M82.9908 105.973C82.9908 105.973 79.7612 113.142 82.4784 119.519" stroke="#5B5B5B" stroke-width="0.48" stroke-linecap="round" stroke-linejoin="round"/>
<path d="M122.988 104.964C125.003 109.306 125.275 114.254 123.749 118.79" stroke="#5B5B5B" stroke-width="0.48" stroke-linecap="round" stroke-linejoin="round"/>
<path d="M92.3071 104.964C91.6844 108.029 91.3569 111.147 91.3289 114.274" stroke="#5B5B5B" stroke-width="0.48" stroke-linecap="round" stroke-linejoin="round"/>
<path d="M107.741 98.0126C110.815 102.409 112.742 107.502 113.346 112.831" stroke="#5B5B5B" stroke-width="0.48" stroke-linecap="round" stroke-linejoin="round"/>
<path d="M109.154 92.9075C109.154 92.9075 116.265 95.654 118.47 107.012" stroke="#5B5B5B" stroke-width="0.48" stroke-linecap="round" stroke-linejoin="round"/>
<path d="M102.167 105.973L102.586 114.616" stroke="#5B5B5B" stroke-width="0.48" stroke-linecap="round" stroke-linejoin="round"/>
<path d="M75.5689 120.916C75.5689 120.916 70.0724 126.983 74.6373 130.226" stroke="#5B5B5B" stroke-width="0.48" stroke-linecap="round" stroke-linejoin="round"/>
<path d="M77.0751 126.781C77.0751 126.781 76.1435 134.09 82.9908 136.091" stroke="#5B5B5B" stroke-width="0.48" stroke-linecap="round" stroke-linejoin="round"/>
<path d="M131.388 116.416C131.388 116.416 137.599 120.574 133.189 128.829" stroke="#5B5B5B" stroke-width="0.48" stroke-linecap="round" stroke-linejoin="round"/>
<path d="M129.385 126.781C129.385 126.781 128.655 133.531 124.727 134.85" stroke="#5B5B5B" stroke-width="0.48" stroke-linecap="round" stroke-linejoin="round"/>
<path d="M97.8189 92.2092C97.8189 92.2092 87.8662 94.8315 87.7109 108.999" stroke="#5B5B5B" stroke-width="0.48" stroke-linecap="round" stroke-linejoin="round"/>
<path d="M92.2449 558C132.96 558 165.966 552.929 165.966 546.673C165.966 540.417 132.96 535.345 92.2449 535.345C51.5297 535.345 18.5234 540.417 18.5234 546.673C18.5234 552.929 51.5297 558 92.2449 558Z" fill="#D3E8D6"/>
<path d="M357.909 135.269C357.909 135.269 353.903 134.772 353.391 127.898C352.878 121.024 349.369 121.692 349.369 114.181C349.369 106.671 355.58 102.978 363.064 102.14C370.548 101.302 370.827 87.4144 384.538 97.1126C398.248 106.811 401.291 108.487 401.291 120.714C401.291 132.941 394.739 139.102 394.739 139.102L357.909 135.269Z" fill="#DF6A3D"/>
<path d="M302.276 283.255C302.276 283.255 323.486 295.11 360.533 298.586C397.58 302.062 445.744 287.631 451.008 275.962C456.272 264.293 412.921 168.398 349.773 170.881C330.986 185.296 302.276 283.255 302.276 283.255Z" fill="#D8A166"/>
<path d="M365.16 166.226L264.236 77.9025L256.193 85.1644L351.714 187.205C351.714 187.205 362.272 184.629 365.16 166.226Z" fill="#F0BAA4"/>
<path d="M245.526 70.206C246.644 68.9801 251.643 74.2094 251.643 74.2094C251.643 74.2094 245.557 66.994 246.225 65.9078C247.296 64.2164 254.097 72.5335 254.097 72.5335C254.097 72.5335 246.923 63.2233 248.818 62.1837C250.712 61.144 256.767 71.0284 256.767 71.0284C256.767 71.0284 251.643 61.3147 253.429 60.6475C255.215 59.9803 261.332 72.7663 261.332 72.7663C261.332 72.7663 263.04 65.7992 264.438 66.0629C266.875 66.4974 263.832 81.4403 263.832 81.4403L256.923 86.0955C256.923 86.0955 244.423 71.4318 245.526 70.206Z" fill="#F0BAA4"/>
<path d="M388.637 166.226L489.561 77.9025L497.713 85.1644L402.145 187.205C402.145 187.205 391.525 184.629 388.637 166.226Z" fill="#F0BAA4"/>
<path d="M508.271 70.206C507.169 68.9801 502.154 74.2094 502.154 74.2094C502.154 74.2094 508.256 66.994 507.573 65.9078C506.501 64.2164 499.716 72.5335 499.716 72.5335C499.716 72.5335 506.874 63.2233 504.98 62.1837C503.085 61.144 497.045 71.0284 497.045 71.0284C497.045 71.0284 502.154 61.3147 500.368 60.6475C498.582 59.9803 492.48 72.7663 492.48 72.7663C492.48 72.7663 490.757 65.7992 489.375 66.0629C486.953 66.4974 489.981 81.4403 489.981 81.4403L496.89 86.0955C496.89 86.0955 509.389 71.4318 508.271 70.206Z" fill="#F0BAA4"/>
<path d="M402.005 251.026C399.645 225.702 406.151 222.102 405.111 194.777C403.232 159.351 390.578 161.524 376.867 161.726C363.281 159.833 351.031 155.736 344.773 190.649C340.395 217.649 346.326 222.397 340.907 247.225C335.488 272.052 332.383 299.982 332.383 299.982C343.438 312.396 367.955 304.855 367.955 304.855C367.955 304.855 395.624 316.601 408.139 305.615C408.201 305.6 404.366 276.335 402.005 251.026Z" fill="#FAF0E6"/>
<path d="M472.497 412.202C477.063 413.943 481.219 416.611 484.701 420.038C489.359 425.112 490.757 429.1 498.676 426.4C498.07 419.107 492.356 410.541 488.366 405.25C484.375 399.959 483.568 393.224 479.966 392.185C476.363 391.145 467.668 397.011 467.668 397.011L472.497 412.202Z" fill="#9A9C5B"/>
<path d="M367.256 304.079L400.592 283.519C407.533 298.601 413.014 320.931 412.688 344.672C412.439 362.516 409.862 385.125 419.147 408.664C420.296 411.566 421.523 414.467 422.796 417.338L472.482 394.714L483.18 411.364L431.351 435.989C411.275 446.169 404.66 438.007 401.213 432.979C393.233 421.31 382.255 404.148 378.016 392.914C361.139 348.023 367.256 304.079 367.256 304.079Z" fill="#F0BAA4"/>
<path d="M417.299 459.048C421.21 461.972 424.476 465.669 426.895 469.91C430 476.117 430.233 480.275 438.664 479.856C440.077 472.672 436.91 462.865 434.519 456.689C432.128 450.513 433.183 443.826 430 441.824C426.817 439.822 416.849 443.112 416.849 443.112L417.299 459.048Z" fill="#9A9C5B"/>
<path d="M319.542 387.654C315.521 339.846 332.802 296.941 332.802 296.941L373.98 287.848C376.557 304.234 369.834 327.23 363.018 349.916C357.909 366.985 351.202 394.559 353.701 419.743L417.222 443.701L422.967 462.632C422.967 462.632 386.184 456.86 381.976 456.425C361.449 454.098 332.802 447.519 324.93 424.972C320.427 412.093 320.707 401.34 319.542 387.654Z" fill="#F0BAA4"/>
<path d="M470.681 391.688C464.083 394.294 457.251 396.264 450.278 397.569C433.106 400.673 424.675 410.216 424.675 410.216C424.675 410.216 425.404 402.798 419.706 387.374C411.617 365.449 420.389 355.487 419.706 327.649C419.023 299.812 403.853 269.554 403.853 269.554C365.595 277.312 337.088 267.055 337.088 267.055L335.147 279.252C335.147 279.252 309.388 385.606 310.614 415.212C311.298 431.505 335.457 454.579 364.57 456.612C393.683 458.644 385.733 466.791 416.803 472.222C419.925 469.125 422.34 465.391 423.884 461.274C425.428 457.158 426.063 452.757 425.746 448.372C430.782 447.392 435.394 444.89 438.959 441.203C448.043 431.226 460.449 434.22 483.18 427.238C486.953 400.486 470.681 391.688 470.681 391.688ZM403.915 269.926C403.915 270.128 403.915 270.267 403.915 269.926V269.926ZM360.642 409.579C365.611 402.271 366.961 383.635 367.334 373.611C367.769 381.68 370.439 397.011 381.914 418.61C374.352 415.585 367.303 412.838 360.657 409.595L360.642 409.579Z" fill="#44BBA4"/>
<path d="M362.769 140.126C363.034 139.278 363.103 138.381 362.971 137.502C362.839 136.624 362.51 135.786 362.008 135.053C361.506 134.32 360.844 133.71 360.072 133.269C359.301 132.828 358.439 132.567 357.552 132.507H357.428C353.717 132.507 353.748 143.059 358.981 143.059C359.861 143.116 360.733 142.849 361.43 142.309C362.128 141.769 362.604 140.992 362.769 140.126Z" fill="#F6A592"/>
<path d="M390.826 140.126C390.561 139.278 390.492 138.381 390.624 137.502C390.756 136.624 391.085 135.786 391.587 135.053C392.089 134.32 392.751 133.71 393.523 133.269C394.295 132.828 395.156 132.567 396.043 132.507H396.152C399.878 132.507 399.847 143.059 394.599 143.059C393.721 143.112 392.853 142.843 392.159 142.304C391.465 141.764 390.991 140.99 390.826 140.126Z" fill="#F6A592"/>
<path d="M387.55 159.553C385.159 155.038 386.106 148.133 386.106 148.133L376.79 146.69L367.474 148.133C367.744 150.439 367.717 152.77 367.396 155.069C370.812 158.529 377.302 162.688 387.55 159.553Z" fill="#F6A592"/>
<path d="M387.55 159.553C377.349 162.657 370.812 158.529 367.365 155.069C367.145 157.222 366.346 159.276 365.051 161.012C363.25 163.169 366.185 164.658 369.554 165.667C374.259 166.999 379.242 166.999 383.948 165.667C387.317 164.72 390.236 163.231 388.45 161.012C388.098 160.56 387.796 160.071 387.55 159.553Z" fill="#F6B9A4"/>
<path d="M384.507 142.795C384.51 141.558 384.851 140.346 385.494 139.29C386.136 138.233 387.056 137.373 388.153 136.801C389.249 136.229 390.482 135.967 391.717 136.044C392.951 136.122 394.141 136.535 395.158 137.24C395.837 134.478 396.165 131.642 396.136 128.798C396.136 114.833 389.537 108.719 384.041 106.05C381.783 104.948 379.303 104.375 376.79 104.375C374.277 104.375 371.797 104.948 369.539 106.05C364.058 108.719 357.459 114.849 357.459 128.798C357.43 131.642 357.758 134.478 358.437 137.24C359.192 136.73 360.042 136.377 360.936 136.204C361.831 136.031 362.751 136.04 363.642 136.232C364.533 136.423 365.375 136.793 366.119 137.318C366.863 137.844 367.493 138.514 367.971 139.29C368.449 140.065 368.765 140.929 368.901 141.829C369.036 142.729 368.987 143.648 368.758 144.529C368.529 145.41 368.124 146.236 367.567 146.957C367.01 147.677 366.313 148.278 365.517 148.722C366.258 149.327 367.041 149.877 367.862 150.367C370.57 151.952 373.652 152.787 376.79 152.787C379.928 152.787 383.01 151.952 385.718 150.367C386.546 149.881 387.335 149.331 388.078 148.722C387.003 148.148 386.103 147.294 385.474 146.251C384.846 145.207 384.511 144.013 384.507 142.795Z" fill="#F0BAA4"/>
<path d="M369.073 142.795C369.073 141.559 368.735 140.346 368.094 139.289C367.453 138.232 366.535 137.37 365.439 136.797C364.343 136.225 363.11 135.963 361.876 136.041C360.642 136.119 359.452 136.534 358.437 137.24C359.439 141.753 361.933 145.798 365.517 148.722C366.59 148.147 367.488 147.293 368.114 146.249C368.74 145.205 369.071 144.012 369.073 142.795Z" fill="#F6A592"/>
<path d="M395.158 137.24C394.403 136.73 393.553 136.377 392.659 136.204C391.764 136.031 390.844 136.04 389.953 136.232C389.062 136.423 388.22 136.793 387.476 137.318C386.732 137.844 386.102 138.514 385.624 139.29C385.146 140.065 384.83 140.929 384.694 141.829C384.559 142.729 384.608 143.648 384.837 144.529C385.066 145.41 385.472 146.236 386.028 146.957C386.585 147.677 387.283 148.278 388.078 148.722C391.662 145.798 394.156 141.754 395.158 137.24Z" fill="#F6A592"/>
<path d="M357.459 128.798C357.459 128.798 363.359 141.584 376.79 141.584C390.22 141.584 396.136 128.798 396.136 128.798C396.136 128.798 398.403 157.924 377.504 157.924C356.605 157.924 357.459 128.798 357.459 128.798Z" fill="#DF6A3D"/>
<path d="M381.339 143.059C380.081 144.135 378.459 144.69 376.805 144.61C375.151 144.69 373.529 144.135 372.271 143.059" stroke="#703521" stroke-width="0.48" stroke-linecap="round" stroke-linejoin="round"/>
<path d="M368.281 134.571C368.281 134.881 368.375 135.184 368.549 135.44C368.723 135.697 368.971 135.895 369.259 136.01C369.547 136.125 369.863 136.151 370.166 136.084C370.469 136.018 370.746 135.862 370.959 135.638C371.173 135.413 371.315 135.129 371.365 134.823C371.416 134.517 371.374 134.203 371.245 133.921C371.115 133.639 370.904 133.403 370.639 133.242C370.374 133.081 370.066 133.004 369.756 133.019C369.556 133.019 369.357 133.059 369.173 133.138C368.989 133.217 368.823 133.333 368.685 133.478C368.547 133.623 368.44 133.795 368.37 133.983C368.301 134.171 368.271 134.371 368.281 134.571Z" fill="#703521"/>
<path d="M382.628 134.571C382.628 134.962 382.783 135.337 383.06 135.613C383.337 135.89 383.712 136.045 384.103 136.045C384.494 136.045 384.869 135.89 385.146 135.613C385.423 135.337 385.578 134.962 385.578 134.571C385.578 134.18 385.423 133.805 385.146 133.528C384.869 133.252 384.494 133.097 384.103 133.097C383.712 133.097 383.337 133.252 383.06 133.528C382.783 133.805 382.628 134.18 382.628 134.571Z" fill="#703521"/>
<path d="M376.929 141.336V133.097C376.929 133.097 371.091 141.336 376.929 141.336Z" fill="#F6A592"/>
<path d="M367.738 129.931C368.135 129.379 368.664 128.936 369.277 128.64C369.89 128.345 370.567 128.207 371.247 128.24" stroke="#703521" stroke-width="0.48" stroke-linecap="round" stroke-linejoin="round"/>
<path d="M385.842 129.931C385.449 129.379 384.923 128.934 384.312 128.638C383.701 128.343 383.026 128.206 382.348 128.24" stroke="#703521" stroke-width="0.48" stroke-linecap="round" stroke-linejoin="round"/>
<path d="M353.903 121.707L356.155 132.569C357.941 132.581 359.667 131.926 360.994 130.732C362.321 129.537 363.154 127.89 363.328 126.114C363.439 124.639 363.345 123.156 363.049 121.707C361.589 114.321 377.613 122.235 386.339 117.533C386.76 117.289 387.228 117.136 387.712 117.082C388.195 117.029 388.685 117.077 389.149 117.223C389.614 117.369 390.043 117.61 390.409 117.93C390.775 118.251 391.071 118.644 391.276 119.085C394.382 125.742 393.233 133.205 397.037 132.6C401.571 131.886 395.189 101.675 375.439 101.675C355.689 101.675 353.903 121.707 353.903 121.707Z" fill="#DF6A3D"/>
<path d="M365.16 161.182C344.851 133.81 331.653 136.929 318.937 110.861C306.22 84.792 270.804 83.5352 270.804 83.5352C270.804 83.5352 269.95 86.4058 262.73 92.1161C262.73 112.94 279.095 118.03 294.808 140.002C313.984 166.769 319.869 161.974 326.654 172.401C320.846 187.315 316.984 202.913 315.164 218.813C313.021 239.466 291.625 262.136 292.277 286.25C292.464 293.434 302.339 305.072 317.959 295.483C317.959 295.483 310.118 273.603 326.654 242.802C343.19 212.001 356.232 209.425 365.16 161.182Z" fill="#E8B57F"/>
<path d="M387.612 159.724C387.612 159.724 385.454 202.132 396.198 215.166C406.943 228.201 422.796 238.442 422.967 262.028C423.138 285.614 431.491 295.483 431.491 295.483C433.717 294.91 435.986 294.521 438.276 294.319C442.637 293.866 446.699 291.89 449.746 288.74C452.793 285.589 454.631 281.466 454.936 277.095C456.287 256.923 454.44 233.166 439.006 221.42C418.433 205.778 422.967 178.143 422.967 178.143C422.967 178.143 443.152 163.308 450.278 145.759C457.405 128.209 487.325 126.223 488.381 95.0643L480.618 85.7541C480.618 85.7541 464.361 86.9334 448.182 101.55C432.003 116.168 409.567 127.107 402.254 143.276C394.941 159.445 387.612 159.724 387.612 159.724Z" fill="#E8B57F"/>
<path d="M262.667 92.1161C265.8 89.7047 268.526 86.8077 270.741 83.5352" stroke="#703521" stroke-width="0.48" stroke-linecap="round" stroke-linejoin="round"/>
<path d="M480.618 85.6765C480.618 85.6765 484.608 90.7971 488.381 94.9867" stroke="#703521" stroke-width="0.48" stroke-linecap="round" stroke-linejoin="round"/>
<path d="M293.55 287.848C293.55 287.848 302.199 299.269 315.614 292.286" stroke="#703521" stroke-width="0.48" stroke-linecap="round" stroke-linejoin="round"/>
<path d="M430.73 291.169C430.73 291.169 448.198 293 454.02 276.086" stroke="#703521" stroke-width="0.48" stroke-linecap="round" stroke-linejoin="round"/>
<path d="M358.918 155.938L349.369 201.511" stroke="#703521" stroke-width="0.48" stroke-linecap="round" stroke-linejoin="round"/>
<path d="M349.354 203.901C345.805 210.822 341.454 217.301 336.389 223.204C328.113 232.747 308.254 259.949 315.598 290.455" stroke="#703521" stroke-width="0.48" stroke-linecap="round" stroke-linejoin="round"/>
<path d="M315.614 224.12C315.614 224.12 314.698 232.39 317.648 239" stroke="#703521" stroke-width="0.48" stroke-linecap="round" stroke-linejoin="round"/>
<path d="M313.922 229.814C313.683 232.442 313.683 235.085 313.922 237.713" stroke="#703521" stroke-width="0.48" stroke-linecap="round" stroke-linejoin="round"/>
<path d="M396.136 155.938L391.928 201.511" stroke="#703521" stroke-width="0.48" stroke-linecap="round" stroke-linejoin="round"/>
<path d="M393.031 203.901C393.031 203.901 395.049 212.358 405.53 222.087C416.01 231.816 423.82 242.119 424.706 259.033C425.591 275.947 425.948 280.353 429.985 289.353" stroke="#703521" stroke-width="0.48" stroke-linecap="round" stroke-linejoin="round"/>
<path d="M434.224 218.782C435.799 222.232 436.369 226.055 435.869 229.814" stroke="#703521" stroke-width="0.48" stroke-linecap="round" stroke-linejoin="round"/>
<path d="M437.158 252.05C437.158 252.05 442.127 258.474 452.421 256.085" stroke="#703521" stroke-width="0.48" stroke-linecap="round" stroke-linejoin="round"/>
<path d="M301.096 258.118C301.096 258.118 306.624 258.661 310.661 252.05" stroke="#703521" stroke-width="0.48" stroke-linecap="round" stroke-linejoin="round"/>
<path d="M328.672 172.479C328.672 172.479 346.947 174.682 353.903 150.755" stroke="#703521" stroke-width="0.48" stroke-linecap="round" stroke-linejoin="round"/>
<path d="M398.76 152.26C398.76 152.26 400.391 170.881 421.352 177.087" stroke="#703521" stroke-width="0.48" stroke-linecap="round" stroke-linejoin="round"/>
<path d="M321.142 119.193C321.142 119.193 323.704 124.143 321.142 140.141" stroke="#703521" stroke-width="0.48" stroke-linecap="round" stroke-linejoin="round"/>
<path d="M436.009 139.102C442.998 139.446 449.947 137.868 456.101 134.54" stroke="#703521" stroke-width="0.48" stroke-linecap="round" stroke-linejoin="round"/>
<path d="M264.127 95.0643C264.127 95.0643 271.021 91.6816 273.195 85.7541" stroke="#703521" stroke-width="0.48" stroke-linecap="round" stroke-linejoin="round"/>
<path d="M477.435 87.8954C479.635 92.0797 482.835 95.6562 486.751 98.3074" stroke="#703521" stroke-width="0.48" stroke-linecap="round" stroke-linejoin="round"/>
<path d="M337.134 276.117C337.134 276.117 368.762 285.676 402.782 277.219" stroke="#703521" stroke-width="0.48" stroke-linecap="round" stroke-linejoin="round"/>
<path d="M363.421 283.519L361.775 323.894L367.66 325.927" stroke="#703521" stroke-width="0.48" stroke-linecap="round" stroke-linejoin="round"/>
<path d="M368.949 285.49C368.949 285.49 368.762 322.063 367.66 334.105C366.337 346.53 366.337 359.06 367.66 371.485" stroke="#703521" stroke-width="0.48" stroke-linecap="round" stroke-linejoin="round"/>
<path d="M353.686 320.589L361.775 323.894" stroke="#703521" stroke-width="0.48" stroke-linecap="round" stroke-linejoin="round"/>
<path d="M347.615 280.71C347.615 280.71 344.774 308.16 328.641 307.57" stroke="#703521" stroke-width="0.48" stroke-linecap="round" stroke-linejoin="round"/>
<path d="M390.096 281.998C390.096 281.998 390.826 311.481 415.094 307.586" stroke="#703521" stroke-width="0.48" stroke-linecap="round" stroke-linejoin="round"/>
<path d="M360.657 404.94C360.657 404.94 356.403 411.736 338.128 421.838" stroke="#703521" stroke-width="0.48" stroke-linecap="round" stroke-linejoin="round"/>
<path d="M359.57 409.595C359.57 409.595 357.179 415.6 347.615 420.922" stroke="#703521" stroke-width="0.48" stroke-linecap="round" stroke-linejoin="round"/>
<path d="M360.657 416.857C360.313 425.294 356.921 433.321 351.108 439.45" stroke="#703521" stroke-width="0.48" stroke-linecap="round" stroke-linejoin="round"/>
<path d="M383.109 420.922C383.109 420.922 388.994 435.803 398.729 443.531C408.464 451.258 424.706 448.667 424.706 448.667" stroke="#703521" stroke-width="0.48" stroke-linecap="round" stroke-linejoin="round"/>
<path d="M424.706 411.364C424.706 411.364 425.296 423.498 424.706 434.345" stroke="#703521" stroke-width="0.48" stroke-linecap="round" stroke-linejoin="round"/>
<path d="M426.988 411.364C428.213 416.574 429.074 421.862 429.565 427.191" stroke="#703521" stroke-width="0.48" stroke-linecap="round" stroke-linejoin="round"/>
<path d="M414.178 369.639C414.178 369.639 413.619 374.62 406.415 388.771" stroke="#703521" stroke-width="0.48" stroke-linecap="round" stroke-linejoin="round"/>
<path d="M464.936 396.126C464.936 396.126 474.671 404.754 475.044 428.184" stroke="#703521" stroke-width="0.48" stroke-linecap="round" stroke-linejoin="round"/>
<path d="M417.02 449.07C417.02 449.07 418.215 457.853 411.228 468.513" stroke="#703521" stroke-width="0.48" stroke-linecap="round" stroke-linejoin="round"/>
<path d="M364.027 324.67C364.027 324.67 357.366 361.57 353.686 377.428C350.006 393.287 344.913 405.405 349.354 412.202C353.795 418.998 388.171 431.071 388.171 431.071" stroke="#703521" stroke-width="0.48" stroke-linecap="round" stroke-linejoin="round"/>
<path d="M415.84 310.286C415.84 310.286 413.619 345.354 410.312 362.19C407.005 379.026 414.722 415.041 420.249 420.922C425.777 426.803 431.46 409.719 469.159 401.805" stroke="#703521" stroke-width="0.48" stroke-linecap="round" stroke-linejoin="round"/>
<path d="M478.786 392.992C481.705 397.217 484.39 401.599 486.829 406.119C489.934 412.326 495.306 416.717 497.216 425.609" stroke="#703521" stroke-width="0.48" stroke-linecap="round" stroke-linejoin="round"/>
<path d="M430.668 449.07C430.668 449.07 431.305 457.108 434.689 462.679C438.074 468.249 437.236 478.351 437.236 478.351" stroke="#703521" stroke-width="0.48" stroke-linecap="round" stroke-linejoin="round"/>
<path d="M365.16 167.886C365.16 167.886 373.436 173.627 385.842 167.886" stroke="#703521" stroke-width="0.48" stroke-linecap="round" stroke-linejoin="round"/>
<path d="M358.918 110.892C358.918 110.892 356.791 118.216 365.129 118.542" stroke="#703521" stroke-width="0.48" stroke-linecap="round" stroke-linejoin="round"/>
<path d="M371.247 95.8557C371.247 95.8557 362.909 101.426 366.666 108.269" stroke="#703521" stroke-width="0.48" stroke-linecap="round" stroke-linejoin="round"/>
<path d="M351.031 108.269C351.031 108.269 345.767 122.235 358.437 125.71" stroke="#703521" stroke-width="0.48" stroke-linecap="round" stroke-linejoin="round"/>
<path d="M376.898 558C417.613 558 450.62 552.929 450.62 546.673C450.62 540.417 417.613 535.345 376.898 535.345C336.183 535.345 303.177 540.417 303.177 546.673C303.177 552.929 336.183 558 376.898 558Z" fill="#D3E8D6"/>
<path d="M587.52 270.686L624.334 257.233C628.123 273.386 628.992 296.367 623.946 319.565C620.111 336.991 613.652 355.735 618.03 380.656C618.558 383.759 619.195 386.862 619.862 389.966L672.514 380.656L679.656 399.105L623.34 415.74C601.603 421.714 597.38 409.533 595.004 403.869C589.538 390.85 582.21 371.826 580.316 359.971C572.723 312.505 587.52 270.686 587.52 270.686Z" fill="#44BBA4"/>
<path d="M656.413 223.514C654.068 198.191 660.559 194.591 659.518 167.265C657.64 131.84 645.001 134.012 631.275 134.214C617.751 132.305 605.547 128.24 599.243 163.138C594.88 190.137 600.796 194.886 595.377 219.713C589.958 244.54 586.868 272.471 586.868 272.471C597.908 284.884 622.425 277.343 622.425 277.343C622.425 277.343 649.115 275.791 661.63 264.759C661.63 264.79 658.773 248.823 656.413 223.514Z" fill="#F0BAA4"/>
<path d="M619.009 133.252C565.27 99.9367 574.245 73.9301 587.474 22.9101C584.073 21.1721 582.272 20.4584 578.825 18.798C550.396 81.8128 555.939 110.799 608.559 155.845C617.968 151.779 618.9 142.283 619.009 133.252Z" fill="#F0BAA4"/>
<path d="M583.204 3.5758C584.865 3.65339 583.98 10.8378 583.98 10.8378C583.98 10.8378 585.719 1.52755 586.977 1.40342C588.964 1.15514 586.821 11.6757 586.821 11.6757C586.821 11.6757 589.445 0.270672 591.573 0.999974C593.7 1.72928 589.756 12.7464 589.756 12.7464C589.756 12.7464 594.041 2.64478 595.687 3.59132C597.333 4.53786 591.309 17.386 591.309 17.386C591.309 17.386 597.783 14.2826 598.498 15.586C599.693 17.7429 586.216 24.8962 586.216 24.8962L578.188 22.5221C578.188 22.5221 581.558 3.4827 583.204 3.5758Z" fill="#F0BAA4"/>
<path d="M642.811 160.267C700.99 184.877 696.161 212.032 690.944 264.402C694.578 265.581 696.456 265.954 700.121 267.133C718.458 200.487 709.918 166.707 646.724 135.362C637.594 130.816 641.476 151.329 642.811 160.267Z" fill="#F0BAA4"/>
<path d="M698.196 282.852C696.55 283.022 696.317 275.791 696.317 275.791C696.317 275.791 696.037 285.226 694.764 285.583C692.839 286.126 693.336 275.404 693.336 275.404C693.336 275.404 692.497 287.072 690.354 286.638C688.212 286.203 690.354 274.752 690.354 274.752C690.354 274.752 687.699 285.396 685.914 284.714C684.128 284.031 688.119 270.423 688.119 270.423C688.119 270.423 682.203 274.457 681.287 273.309C679.734 271.369 692 262.245 692 262.245L700.276 263.347C700.276 263.347 699.841 282.681 698.196 282.852Z" fill="#F0BAA4"/>
<path d="M636.787 391.828C636.042 366.535 645.979 343.073 652.314 326.377C660.683 304.157 663.089 281.284 661.63 264.743L623.263 272.781C623.263 272.781 603.823 324.143 604.522 372.09C605.221 420.038 642.004 493.853 642.004 493.853L652.966 481.175C652.966 481.175 638.153 436.672 636.787 391.828Z" fill="#44BBA4"/>
<path d="M640.886 491.587C641.086 496.468 640.277 501.339 638.51 505.894C635.669 512.101 632.564 515.018 638.215 521.287C644.674 517.842 650.295 509.214 653.571 503.458C656.847 497.701 662.732 494.302 662.251 490.578C661.769 486.854 652.935 481.268 652.935 481.268L640.886 491.587Z" fill="#E8B57F"/>
<path d="M669.44 402.023C671.441 402.059 673.401 402.602 675.137 403.6C676.872 404.599 678.325 406.021 679.361 407.733C682.886 413.629 683.476 417.819 691.783 416.764C692.652 409.502 688.771 399.959 685.914 393.985C683.057 388.011 683.631 381.245 680.308 379.507C676.986 377.769 667.297 381.773 667.297 381.773L669.44 402.023Z" fill="#E8B57F"/>
<path d="M620.903 114.662C621.168 113.813 621.236 112.915 621.104 112.035C620.971 111.155 620.64 110.317 620.137 109.584C619.633 108.85 618.969 108.241 618.196 107.801C617.422 107.361 616.559 107.102 615.67 107.043H615.562C611.851 107.043 611.882 117.595 617.114 117.595C617.995 117.652 618.866 117.386 619.564 116.845C620.262 116.305 620.738 115.529 620.903 114.662Z" fill="#F6A592"/>
<path d="M649.022 114.662C648.757 113.814 648.688 112.917 648.82 112.039C648.952 111.16 649.281 110.323 649.783 109.59C650.285 108.856 650.947 108.246 651.719 107.805C652.49 107.364 653.352 107.104 654.239 107.043H654.348C658.074 107.043 658.027 117.595 652.795 117.595C651.917 117.648 651.049 117.38 650.355 116.84C649.66 116.3 649.186 115.526 649.022 114.662Z" fill="#F6A592"/>
<path d="M645.684 134.09C643.292 129.574 644.24 122.669 644.24 122.669L634.924 121.242L625.607 122.669C625.908 124.977 625.908 127.313 625.607 129.621C628.946 133.066 635.482 137.24 645.684 134.09Z" fill="#F6A592"/>
<path d="M645.684 134.09C635.483 137.193 628.946 133.066 625.499 129.621C625.276 131.769 624.476 133.817 623.185 135.548C621.384 137.705 624.319 139.195 627.688 140.203C632.395 141.522 637.374 141.522 642.081 140.203C645.451 139.241 648.37 137.752 646.584 135.548C646.226 135.1 645.924 134.61 645.684 134.09Z" fill="#F6B9A4"/>
<path d="M642.64 117.378C642.645 115.582 643.361 113.861 644.633 112.593C645.905 111.325 647.629 110.612 649.426 110.612C650.811 110.609 652.162 111.038 653.292 111.838C653.97 109.071 654.298 106.23 654.27 103.381C654.27 89.4161 647.671 83.3179 642.175 80.6335C639.917 79.5311 637.437 78.9582 634.924 78.9582C632.411 78.9582 629.931 79.5311 627.672 80.6335C622.192 83.2403 615.577 89.4471 615.577 103.412C615.557 106.261 615.885 109.101 616.555 111.869C617.309 111.349 618.16 110.988 619.058 110.807C619.955 110.626 620.88 110.629 621.777 110.817C622.673 111.004 623.522 111.372 624.271 111.897C625.021 112.423 625.656 113.095 626.138 113.873C626.619 114.652 626.938 115.52 627.073 116.425C627.209 117.33 627.158 118.253 626.926 119.138C626.693 120.023 626.283 120.852 625.72 121.573C625.157 122.295 624.453 122.895 623.651 123.336C624.391 123.946 625.175 124.501 625.996 124.997C628.706 126.575 631.787 127.407 634.924 127.407C638.06 127.407 641.141 126.575 643.851 124.997C644.68 124.505 645.469 123.95 646.212 123.336C645.131 122.761 644.227 121.903 643.598 120.853C642.969 119.803 642.638 118.602 642.64 117.378Z" fill="#F0BAA4"/>
<path d="M627.284 117.378C627.284 116.141 626.944 114.927 626.301 113.87C625.659 112.812 624.738 111.951 623.64 111.38C622.542 110.808 621.308 110.549 620.072 110.63C618.837 110.711 617.647 111.129 616.633 111.838C617.646 116.347 620.145 120.385 623.729 123.305C624.803 122.732 625.701 121.877 626.328 120.833C626.954 119.789 627.285 118.595 627.284 117.378Z" fill="#F6A592"/>
<path d="M653.292 111.792C652.162 110.991 650.811 110.563 649.426 110.566C647.921 110.563 646.458 111.063 645.27 111.986C644.081 112.909 643.235 114.202 642.866 115.66C642.497 117.118 642.626 118.657 643.232 120.034C643.838 121.411 644.887 122.546 646.212 123.259C649.795 120.341 652.29 116.301 653.292 111.792Z" fill="#F6A592"/>
<path d="M635.048 115.826V107.633C635.048 107.633 629.256 115.826 635.048 115.826Z" fill="#F6A592"/>
<path d="M625.871 104.468C626.264 103.907 626.791 103.455 627.404 103.151C628.017 102.847 628.697 102.702 629.38 102.73" stroke="#703521" stroke-width="0.48" stroke-linecap="round" stroke-linejoin="round"/>
<path d="M643.976 104.468C643.588 103.906 643.064 103.453 642.453 103.149C641.842 102.845 641.164 102.701 640.482 102.73" stroke="#703521" stroke-width="0.48" stroke-linecap="round" stroke-linejoin="round"/>
<path d="M626.415 109.868C626.415 109.868 626.601 108.316 627.89 108.316C629.179 108.316 629.443 109.868 629.443 109.868" stroke="#703521" stroke-width="0.48" stroke-linecap="round" stroke-linejoin="round"/>
<path d="M640.746 109.868C640.746 109.868 640.932 108.316 642.299 108.316C643.665 108.316 643.774 109.868 643.774 109.868" stroke="#703521" stroke-width="0.48" stroke-linecap="round" stroke-linejoin="round"/>
<path d="M632.113 117.595H637.486C637.486 117.595 637.315 121.242 634.799 121.242C632.284 121.242 632.113 117.595 632.113 117.595Z" fill="#FAF0E6"/>
<path d="M623.309 109.868C623.31 110.792 623.585 111.695 624.1 112.462C624.616 113.229 625.348 113.825 626.203 114.175C627.059 114.525 628 114.613 628.905 114.427C629.811 114.241 630.641 113.79 631.289 113.131C631.937 112.472 632.375 111.635 632.545 110.727C632.716 109.819 632.613 108.881 632.248 108.032C631.884 107.183 631.275 106.461 630.499 105.959C629.722 105.457 628.814 105.197 627.89 105.212C627.282 105.212 626.68 105.333 626.119 105.568C625.558 105.803 625.05 106.147 624.623 106.58C624.197 107.014 623.861 107.528 623.636 108.092C623.41 108.656 623.299 109.26 623.309 109.868V109.868Z" stroke="#DF6A3D" stroke-width="0.48" stroke-linecap="round" stroke-linejoin="round"/>
<path d="M637.641 109.868C637.641 110.788 637.914 111.688 638.426 112.454C638.938 113.219 639.665 113.816 640.516 114.168C641.367 114.521 642.304 114.613 643.208 114.433C644.111 114.254 644.941 113.81 645.593 113.159C646.244 112.508 646.688 111.679 646.867 110.776C647.047 109.873 646.955 108.937 646.602 108.086C646.25 107.236 645.653 106.508 644.887 105.997C644.121 105.485 643.22 105.212 642.299 105.212C641.063 105.212 639.879 105.703 639.005 106.576C638.132 107.449 637.641 108.633 637.641 109.868V109.868Z" stroke="#DF6A3D" stroke-width="0.48" stroke-linecap="round" stroke-linejoin="round"/>
<path d="M632.486 109.868C633.261 109.391 634.153 109.139 635.063 109.139C635.973 109.139 636.866 109.391 637.641 109.868" stroke="#DF6A3D" stroke-width="0.48" stroke-linecap="round" stroke-linejoin="round"/>
<path d="M623.31 109.868L615.732 107.447" stroke="#DF6A3D" stroke-width="0.48" stroke-linecap="round" stroke-linejoin="round"/>
<path d="M646.817 109.868L654.394 107.447" stroke="#DF6A3D" stroke-width="0.48" stroke-linecap="round" stroke-linejoin="round"/>
<path d="M591.666 108.347C589.321 113.297 585.175 120.466 579.477 124.717C578.275 125.602 577.442 126.899 577.138 128.359C576.835 129.82 577.081 131.341 577.831 132.631C583.483 142.112 590.253 139.303 593.964 153.905C589.306 196.794 596.634 204.351 584.648 237.93C577.055 259.126 575.331 274.721 575.083 283.317C575.029 285.728 575.718 288.098 577.057 290.105C578.395 292.111 580.319 293.658 582.567 294.536C595.905 300.027 610.854 300.138 624.272 294.846C637.404 289.454 651.67 287.401 665.791 288.872C666.492 288.955 667.203 288.873 667.867 288.633C668.531 288.393 669.13 288.001 669.616 287.488C670.101 286.976 670.46 286.357 670.664 285.681C670.868 285.006 670.911 284.292 670.79 283.596C669.077 273.845 667.941 264 667.39 254.114C666.21 234.237 657.795 214.003 664.626 190.168C664.872 189.319 665.33 188.546 665.957 187.922C666.584 187.299 667.359 186.844 668.21 186.602C669.06 186.36 669.959 186.338 670.821 186.539C671.682 186.739 672.479 187.155 673.135 187.748C674.688 189.144 675.992 190.324 677.11 191.301C678.405 192.433 680.007 193.154 681.713 193.372C683.419 193.59 685.152 193.296 686.69 192.527C692.249 189.718 700.074 183.977 700.571 173.813C700.699 171.2 699.871 168.63 698.242 166.582C681.628 145.821 646.77 135.362 646.77 135.362C646.77 135.362 646.165 147.636 633.262 147.636C620.359 147.636 624.722 133.004 624.722 133.004C624.722 133.004 612.068 121.831 598.109 107.307C597.664 106.846 597.114 106.5 596.505 106.297C595.897 106.095 595.249 106.042 594.616 106.144C593.983 106.246 593.384 106.5 592.87 106.884C592.356 107.267 591.943 107.769 591.666 108.347Z" fill="#E8B57F"/>
<path d="M642.485 76.0715C627.579 66.0319 621.555 76.7387 621.26 81.3318C620.965 85.9248 613.186 86.6231 613.093 94.9868C613 103.35 615.298 107.059 615.298 107.059H615.763C615.763 107.059 619.21 94.4592 626.415 95.7936C636.119 96.6316 635.125 89.4317 641.647 90.4403C652.034 92.2713 654.068 107.012 654.068 107.012L654.86 107.121C658.229 96.2747 657.391 86.111 642.485 76.0715Z" fill="#424242"/>
<path d="M613.093 125.742C613.093 125.742 613.093 142.314 595.78 151.671" stroke="#703521" stroke-width="0.48" stroke-linecap="round" stroke-linejoin="round"/>
<path d="M669.114 147.962C669.114 147.962 657.018 165.388 669.114 182.41" stroke="#703521" stroke-width="0.48" stroke-linecap="round" stroke-linejoin="round"/>
<path d="M621.881 133.004C621.881 133.004 616.322 152.26 633.262 151.624C650.202 150.988 650.575 137.953 650.575 137.953" stroke="#703521" stroke-width="0.48" stroke-linecap="round" stroke-linejoin="round"/>
<path d="M576.853 284.962C576.853 284.962 586.371 293.729 604.429 291.976C622.487 290.222 627.176 284.962 642.004 283.597C650.627 282.761 659.311 282.761 667.934 283.597" stroke="#703521" stroke-width="0.48" stroke-linecap="round" stroke-linejoin="round"/>
<path d="M654.658 288.422C654.658 288.422 641.088 330.986 633.262 360.623C625.437 390.261 631.834 414.933 635.063 431.179C638.293 447.425 648.665 477.172 648.665 477.172" stroke="#703521" stroke-width="0.48" stroke-linecap="round" stroke-linejoin="round"/>
<path d="M639.069 483.999L651.165 477.172" stroke="#703521" stroke-width="0.48" stroke-linecap="round" stroke-linejoin="round"/>
<path d="M640.886 491.587L652.966 481.206" stroke="#703521" stroke-width="0.48" stroke-linecap="round" stroke-linejoin="round"/>
<path d="M637.051 398.004L662.002 393.566" stroke="#703521" stroke-width="0.48" stroke-linecap="round" stroke-linejoin="round"/>
<path d="M660.916 382.797L664.378 403.528L669.44 402.023L667.359 381.773" stroke="#703521" stroke-width="0.48" stroke-linecap="round" stroke-linejoin="round"/>
<path d="M639.069 504.482L643.945 506.607" stroke="#703521" stroke-width="0.48" stroke-linecap="round" stroke-linejoin="round"/>
<path d="M640.016 501.239L645.125 503.101" stroke="#703521" stroke-width="0.48" stroke-linecap="round" stroke-linejoin="round"/>
<path d="M640.886 497.639L646.103 499.392" stroke="#703521" stroke-width="0.48" stroke-linecap="round" stroke-linejoin="round"/>
<path d="M676.023 404.148L680.805 399.804" stroke="#703521" stroke-width="0.48" stroke-linecap="round" stroke-linejoin="round"/>
<path d="M678.414 406.383L682.576 403.528" stroke="#703521" stroke-width="0.48" stroke-linecap="round" stroke-linejoin="round"/>
<path d="M673.477 402.814L676.908 398.004" stroke="#703521" stroke-width="0.48" stroke-linecap="round" stroke-linejoin="round"/>
<path d="M639.271 292.24C639.271 292.24 635.948 309.743 645.482 311.884" stroke="#703521" stroke-width="0.48" stroke-linecap="round" stroke-linejoin="round"/>
<path d="M621.881 84.7921C621.881 84.7921 618.061 90.2541 622.688 94.3816C627.315 98.5091 636.476 95.2816 639.768 87.3058" stroke="#703521" stroke-width="0.48" stroke-linecap="round" stroke-linejoin="round"/>
<path d="M624.94 76.3818C624.419 77.111 624.062 77.9443 623.893 78.8245C623.725 79.7047 623.749 80.6109 623.965 81.4808C624.18 82.3507 624.581 83.1637 625.141 83.8638C625.701 84.564 626.405 85.1347 627.207 85.5368" stroke="#703521" stroke-width="0.48" stroke-linecap="round" stroke-linejoin="round"/>
<path d="M586.915 138.714C588.485 138.126 589.879 137.148 590.966 135.872C592.053 134.596 592.796 133.064 593.125 131.421" stroke="#703521" stroke-width="0.48" stroke-linecap="round" stroke-linejoin="round"/>
<path d="M671.024 169.484C670.07 171.858 669.658 174.415 669.819 176.968C669.98 179.521 670.71 182.006 671.955 184.241" stroke="#703521" stroke-width="0.48" stroke-linecap="round" stroke-linejoin="round"/>
<path d="M688.833 161.322C688.833 161.322 680.262 167.389 681.178 176.839" stroke="#703521" stroke-width="0.48" stroke-linecap="round" stroke-linejoin="round"/>
<path d="M593.125 223.67C600.82 232.219 611.106 238.013 622.409 240.164" stroke="#703521" stroke-width="0.48" stroke-linecap="round" stroke-linejoin="round"/>
<path d="M591.93 226.277C591.93 226.277 595.734 243.904 607.751 248.916" stroke="#703521" stroke-width="0.48" stroke-linecap="round" stroke-linejoin="round"/>
<path d="M658.649 204.382C653.49 210.732 646.546 215.39 638.712 217.758" stroke="#703521" stroke-width="0.48" stroke-linecap="round" stroke-linejoin="round"/>
<path d="M590.672 298.757C590.672 298.757 588.467 312.893 580.393 311.884" stroke="#703521" stroke-width="0.48" stroke-linecap="round" stroke-linejoin="round"/>
<path d="M606.075 300.153L604.522 316.586L610.251 319.177C610.251 319.177 597.24 372.866 611.804 415.647" stroke="#703521" stroke-width="0.48" stroke-linecap="round" stroke-linejoin="round"/>
<path d="M611.82 300.153L610.811 316.431" stroke="#703521" stroke-width="0.48" stroke-linecap="round" stroke-linejoin="round"/>
<path d="M691.271 261.609L701.099 263.719" stroke="#703521" stroke-width="0.48" stroke-linecap="round" stroke-linejoin="round"/>
<path d="M691.131 262.928L700.167 267.133" stroke="#703521" stroke-width="0.48" stroke-linecap="round" stroke-linejoin="round"/>
<path d="M635.25 558C675.965 558 708.971 552.929 708.971 546.673C708.971 540.417 675.965 535.345 635.25 535.345C594.535 535.345 561.528 540.417 561.528 546.673C561.528 552.929 594.535 558 635.25 558Z" fill="#D3E8D6"/>
<path d="M867.298 558C908.014 558 941.02 552.929 941.02 546.673C941.02 540.417 908.014 535.345 867.298 535.345C826.583 535.345 793.577 540.417 793.577 546.673C793.577 552.929 826.583 558 867.298 558Z" fill="#D3E8D6"/>
<path d="M861.926 81.6886C861.926 81.6886 850.032 82.8524 855.715 72.4715C861.398 62.0906 884.409 71.0439 873.804 81.7817" fill="#F6A726"/>
<path d="M869.13 77.6697C869.13 77.6697 847.921 72.8439 839.195 98.0436C830.469 123.243 808.995 122.312 814.352 137.876C819.709 153.439 797.723 154.51 800.906 175.598C804.089 196.686 847.766 218.239 897.25 186.18C946.734 154.122 897.746 131.359 896.178 115.174C894.61 98.9902 887.53 79.0818 869.13 77.6697Z" fill="#F6A726"/>
<path d="M902.653 267.893C902.653 267.893 926.611 321.862 930.027 369.716C933.442 417.571 904.656 490.299 904.656 490.299L889.47 486.916C889.47 486.916 896.209 436.905 893.678 392.123C891.147 347.341 865.606 309.044 865.606 309.044V276.459L902.653 267.893Z" fill="#F0BAA4"/>
<path d="M835.763 392.309C840.142 367.389 827.767 342.747 823.947 325.306C818.854 302.124 819.755 279.143 823.544 262.974L869.224 276.443C869.224 276.443 881.071 330.07 873.478 377.444C865.885 424.817 818.886 492.565 818.886 492.565L807.24 482.308C807.24 482.308 828 436.501 835.763 392.309Z" fill="#F0BAA4"/>
<path d="M836.773 223.266C847.424 200.177 828.528 199.866 831.214 172.65C835.344 137.41 853.681 134.648 867.345 135.688C881.024 134.648 902.358 134.462 906.442 169.701C909.128 196.918 896.955 198.144 900.883 223.266C904.811 248.388 903.15 276.443 903.15 276.443C891.349 288.19 867.345 279.097 867.345 279.097C867.345 279.097 835.344 274.721 823.544 262.974C823.544 262.974 824.957 248.885 836.773 223.266Z" fill="#44BBA4"/>
<path d="M820.314 490.454C819.416 495.255 819.521 500.189 820.625 504.947C822.519 511.542 825.174 514.831 818.699 520.231C812.784 515.887 808.483 506.545 806.061 500.37C803.638 494.194 798.297 490.004 799.306 486.404C800.316 482.804 808.514 479.422 808.514 479.422L820.314 490.454Z" fill="#FAF0E6"/>
<path d="M853.309 136.743L752.384 48.42L744.248 55.6975L833.9 160.686C838.941 158.729 843.384 155.491 846.788 151.292C850.192 147.092 852.44 142.077 853.309 136.743Z" fill="#F0BAA4"/>
<path d="M733.674 40.7391C734.792 39.5133 739.792 44.727 739.792 44.727C739.792 44.727 733.705 37.5116 734.373 36.4409C735.444 34.7496 742.245 43.0667 742.245 43.0667C742.245 43.0667 735.072 33.7565 736.966 32.7168C738.86 31.6772 744.916 41.546 744.916 41.546C744.916 41.546 739.792 31.8324 741.577 31.1651C743.363 30.4979 749.465 43.2839 749.465 43.2839C749.465 43.2839 751.189 36.3323 752.57 36.5806C754.993 37.0306 751.965 51.958 751.965 51.958L745.055 56.6131C745.055 56.6131 732.556 41.9495 733.674 40.7391Z" fill="#F0BAA4"/>
<path d="M881.303 136.247L982.228 47.9235L990.364 55.201L903.662 157.241C903.662 157.241 884.191 154.619 881.303 136.247Z" fill="#F0BAA4"/>
<path d="M1000.94 40.2426C999.82 39.0168 994.82 44.246 994.82 44.246C994.82 44.246 1000.91 37.0151 1000.24 35.9444C999.168 34.253 992.367 42.5702 992.367 42.5702C992.367 42.5702 999.54 33.3375 997.646 32.2203C995.752 31.1031 989.696 41.065 989.696 41.065C989.696 41.065 994.82 31.3513 993.034 30.6841C991.249 30.0169 985.131 42.8029 985.131 42.8029C985.131 42.8029 983.423 35.8358 982.026 36.0996C979.588 36.534 982.631 51.477 982.631 51.477L989.541 56.1321C989.541 56.1321 1002.04 41.4685 1000.94 40.2426Z" fill="#F0BAA4"/>
<path d="M876.009 457.62C876.009 457.62 894.563 468.482 922.931 458.458C952.572 354.494 926.129 313.746 910.137 271.447C908.523 258.02 905.802 244.749 902.001 231.77C869.394 241.08 834.397 228.666 834.397 228.666C834.397 228.666 812.892 251.554 814.569 297.407C816.246 343.26 846.989 382.75 804.042 446.758C820.05 466.729 848.247 461.732 848.247 461.732C848.247 461.732 882.763 410.417 882.406 359.583C887.406 391.58 885.698 408.648 876.009 457.62Z" fill="#E8B57F"/>
<path d="M848.386 144.657C862.433 146.373 876.635 146.373 890.682 144.657" stroke="#703521" stroke-width="0.48" stroke-linecap="round" stroke-linejoin="round"/>
<path d="M847.253 150.631C862.039 152.487 876.999 152.487 891.784 150.631" stroke="#703521" stroke-width="0.48" stroke-linecap="round" stroke-linejoin="round"/>
<path d="M846.213 156.62C861.733 158.616 877.444 158.616 892.964 156.62" stroke="#703521" stroke-width="0.48" stroke-linecap="round" stroke-linejoin="round"/>
<path d="M845.017 162.579C861.275 164.73 877.746 164.73 894.005 162.579" stroke="#703521" stroke-width="0.48" stroke-linecap="round" stroke-linejoin="round"/>
<path d="M843.915 168.584C860.915 170.903 878.153 170.903 895.153 168.584" stroke="#703521" stroke-width="0.48" stroke-linecap="round" stroke-linejoin="round"/>
<path d="M842.812 174.496C860.53 176.981 878.508 176.981 896.225 174.496" stroke="#703521" stroke-width="0.48" stroke-linecap="round" stroke-linejoin="round"/>
<path d="M841.71 180.439C860.163 183.111 878.905 183.111 897.358 180.439" stroke="#703521" stroke-width="0.48" stroke-linecap="round" stroke-linejoin="round"/>
<path d="M840.623 186.367C859.801 189.232 879.298 189.232 898.476 186.367" stroke="#703521" stroke-width="0.48" stroke-linecap="round" stroke-linejoin="round"/>
<path d="M839.552 192.31C859.455 195.361 879.707 195.361 899.61 192.31" stroke="#703521" stroke-width="0.48" stroke-linecap="round" stroke-linejoin="round"/>
<path d="M838.449 198.237C859.076 201.483 880.085 201.483 900.712 198.237" stroke="#703521" stroke-width="0.48" stroke-linecap="round" stroke-linejoin="round"/>
<path d="M836.353 210.077C858.426 213.742 880.953 213.742 903.026 210.077" stroke="#703521" stroke-width="0.48" stroke-linecap="round" stroke-linejoin="round"/>
<path d="M835.344 215.989C858.139 219.864 881.426 219.864 904.221 215.989" stroke="#703521" stroke-width="0.48" stroke-linecap="round" stroke-linejoin="round"/>
<path d="M837.409 204.149C858.759 207.612 880.527 207.612 901.877 204.149" stroke="#703521" stroke-width="0.48" stroke-linecap="round" stroke-linejoin="round"/>
<path d="M834.242 221.916C857.759 226.001 881.806 226.001 905.324 221.916" stroke="#703521" stroke-width="0.48" stroke-linecap="round" stroke-linejoin="round"/>
<path d="M833.201 227.828C857.446 232.096 882.253 232.07 906.488 227.751" stroke="#703521" stroke-width="0.48" stroke-linecap="round" stroke-linejoin="round"/>
<path d="M855.42 114.181C855.691 113.329 855.763 112.427 855.633 111.542C855.503 110.658 855.174 109.815 854.67 109.076C854.166 108.338 853.501 107.724 852.724 107.28C851.947 106.837 851.08 106.575 850.188 106.516H850.079C846.368 106.516 846.399 117.067 851.632 117.067C852.506 117.126 853.372 116.866 854.068 116.336C854.765 115.805 855.246 115.039 855.42 114.181Z" fill="#F6A592"/>
<path d="M883.477 114.181C883.204 113.33 883.128 112.428 883.256 111.544C883.384 110.659 883.712 109.816 884.215 109.077C884.718 108.338 885.382 107.723 886.159 107.279C886.935 106.836 887.802 106.575 888.694 106.516H888.803C892.529 106.516 892.483 117.067 887.25 117.067C886.379 117.123 885.517 116.861 884.823 116.33C884.13 115.8 883.652 115.036 883.477 114.181Z" fill="#F6A592"/>
<path d="M880.201 133.624C877.81 129.093 878.757 122.188 878.757 122.188L869.441 120.761L860.125 122.188C860.425 124.496 860.425 126.832 860.125 129.14C863.463 132.585 870 136.759 880.201 133.624Z" fill="#F6A592"/>
<path d="M880.201 133.624C870 136.728 863.463 132.585 860.016 129.14C859.79 131.292 858.991 133.344 857.703 135.083C855.901 137.224 858.836 138.714 862.205 139.738C866.912 141.057 871.892 141.057 876.599 139.738C879.968 138.776 882.809 137.286 881.101 135.083C880.751 134.63 880.449 134.141 880.201 133.624Z" fill="#F6B9A4"/>
<path d="M877.158 116.85C877.162 115.055 877.879 113.334 879.151 112.065C880.423 110.797 882.146 110.085 883.943 110.085C885.328 110.082 886.679 110.51 887.809 111.311C888.487 108.544 888.816 105.703 888.787 102.854C888.787 88.8885 882.188 82.7903 876.692 80.1059C874.432 79.0103 871.953 78.441 869.441 78.441C866.929 78.441 864.45 79.0103 862.19 80.1059C856.709 82.7903 850.094 88.904 850.094 102.854C850.074 105.702 850.402 108.542 851.073 111.311C851.826 110.78 852.68 110.409 853.582 110.22C854.485 110.031 855.416 110.029 856.319 110.214C857.222 110.399 858.078 110.766 858.834 111.294C859.589 111.822 860.229 112.498 860.713 113.282C861.197 114.066 861.515 114.941 861.648 115.853C861.782 116.764 861.726 117.694 861.487 118.583C861.247 119.473 860.827 120.304 860.254 121.025C859.681 121.746 858.966 122.343 858.153 122.778C858.901 123.384 859.689 123.939 860.513 124.438C863.223 126.017 866.304 126.848 869.441 126.848C872.578 126.848 875.659 126.017 878.369 124.438C879.197 123.946 879.986 123.391 880.729 122.778C879.653 122.205 878.752 121.351 878.123 120.307C877.494 119.264 877.161 118.069 877.158 116.85Z" fill="#F0BAA4"/>
<path d="M861.74 116.85C861.739 115.613 861.399 114.4 860.756 113.342C860.114 112.284 859.193 111.423 858.095 110.852C856.997 110.281 855.763 110.022 854.527 110.102C853.292 110.183 852.102 110.601 851.088 111.311C852.096 115.818 854.589 119.856 858.168 122.778C859.247 122.208 860.149 121.355 860.778 120.31C861.408 119.266 861.74 118.069 861.74 116.85Z" fill="#F6A592"/>
<path d="M887.809 111.311C886.679 110.51 885.328 110.082 883.943 110.085C882.438 110.082 880.975 110.582 879.787 111.505C878.599 112.428 877.753 113.721 877.383 115.179C877.014 116.637 877.143 118.176 877.749 119.553C878.355 120.93 879.404 122.065 880.729 122.778C884.313 119.86 886.807 115.82 887.809 111.311Z" fill="#F6A592"/>
<path d="M873.99 117.114C872.76 118.216 871.154 118.804 869.503 118.759V118.759C867.795 118.842 866.122 118.252 864.845 117.114" stroke="#703521" stroke-width="0.48" stroke-linecap="round" stroke-linejoin="round"/>
<path d="M860.932 108.642C860.933 108.952 861.026 109.255 861.2 109.511C861.375 109.768 861.622 109.966 861.91 110.081C862.198 110.196 862.514 110.222 862.817 110.155C863.121 110.089 863.397 109.933 863.611 109.709C863.824 109.484 863.966 109.2 864.016 108.894C864.067 108.588 864.025 108.274 863.896 107.992C863.766 107.71 863.555 107.474 863.29 107.313C863.025 107.152 862.717 107.075 862.407 107.09C862.009 107.11 861.634 107.282 861.359 107.571C861.085 107.86 860.932 108.243 860.932 108.642Z" fill="#703521"/>
<path d="M875.263 108.642C875.263 108.949 875.354 109.249 875.525 109.504C875.696 109.759 875.938 109.958 876.222 110.075C876.506 110.193 876.818 110.223 877.119 110.164C877.42 110.104 877.697 109.956 877.914 109.739C878.131 109.522 878.279 109.245 878.339 108.944C878.399 108.643 878.368 108.331 878.251 108.048C878.133 107.764 877.934 107.522 877.679 107.352C877.423 107.181 877.123 107.09 876.816 107.09C876.404 107.09 876.009 107.254 875.718 107.545C875.427 107.836 875.263 108.23 875.263 108.642Z" fill="#703521"/>
<path d="M869.581 115.392V107.152C869.581 107.152 863.774 115.392 869.581 115.392Z" fill="#F6A592"/>
<path d="M860.389 103.987C860.779 103.428 861.303 102.975 861.914 102.672C862.524 102.368 863.201 102.223 863.882 102.249" stroke="#703521" stroke-width="0.48" stroke-linecap="round" stroke-linejoin="round"/>
<path d="M878.493 103.987C878.105 103.425 877.581 102.972 876.97 102.668C876.359 102.364 875.681 102.22 875 102.249" stroke="#703521" stroke-width="0.48" stroke-linecap="round" stroke-linejoin="round"/>
<path d="M800.409 84.4972C800.409 84.4972 798.949 92.9229 791.683 96.3988C784.416 99.8746 780.348 110.054 780.348 110.054C783.543 114.092 787.371 117.587 791.683 120.404C798.375 124.578 796.046 139.955 809.694 147.807L810.098 148.04C813.817 150.277 816.702 153.668 818.314 157.697C819.926 161.725 820.176 166.17 819.025 170.353C816.755 178.702 816.055 187.399 816.96 196.003C818.994 212.839 796.62 222.133 793.67 241.297C814.305 256.395 845.965 255.805 845.965 255.805C845.965 255.805 859.675 223.22 853.262 202.38C846.85 181.541 869.426 158.405 858.339 134.105C844.365 117.036 834.055 117.595 825.64 104.514C817.224 91.4333 800.409 84.4972 800.409 84.4972Z" fill="#FAF0E6"/>
<path d="M938.784 84.4972C938.784 84.4972 940.243 92.9229 947.51 96.3988C954.776 99.8746 958.844 110.054 958.844 110.054C955.649 114.092 951.822 117.587 947.51 120.404C940.818 124.578 943.147 139.955 929.499 147.807L929.095 148.04C925.376 150.277 922.49 153.668 920.879 157.697C919.267 161.725 919.017 166.17 920.167 170.353C922.458 178.698 923.18 187.395 922.294 196.003C920.26 212.839 933.769 225.082 936.672 244.245C924.082 253.28 908.616 257.393 893.197 255.805C893.197 255.805 879.487 223.22 885.899 202.38C892.312 181.541 870.078 159.336 881.241 135.083C895.215 118.014 905.184 117.642 913.599 104.561C922.015 91.4799 938.784 84.4972 938.784 84.4972Z" fill="#FAF0E6"/>
<path d="M845.98 107.121C845.98 107.121 856.367 108.238 862.407 97.1746C868.447 86.111 879.13 93.6057 885.03 86.3437C877.95 76.8318 852.874 66.4509 845.98 107.121Z" fill="#F6A726"/>
<path d="M783.671 103.987L780.348 110.054C782.111 112.413 784.149 114.554 786.419 116.431C789.866 119.178 795.471 120.481 798.08 132.895C800.486 144.098 811.837 149.281 811.837 149.281" stroke="#703521" stroke-width="0.48" stroke-linecap="round" stroke-linejoin="round"/>
<path d="M799.244 88.0971L800.409 84.4972C806.878 87.2917 812.851 91.1173 818.094 95.8246C826.339 103.397 825.935 106.454 830.018 110.116" stroke="#703521" stroke-width="0.48" stroke-linecap="round" stroke-linejoin="round"/>
<path d="M808.529 90.3006C807.068 97.9869 803.729 105.193 798.809 111.28" stroke="#703521" stroke-width="0.48" stroke-linecap="round" stroke-linejoin="round"/>
<path d="M811.867 95.0023C811.867 95.0023 811.386 109.371 808.529 129.14" stroke="#703521" stroke-width="0.48" stroke-linecap="round" stroke-linejoin="round"/>
<path d="M831.043 114.15C831.043 114.15 839.738 135.874 823.544 163.013" stroke="#703521" stroke-width="0.48" stroke-linecap="round" stroke-linejoin="round"/>
<path d="M806.511 90.3006C806.511 90.3006 802.303 102.016 788.531 111.28" stroke="#703521" stroke-width="0.48" stroke-linecap="round" stroke-linejoin="round"/>
<path d="M899.144 117.936C899.144 117.936 906.162 114.243 909.842 109.402C913.522 104.561 921.347 91.9609 938.784 84.5748" stroke="#703521" stroke-width="0.48" stroke-linecap="round" stroke-linejoin="round"/>
<path d="M953.053 100.79C955.512 103.532 957.472 106.683 958.844 110.1C955.158 114.257 951.017 117.989 946.501 121.226C943.628 123.259 941.843 134.928 937.728 139.847C933.613 144.765 932.231 145.898 929.499 147.776C926.766 149.653 917.155 155.286 920.4 171.222C923.645 187.158 922.791 192.698 922.03 199.153C921.269 205.608 926.316 218.952 931.191 227.083C934.205 232.356 936.053 238.214 936.61 244.261C928.542 250.328 919.034 254.194 909.019 255.48" stroke="#703521" stroke-width="0.48" stroke-linecap="round" stroke-linejoin="round"/>
<path d="M819.445 252.547C819.445 252.547 804.12 248.714 793.717 241.297C795.58 226.664 803.25 224.399 809.243 215.275C815.237 206.151 817.379 204.134 817.007 196.003" stroke="#703521" stroke-width="0.48" stroke-linecap="round" stroke-linejoin="round"/>
<path d="M899.144 119.861C899.144 119.861 890.03 145.045 916.224 165.527" stroke="#703521" stroke-width="0.48" stroke-linecap="round" stroke-linejoin="round"/>
<path d="M933.784 90.3006C933.784 90.3006 931.61 108.068 940.926 122.778" stroke="#703521" stroke-width="0.48" stroke-linecap="round" stroke-linejoin="round"/>
<path d="M931.362 91.1385C929.168 101.012 929.924 111.312 933.536 120.761" stroke="#703521" stroke-width="0.48" stroke-linecap="round" stroke-linejoin="round"/>
<path d="M923.459 104.561C923.459 104.561 918.257 134.803 923.459 147.729" stroke="#703521" stroke-width="0.48" stroke-linecap="round" stroke-linejoin="round"/>
<path d="M804.042 232.204C804.042 232.204 824.988 243.95 840.452 242.771" stroke="#703521" stroke-width="0.48" stroke-linecap="round" stroke-linejoin="round"/>
<path d="M902.544 237.526C902.544 237.526 916.068 237.744 927.154 232.204" stroke="#703521" stroke-width="0.48" stroke-linecap="round" stroke-linejoin="round"/>
<path d="M813.11 436.579C813.11 436.579 821.168 449.427 850.141 450.312" stroke="#703521" stroke-width="0.48" stroke-linecap="round" stroke-linejoin="round"/>
<path d="M880.915 446.432C880.915 446.432 896.846 453.306 922.931 445.238" stroke="#703521" stroke-width="0.48" stroke-linecap="round" stroke-linejoin="round"/>
<path d="M883.011 355.984L877.996 288.515L884.797 284.046L877.996 245.999" stroke="#703521" stroke-width="0.48" stroke-linecap="round" stroke-linejoin="round"/>
<path d="M886.583 242.864C886.583 242.864 875.543 246.154 853.433 242.864" stroke="#703521" stroke-width="0.48" stroke-linecap="round" stroke-linejoin="round"/>
<path d="M870.202 247.612L877.996 284.636" stroke="#703521" stroke-width="0.48" stroke-linecap="round" stroke-linejoin="round"/>
<path d="M819.445 281.052C819.445 281.052 835.794 285.536 841.617 258.366" stroke="#703521" stroke-width="0.48" stroke-linecap="round" stroke-linejoin="round"/>
<path d="M895.247 259.654C895.247 259.654 898.243 281.005 911.984 281.378" stroke="#703521" stroke-width="0.48" stroke-linecap="round" stroke-linejoin="round"/>
<path d="M843.775 107.152C843.775 107.152 851.787 109.402 859.581 101.225" stroke="#703521" stroke-width="0.48" stroke-linecap="round" stroke-linejoin="round"/>
<path d="M846.803 100.79C846.803 100.79 852.858 101.411 858.168 95.0023C863.479 88.5937 866.506 87.6317 872.143 87.4144" stroke="#703521" stroke-width="0.48" stroke-linecap="round" stroke-linejoin="round"/>
<path d="M817.985 492.565L807.24 479.98L808.731 478.894L819.708 489.88" stroke="#703521" stroke-width="0.48" stroke-linecap="round" stroke-linejoin="round"/>
<path d="M805.843 480.663C805.843 480.663 800.595 482.354 799.275 486.389C798.313 489.709 803.747 496.009 803.747 496.009C803.747 496.009 808.591 511.232 817.876 519.487" stroke="#703521" stroke-width="0.48" stroke-linecap="round" stroke-linejoin="round"/>
<path d="M820.128 491.572C819.158 496 819.329 500.602 820.625 504.947C822.752 512.426 823.885 515.313 819.522 519.487" stroke="#703521" stroke-width="0.48" stroke-linecap="round" stroke-linejoin="round"/>
<path d="M904.64 489.787C906.176 494.419 908.656 498.683 911.922 502.309C916.782 507.166 920.711 508.764 917.652 516.616C910.385 515.685 902.125 509.587 896.97 505.366C891.815 501.146 885.17 500.044 884.285 496.397C883.4 492.751 888.943 485.846 888.943 485.846L904.64 489.787Z" fill="#FAF0E6"/>
<path d="M903.631 492.72L888.12 486.916L888.896 485.241L903.833 489.539" stroke="#703521" stroke-width="0.48" stroke-linecap="round" stroke-linejoin="round"/>
<path d="M887.25 488.235C887.25 488.235 883.493 492.254 884.285 496.428C885.061 499.811 892.871 502.635 892.871 502.635C892.871 502.635 903.429 513.311 915.556 516.042" stroke="#703521" stroke-width="0.48" stroke-linecap="round" stroke-linejoin="round"/>
<path d="M905.013 490.811C906.311 495.151 908.688 499.09 911.922 502.263C917.419 507.787 919.81 509.773 918.024 515.53" stroke="#703521" stroke-width="0.48" stroke-linecap="round" stroke-linejoin="round"/>
<path d="M877.996 88.1592C877.996 88.1592 879.145 102.125 890.682 103.987C889.595 91.9764 885.573 81.3162 877.996 88.1592Z" fill="#F6A726"/>
<path d="M880.201 142.469C880.201 142.721 880.276 142.967 880.416 143.176C880.556 143.385 880.754 143.548 880.987 143.644C881.22 143.741 881.476 143.766 881.723 143.717C881.97 143.668 882.197 143.547 882.375 143.369C882.553 143.191 882.674 142.964 882.723 142.717C882.772 142.47 882.747 142.215 882.651 141.982C882.554 141.75 882.391 141.551 882.182 141.411C881.972 141.271 881.726 141.197 881.474 141.197C881.138 141.201 880.816 141.336 880.579 141.574C880.341 141.811 880.205 142.133 880.201 142.469Z" fill="#703521"/>
<path d="M881.925 166.179C881.925 166.431 881.999 166.677 882.139 166.886C882.279 167.095 882.478 167.258 882.711 167.355C882.943 167.451 883.199 167.476 883.446 167.427C883.693 167.378 883.92 167.257 884.098 167.079C884.276 166.901 884.397 166.674 884.447 166.427C884.496 166.18 884.47 165.925 884.374 165.692C884.278 165.46 884.115 165.261 883.905 165.121C883.696 164.981 883.45 164.907 883.198 164.907C882.86 164.907 882.536 165.041 882.297 165.279C882.059 165.518 881.925 165.842 881.925 166.179Z" fill="#703521"/>
<path d="M887.514 185.094C887.514 185.346 887.589 185.592 887.729 185.801C887.869 186.01 888.068 186.174 888.3 186.27C888.533 186.366 888.789 186.391 889.036 186.342C889.283 186.293 889.51 186.172 889.688 185.994C889.866 185.816 889.987 185.589 890.036 185.343C890.085 185.096 890.06 184.84 889.964 184.607C889.867 184.375 889.704 184.176 889.495 184.036C889.285 183.897 889.039 183.822 888.787 183.822C888.45 183.822 888.126 183.956 887.887 184.195C887.648 184.433 887.514 184.757 887.514 185.094Z" fill="#703521"/>
<path d="M886.241 205.437C886.241 205.689 886.316 205.935 886.456 206.144C886.595 206.353 886.794 206.516 887.027 206.613C887.26 206.709 887.515 206.734 887.762 206.685C888.009 206.636 888.236 206.515 888.414 206.337C888.592 206.159 888.714 205.932 888.763 205.685C888.812 205.439 888.787 205.183 888.69 204.95C888.594 204.718 888.431 204.519 888.221 204.379C888.012 204.239 887.766 204.165 887.514 204.165C887.347 204.165 887.181 204.198 887.027 204.262C886.872 204.325 886.732 204.419 886.614 204.537C886.496 204.656 886.402 204.796 886.338 204.95C886.274 205.105 886.241 205.27 886.241 205.437Z" fill="#703521"/>
<path d="M890.511 246.34C890.511 246.592 890.586 246.838 890.726 247.047C890.865 247.256 891.064 247.419 891.297 247.516C891.53 247.612 891.786 247.637 892.033 247.588C892.279 247.539 892.506 247.418 892.684 247.24C892.862 247.062 892.984 246.835 893.033 246.588C893.082 246.341 893.057 246.086 892.96 245.853C892.864 245.621 892.701 245.422 892.491 245.282C892.282 245.142 892.036 245.068 891.784 245.068C891.446 245.068 891.123 245.202 890.884 245.44C890.645 245.679 890.511 246.003 890.511 246.34Z" fill="#703521"/>
<path d="M885.309 223.406C885.309 223.661 885.385 223.911 885.528 224.123C885.67 224.335 885.872 224.5 886.109 224.597C886.345 224.694 886.605 224.719 886.855 224.668C887.106 224.617 887.335 224.493 887.515 224.311C887.695 224.129 887.816 223.898 887.864 223.647C887.912 223.397 887.884 223.137 887.784 222.902C887.684 222.667 887.517 222.467 887.303 222.327C887.089 222.188 886.838 222.115 886.583 222.118C886.414 222.118 886.247 222.151 886.092 222.216C885.936 222.281 885.795 222.376 885.677 222.496C885.558 222.616 885.465 222.758 885.402 222.914C885.339 223.07 885.307 223.237 885.309 223.406Z" fill="#703521"/>
<path d="M856.398 78.7403C862.091 76.4725 868.437 76.4725 874.13 78.7403" stroke="#703521" stroke-width="0.48" stroke-linecap="round" stroke-linejoin="round"/>
<path d="M814.693 496.289H819.522" stroke="#703521" stroke-width="0.48" stroke-linecap="round" stroke-linejoin="round"/>
<path d="M815.407 500.447L819.708 500.277" stroke="#703521" stroke-width="0.48" stroke-linecap="round" stroke-linejoin="round"/>
<path d="M816.463 504.171H820.407" stroke="#703521" stroke-width="0.48" stroke-linecap="round" stroke-linejoin="round"/>
<path d="M902.544 497.577L906.783 495.234" stroke="#703521" stroke-width="0.48" stroke-linecap="round" stroke-linejoin="round"/>
<path d="M905.184 500.866L908.863 498.632" stroke="#703521" stroke-width="0.48" stroke-linecap="round" stroke-linejoin="round"/>
<path d="M907.917 503.613L911.364 501.689" stroke="#703521" stroke-width="0.48" stroke-linecap="round" stroke-linejoin="round"/>
</svg>
