<svg width="354" height="144" viewBox="0 0 354 144" fill="none" xmlns="http://www.w3.org/2000/svg">
<path d="M71.2256 0C71.2256 0 82.6703 27.9987 33.6203 46.8053C6.96761 57.0215 -13.5032 83.2064 10.9389 123.656C12.9631 105.576 21.6428 65.7112 58.9649 56.6144C58.9649 56.6144 24.2277 69.6036 21.1592 128.4C39.0086 130.906 80.8707 132.59 93.2994 96.2622C109.712 48.2647 71.2256 0 71.2256 0Z" fill="#3A7F0D"/>
<path d="M21.1754 128.156C59.0682 113.033 86.6398 77.6056 90.4451 35.3141C82.6985 14.4182 71.2255 0 71.2255 0C71.2255 0 82.6703 27.9987 33.6203 46.8053C6.96761 57.0215 -13.5032 83.2064 10.9389 123.656C12.9631 105.576 21.6428 65.7111 58.9649 56.6144C58.9628 56.6147 24.329 69.5715 21.1754 128.156Z" fill="#49A010"/>
<path d="M107.498 89.4153C103.998 85.6188 99.195 83.5278 93.9733 83.5278C90.0701 83.5278 86.4955 84.7619 83.3486 87.1954C81.7607 88.4237 80.3219 89.9265 79.0534 91.6806C77.7853 89.9271 76.346 88.4237 74.7576 87.1954C71.6112 84.7619 68.0367 83.5278 64.1335 83.5278C58.9117 83.5278 54.1083 85.6188 50.608 89.4153C47.1495 93.1674 45.2444 98.2934 45.2444 103.85C45.2444 109.568 47.3755 114.803 51.9509 120.324C56.0439 125.263 61.9265 130.277 68.7388 136.082C71.0649 138.065 73.7016 140.312 76.4394 142.706C77.1627 143.339 78.0907 143.688 79.0534 143.688C80.0155 143.688 80.9441 143.339 81.6663 142.707C84.4041 140.312 87.0424 138.064 89.3695 136.08C96.1807 130.276 102.063 125.263 106.156 120.324C110.732 114.803 112.862 109.568 112.862 103.849C112.862 98.2934 110.957 93.1674 107.498 89.4153Z" fill="#FF2222"/>
<rect x="75.5847" y="101.427" width="6.93755" height="23.8652" fill="#F1FFF3"/>
<rect x="67.1208" y="116.828" width="6.93755" height="23.8652" transform="rotate(-90 67.1208 116.828)" fill="#F1FFF3"/>
<path d="M170.954 74.3442V116.228H160.752V91.1094L151.385 116.228H143.151L133.724 91.0498V116.228H123.522V74.3442H135.574L147.328 103.34L158.962 74.3442H170.954ZM209.673 99.0446C209.673 99.9992 209.614 100.994 209.495 102.028H186.405C186.564 104.096 187.22 105.687 188.374 106.801C189.567 107.875 191.019 108.412 192.729 108.412C195.275 108.412 197.045 107.338 198.039 105.19H208.898C208.341 107.378 207.327 109.346 205.855 111.097C204.423 112.847 202.613 114.219 200.426 115.213C198.238 116.208 195.792 116.705 193.087 116.705C189.826 116.705 186.922 116.009 184.376 114.617C181.831 113.225 179.842 111.236 178.41 108.65C176.978 106.065 176.262 103.042 176.262 99.5816C176.262 96.1211 176.958 93.0982 178.35 90.5128C179.782 87.9274 181.771 85.9387 184.317 84.5465C186.862 83.1544 189.786 82.4583 193.087 82.4583C196.309 82.4583 199.173 83.1345 201.679 84.4869C204.185 85.8392 206.133 87.7683 207.526 90.2742C208.958 92.78 209.673 95.7035 209.673 99.0446ZM199.232 96.3598C199.232 94.6097 198.636 93.2175 197.443 92.1834C196.249 91.1492 194.758 90.6321 192.968 90.6321C191.258 90.6321 189.806 91.1293 188.612 92.1237C187.459 93.1181 186.743 94.5301 186.465 96.3598H199.232ZM235.341 82.5777C239.239 82.5777 242.342 83.8505 244.649 86.3961C246.995 88.9019 248.169 92.3624 248.169 96.7774V116.228H238.026V98.1497C238.026 95.9223 237.449 94.192 236.296 92.959C235.142 91.726 233.591 91.1094 231.642 91.1094C229.693 91.1094 228.142 91.726 226.988 92.959C225.835 94.192 225.258 95.9223 225.258 98.1497V116.228H215.056V82.9356H225.258V87.3507C226.292 85.879 227.684 84.7255 229.435 83.8902C231.185 83.0152 233.153 82.5777 235.341 82.5777ZM273.813 107.576V116.228H268.623C264.924 116.228 262.04 115.333 259.972 113.543C257.903 111.713 256.869 108.75 256.869 104.653V91.4078H252.812V82.9356H256.869V74.8215H267.072V82.9356H273.754V91.4078H267.072V104.772C267.072 105.767 267.31 106.483 267.788 106.92C268.265 107.358 269.06 107.576 270.174 107.576H273.813ZM299.961 82.5777C303.779 82.5777 306.842 83.8505 309.149 86.3961C311.456 88.9019 312.609 92.3624 312.609 96.7774V116.228H302.467V98.1497C302.467 95.9223 301.89 94.192 300.736 92.959C299.583 91.726 298.032 91.1094 296.083 91.1094C294.134 91.1094 292.582 91.726 291.429 92.959C290.275 94.192 289.699 95.9223 289.699 98.1497V116.228H279.496V72.077H289.699V87.4103C290.733 85.9387 292.145 84.7653 293.935 83.8902C295.725 83.0152 297.733 82.5777 299.961 82.5777ZM353.707 82.9356L332.825 132.038H321.847L329.484 115.094L315.94 82.9356H327.336L335.032 103.758L342.669 82.9356H353.707Z" fill="#8AAB8F"/>
</svg>
