<svg width="613" height="514" viewBox="0 0 613 514" fill="none" xmlns="http://www.w3.org/2000/svg">
<rect x="157.5" y="13.5" width="340" height="479" fill="#D3E8D6" stroke="black"/>
<path d="M328 15.5V514" stroke="black"/>
<path d="M157 102L498 102" stroke="black"/>
<path d="M157 252L498 252" stroke="black"/>
<path d="M157 402L498 402" stroke="black"/>
<rect x="146" y="492" width="363" height="22" fill="#8AAB8F"/>
<path d="M252.378 483.187L253.886 476L260.72 479.481C260.194 481.609 260.645 484.293 260.72 487.024C261.678 489.821 259.934 497.248 259.143 498.048C256.511 499.772 251.861 496.455 246.527 496.887C241.27 498.628 225.509 500.325 226.026 497.467C225.51 494.797 232.743 492.032 234.963 491.085C236.134 490.585 245.661 485.398 252.378 483.187Z" fill="#FF9B7E"/>
<path d="M259.378 490.187L260.886 483L267.72 486.481C267.194 488.609 267.645 491.293 267.72 494.024C268.678 496.821 266.791 504.7 266 505.5C263.368 507.225 259.834 505.068 254.5 505.5C249.243 507.241 232.509 507.325 233.026 504.467C232.51 501.797 239.743 499.032 241.963 498.085C243.134 497.585 252.661 492.398 259.378 490.187Z" fill="#FFA288"/>
<path d="M248.413 381.259C240.205 419.282 245.963 443.32 245.963 481.642C245.963 481.642 249.507 485.955 252.496 486.9C256.241 488.085 260.988 486.9 262.295 484.988C263.928 482.598 294.142 400.858 294.551 399.902C294.959 398.946 297.409 410.895 298.634 413.285C303.86 440.437 319.866 483.744 330.481 492.636C344.834 504.659 346.732 506.692 372.537 505.545C398.341 504.398 411.597 470.649 415 453.919C410.509 448.342 400.301 434.798 400.301 434.798C400.301 434.798 355.388 346.842 335.789 318.639C322.17 299.04 313.64 289.653 296.592 293.782C286.371 296.257 281.972 302.884 274.544 311.468C256.453 332.375 254.641 352.408 248.413 381.259Z" fill="#3AA08C"/>
<rect x="314" y="238.144" width="63" height="58" fill="#2C2C2C"/>
<rect x="353.224" y="256.447" width="13.8112" height="14.6388" transform="rotate(-47.2327 353.224 256.447)" fill="#FF9172"/>
<path d="M434.5 351.408C434.5 369.008 431.333 433.075 428 451.908C424 453.908 413.3 458.108 402.5 458.908C389 459.908 366.5 432.908 355.5 429.408C346.7 426.608 307.536 387.452 306 351.408C305.089 330.02 320 298.408 320 298.408C320 298.408 328 268.908 365 253.908C381.5 244.908 406.425 258.845 420.5 281.824C437.287 309.231 434.5 329.408 434.5 351.408Z" fill="#FFE8D8"/>
<path d="M359 286.304C357 288.304 346.833 306.137 342 314.804C343.833 315.471 348.3 316.404 351.5 314.804C355.5 312.804 359 307.804 364 301.304C369 294.804 373 286.304 373.5 284.304C374 282.304 374.5 272.804 372 274.304C369.5 275.804 361.5 283.804 359 286.304Z" fill="black" fill-opacity="0.1"/>
<path d="M263.128 381.317C254.06 421.78 259.897 452.588 256.238 485.592C256.238 485.592 259.767 489.908 262.743 490.854C266.472 492.04 271.199 490.854 272.5 488.941C274.126 486.549 308.66 400.928 309.067 399.971C309.474 399.015 311.1 407.146 312.319 409.538C317.523 436.707 320.348 469.005 344.03 488.941C358.32 500.971 361.023 506.83 386.716 505.682C412.41 504.534 427.997 453.144 427.997 453.144L414.361 434.889C414.361 434.889 369.642 346.877 350.128 318.655C336.567 299.044 328.074 289.651 311.1 293.782C300.922 296.259 296.543 302.89 289.146 311.48C271.133 332.401 269.581 352.52 263.128 381.317Z" fill="#41B29C"/>
<path d="M409.5 323.324C425.5 307.324 420.5 286.324 416 277.824L415 274.324C417.5 277.157 420.196 281.52 422.5 285.824C429.69 299.25 425.361 308.961 422.5 323.324C417.272 349.57 397 369.824 386 381.324L372 355.824C382.667 346.657 405.1 327.324 409.5 323.324Z" fill="black" fill-opacity="0.1"/>
<path d="M277.5 337.144C277.5 337.144 265.654 361.602 259.5 354.144C256.124 350.053 257.554 346.43 258 341.144C258.889 330.614 271.5 313.144 270.5 316.644C269.7 319.444 275 331.478 277.5 337.144Z" fill="#FFA288"/>
<path d="M353.569 222.659C365.554 233.887 368.15 250.59 359.366 259.965C354.357 265.312 344.598 271.211 336.743 269.695C330.826 268.553 325.325 258.466 320.175 253.641C308.19 242.412 307.181 228.678 315.964 219.303C324.747 209.928 341.584 211.43 353.569 222.659Z" fill="#FFA288"/>
<path d="M316.999 230.644L316.999 239.144C316.999 239.144 318.75 244.14 314.695 245.182C313.355 245.526 324.5 291.644 316 294.144C314.252 293.756 300.968 264.802 296.549 246.644C294.42 237.893 296.637 230.691 296.55 226.051C296.404 218.305 314.695 212.644 314.695 212.644C314.695 212.644 320.104 204.427 326.999 201.144C335.988 196.864 345.711 195.005 351.499 196.644C371.526 202.317 379.353 215.146 390.499 228.644C402.714 243.439 412.5 270.144 412.5 270.144C412.5 270.144 401.008 258.373 390.5 254.144C382 250.144 374.5 251.144 374.5 251.144C374.5 251.144 370.87 247.564 364.999 242.644C359.2 237.785 350.999 242.351 339.999 241.644C329.892 240.995 316.999 230.644 316.999 230.644Z" fill="#4A4A4A"/>
<path d="M371.5 272.243C364.7 279.443 340.5 331.243 340.5 331.243C340.5 331.243 337.378 334.853 335 336.743C324.494 345.093 311 344.824 311 344.824C311 344.824 287.167 345.909 278 336.743C272 341.409 260 351.543 260 354.743C267.5 369.743 303.475 380.198 332.5 375.324C352.049 372.041 362.602 365.308 378 352.824C402.608 332.872 431.587 311.897 419 282.824C415.183 274.007 412.741 267.312 404 263.324C392.026 257.86 380 263.243 371.5 272.243Z" fill="#FFE8D8"/>
<path d="M260.5 1H508V262.5" stroke="black"/>
<path d="M147 236V443" stroke="black"/>
<path d="M0 131H70V102H0" stroke="black"/>
<path d="M99 152.5V131H27V160H79" stroke="black"/>
<path d="M540 420.5V399H612V428H560" stroke="black"/>
<rect x="63.5" y="447.5" width="71" height="28" stroke="black"/>
</svg>
