<svg width="640" height="570" viewBox="0 0 640 570" fill="none" xmlns="http://www.w3.org/2000/svg">
<rect x="280" y="138" width="72" height="39" fill="#FFB336"/>
<path d="M0 293C0 237.772 44.7715 193 100 193H640V570H0V293Z" fill="#D3E8D6"/>
<mask id="mask0" mask-type="alpha" maskUnits="userSpaceOnUse" x="0" y="193" width="640" height="377">
<path d="M0 293C0 237.772 44.7715 193 100 193H640V570H0V293Z" fill="#D3E8D6"/>
</mask>
<g mask="url(#mask0)">
<path d="M39.5858 528.892C39.5858 528.892 29.2795 528.501 28.2473 507.685C27.2151 486.869 45.4506 481.302 59.3852 483.851C59.3852 483.851 57.3522 469.04 66.4073 469.572C75.4625 470.104 74.8526 480.019 74.8526 480.019C74.8526 480.019 77.9804 459 90.3199 459C102.659 459 90.3199 483.851 90.3199 483.851C90.3199 483.851 107.445 477.799 113.779 483.851C120.113 489.903 105.959 497.035 105.959 497.035C105.959 497.035 128.167 502.368 118.877 519.337C118.877 519.337 134.345 521.12 138.677 528.72C138.677 528.72 137.441 513.394 143.009 514.41C148.577 515.427 147.341 528.892 147.341 528.892C147.341 528.892 156.615 514.113 164.669 519.337C172.724 524.56 160.807 537.134 160.807 537.134C160.807 537.134 176.274 531.582 178.761 538.933C181.247 546.283 170.096 549.005 170.096 549.005C170.096 549.005 186.174 546.268 186.174 559.874C186.174 559.874 217.108 557.7 224.537 569.93H40.2114L39.5858 528.892Z" fill="#00BA67"/>
<path opacity="0.4" d="M39.5858 528.892C39.5858 528.892 29.2795 528.501 28.2473 507.685C27.2151 486.869 45.4506 481.302 59.3852 483.851C59.3852 483.851 57.3522 469.04 66.4073 469.572C75.4625 470.104 74.8526 480.019 74.8526 480.019C74.8526 480.019 77.9804 459 90.3199 459C102.659 459 90.3199 483.851 90.3199 483.851C90.3199 483.851 107.445 477.799 113.779 483.851C120.113 489.903 105.959 497.035 105.959 497.035C105.959 497.035 128.167 502.368 118.877 519.337C118.877 519.337 134.345 521.12 138.677 528.72C138.677 528.72 137.441 513.394 143.009 514.41C148.577 515.427 147.341 528.892 147.341 528.892C147.341 528.892 156.615 514.113 164.669 519.337C172.724 524.56 160.807 537.134 160.807 537.134C160.807 537.134 176.274 531.582 178.761 538.933C181.247 546.283 170.096 549.005 170.096 549.005C170.096 549.005 186.174 546.268 186.174 559.874C186.174 559.874 217.108 557.7 224.537 569.93H40.2114L39.5858 528.892Z" fill="white"/>
<path d="M617.625 529.02C617.625 529.02 627.802 528.634 628.821 508.08C629.84 487.526 611.834 482.028 598.075 484.545C598.075 484.545 600.082 469.921 591.141 470.446C582.199 470.971 582.802 480.762 582.802 480.762C582.802 480.762 579.713 460.007 567.529 460.007C555.345 460.007 567.529 484.545 567.529 484.545C567.529 484.545 550.619 478.569 544.365 484.545C538.111 490.522 552.086 497.563 552.086 497.563C552.086 497.563 530.158 502.829 539.331 519.585C539.331 519.585 524.058 521.345 519.78 528.85C519.78 528.85 521 513.716 515.503 514.72C510.005 515.724 511.225 529.02 511.225 529.02C511.225 529.02 502.068 514.427 494.115 519.585C486.162 524.742 497.929 537.158 497.929 537.158C497.929 537.158 482.656 531.676 480.201 538.934C477.745 546.192 488.756 548.879 488.756 548.879C488.756 548.879 472.881 546.177 472.881 559.612C472.881 559.612 442.335 557.465 435 569.542H617.007L617.625 529.02Z" fill="#00BA67"/>
<path opacity="0.4" d="M617.625 529.02C617.625 529.02 627.802 528.634 628.821 508.08C629.84 487.526 611.834 482.028 598.075 484.545C598.075 484.545 600.082 469.921 591.141 470.446C582.199 470.971 582.802 480.762 582.802 480.762C582.802 480.762 579.713 460.007 567.529 460.007C555.345 460.007 567.529 484.545 567.529 484.545C567.529 484.545 550.619 478.569 544.365 484.545C538.111 490.522 552.086 497.563 552.086 497.563C552.086 497.563 530.158 502.829 539.331 519.585C539.331 519.585 524.058 521.345 519.78 528.85C519.78 528.85 521 513.716 515.503 514.72C510.005 515.724 511.225 529.02 511.225 529.02C511.225 529.02 502.068 514.427 494.115 519.585C486.162 524.742 497.929 537.158 497.929 537.158C497.929 537.158 482.656 531.676 480.201 538.934C477.745 546.192 488.756 548.879 488.756 548.879C488.756 548.879 472.881 546.177 472.881 559.612C472.881 559.612 442.335 557.465 435 569.542H617.007L617.625 529.02Z" fill="white"/>
<path d="M661.621 521.129C661.621 521.129 646.178 463.311 613.965 424.103C609.085 418.157 607.248 425.77 613.965 435.098C620.683 444.425 640.218 506.613 640.218 506.613C640.218 506.613 623.725 474.492 599.295 451.204C574.864 427.917 568.749 430.341 567.529 432.488C566.309 434.634 608.452 474.476 623.725 516.264C623.725 516.264 585.242 484.035 560.796 478.584C536.35 473.133 580.964 487.757 611.201 527.785C611.201 527.785 583.975 512.913 553.754 521.129C523.533 529.344 573.305 518.272 607.68 542.131C607.68 542.131 577.906 537.791 566.294 550.362C554.681 562.932 578.648 546.439 603.001 559.272C603.001 559.272 579.126 562.083 569.351 569.541H649.993L661.621 521.129Z" fill="#00BA67"/>
<path opacity="0.6" d="M661.621 521.129C661.621 521.129 646.178 463.311 613.965 424.103C609.085 418.157 607.248 425.77 613.965 435.098C620.683 444.425 640.218 506.613 640.218 506.613C640.218 506.613 623.725 474.492 599.295 451.204C574.864 427.917 568.749 430.341 567.529 432.488C566.309 434.634 608.452 474.476 623.725 516.264C623.725 516.264 585.242 484.035 560.796 478.584C536.35 473.133 580.964 487.757 611.201 527.785C611.201 527.785 583.975 512.913 553.754 521.129C523.533 529.344 573.305 518.272 607.68 542.131C607.68 542.131 577.906 537.791 566.294 550.362C554.681 562.932 578.648 546.439 603.001 559.272C603.001 559.272 579.126 562.083 569.351 569.541H649.993L661.621 521.129Z" fill="white"/>
<path d="M57.4333 485.346C57.4333 485.346 68.235 467.358 67.0348 463.639C65.8346 459.92 60.2634 473.122 60.2634 473.122C60.2634 473.122 63.3305 442.272 58.4557 440.213C53.5808 438.153 54.9588 466.647 54.9588 466.647C54.9588 466.647 47.2094 424.018 39.8453 424.862C32.4812 425.707 48.8393 467.121 48.8393 467.121C48.8393 467.121 38.5562 447.858 33.711 450.303C28.8658 452.748 44.9424 472.144 44.9424 472.144C44.9424 472.144 36.6893 466.602 35.5187 469.625C34.3481 472.648 47.6984 483.553 57.4333 485.346Z" fill="#00BA67"/>
<path opacity="0.2" d="M57.4333 485.346C57.4333 485.346 68.235 467.358 67.0348 463.639C65.8346 459.92 60.2634 473.122 60.2634 473.122C60.2634 473.122 63.3305 442.272 58.4557 440.213C53.5808 438.153 54.9588 466.647 54.9588 466.647C54.9588 466.647 47.2094 424.018 39.8453 424.862C32.4812 425.707 48.8393 467.121 48.8393 467.121C48.8393 467.121 38.5562 447.858 33.711 450.303C28.8658 452.748 44.9424 472.144 44.9424 472.144C44.9424 472.144 36.6893 466.602 35.5187 469.625C34.3481 472.648 47.6984 483.553 57.4333 485.346Z" fill="white"/>
<path d="M61.5377 483.775C61.5377 483.775 78.5033 487.035 81.0371 485.064C83.5708 483.093 71.806 482.501 71.806 482.501C71.806 482.501 96.521 476.174 96.7284 471.818C96.9359 467.461 75.3028 476.574 75.3028 476.574C75.3028 476.574 106.078 458.541 103.352 453.074C100.625 447.606 73.184 471.995 73.184 471.995C73.184 471.995 85.1562 458.66 81.9113 455.534C78.6663 452.407 68.1906 470.351 68.1906 470.351C68.1906 470.351 70.1465 462.394 67.4794 462.349C64.8123 462.305 60.1893 475.744 61.5377 483.775Z" fill="#00BA67"/>
<path opacity="0.2" d="M61.5377 483.775C61.5377 483.775 78.5033 487.035 81.0371 485.064C83.5708 483.093 71.806 482.501 71.806 482.501C71.806 482.501 96.521 476.174 96.7284 471.818C96.9359 467.461 75.3028 476.574 75.3028 476.574C75.3028 476.574 106.078 458.541 103.352 453.074C100.625 447.606 73.184 471.995 73.184 471.995C73.184 471.995 85.1562 458.66 81.9113 455.534C78.6663 452.407 68.1906 470.351 68.1906 470.351C68.1906 470.351 70.1465 462.394 67.4794 462.349C64.8123 462.305 60.1893 475.744 61.5377 483.775Z" fill="white"/>
<path d="M63.5527 482.131C63.5527 482.131 84.7413 472.722 86.0748 468.602C87.4083 464.483 73.9099 472.87 73.9099 472.87C73.9099 472.87 96.3579 446.91 93.2611 441.932C90.1643 436.953 73.2283 463.639 73.2283 463.639C73.2283 463.639 93.4093 420.106 86.2082 416.224C79.007 412.342 67.3755 460.26 67.3755 460.26C67.3755 460.26 70.339 436.271 64.4121 435.382C58.4852 434.493 60.6486 462.32 60.6486 462.32C60.6486 462.32 56.7072 452.037 53.7289 454.022C50.7507 456.008 55.8922 474.292 63.5527 482.131Z" fill="#00BA67"/>
<path opacity="0.4" d="M63.5527 482.131C63.5527 482.131 84.7413 472.722 86.0748 468.602C87.4083 464.483 73.9099 472.87 73.9099 472.87C73.9099 472.87 96.3579 446.91 93.2611 441.932C90.1643 436.953 73.2283 463.639 73.2283 463.639C73.2283 463.639 93.4093 420.106 86.2082 416.224C79.007 412.342 67.3755 460.26 67.3755 460.26C67.3755 460.26 70.339 436.271 64.4121 435.382C58.4852 434.493 60.6486 462.32 60.6486 462.32C60.6486 462.32 56.7072 452.037 53.7289 454.022C50.7507 456.008 55.8922 474.292 63.5527 482.131Z" fill="white"/>
<path d="M69.9241 530.835C69.9241 530.835 77.1401 530.464 77.8513 510.743C78.5625 491.021 65.8642 485.746 56.0997 488.161C56.0997 488.161 57.5814 474.129 51.1804 474.633C44.7794 475.137 45.2535 484.531 45.2535 484.531C45.2535 484.531 43.0902 464.617 34.437 464.617C25.7838 464.617 34.437 488.161 34.437 488.161C34.437 488.161 22.4795 482.427 18.1381 488.161C13.7967 493.895 23.6353 500.652 23.6353 500.652C23.6353 500.652 8.12168 505.705 14.6116 521.781C14.6116 521.781 3.79508 523.471 0.772373 530.672C0.772373 530.672 1.63177 516.151 -2.19106 517.114C-6.01389 518.077 -5.15449 530.835 -5.15449 530.835C-5.15449 530.835 -11.6444 516.832 -17.2749 521.781C-22.9055 526.73 -14.6671 538.599 -14.6671 538.599C-14.6671 538.599 -25.4836 533.339 -27.2173 540.303C-28.9509 547.267 -21.157 549.845 -21.157 549.845C-21.157 549.845 -32.4033 547.252 -32.4033 560.143C-32.4033 560.143 -54.0215 558.083 -59.2075 569.67H69.7018L69.9241 530.835Z" fill="#00BA67"/>
<path opacity="0.4" d="M69.9241 530.835C69.9241 530.835 77.1401 530.464 77.8513 510.743C78.5625 491.021 65.8642 485.746 56.0997 488.161C56.0997 488.161 57.5814 474.129 51.1804 474.633C44.7794 475.137 45.2535 484.531 45.2535 484.531C45.2535 484.531 43.0902 464.617 34.437 464.617C25.7838 464.617 34.437 488.161 34.437 488.161C34.437 488.161 22.4795 482.427 18.1381 488.161C13.7967 493.895 23.6353 500.652 23.6353 500.652C23.6353 500.652 8.12168 505.705 14.6116 521.781C14.6116 521.781 3.79508 523.471 0.772373 530.672C0.772373 530.672 1.63177 516.151 -2.19106 517.114C-6.01389 518.077 -5.15449 530.835 -5.15449 530.835C-5.15449 530.835 -11.6444 516.832 -17.2749 521.781C-22.9055 526.73 -14.6671 538.599 -14.6671 538.599C-14.6671 538.599 -25.4836 533.339 -27.2173 540.303C-28.9509 547.267 -21.157 549.845 -21.157 549.845C-21.157 549.845 -32.4033 547.252 -32.4033 560.143C-32.4033 560.143 -54.0215 558.083 -59.2075 569.67H69.7018L69.9241 530.835Z" fill="white"/>
<path d="M67.6273 566.396C67.6273 566.396 97.5135 547.03 91.8386 543.755C86.1636 540.48 66.2493 559.832 66.2493 559.832C66.2493 559.832 88.2676 527.604 82.8149 521.159C77.3622 514.713 62.7228 547.4 62.7228 547.4C62.7228 547.4 72.6948 510.002 65.6863 505.912C58.6777 501.822 56.0996 543.399 56.0996 543.399C56.0996 543.399 53.3584 498.355 40.4674 498.948C27.5765 499.541 46.3943 543.399 46.3943 543.399C46.3943 543.399 28.2137 517.336 21.7682 524.73C15.3227 532.124 42.29 552.882 42.29 552.882C42.29 552.882 22.1238 543.399 20.7754 550.438C19.4271 557.476 43.0012 564.944 43.0012 564.944C43.0012 564.944 35.4148 567.122 33.6664 569.67H74.0135C74.0135 569.67 74.5914 567.774 67.6273 566.396Z" fill="#00BA67"/>
<path opacity="0.6" d="M67.6273 566.396C67.6273 566.396 97.5135 547.03 91.8386 543.755C86.1636 540.48 66.2493 559.832 66.2493 559.832C66.2493 559.832 88.2676 527.604 82.8149 521.159C77.3622 514.713 62.7228 547.4 62.7228 547.4C62.7228 547.4 72.6948 510.002 65.6863 505.912C58.6777 501.822 56.0996 543.399 56.0996 543.399C56.0996 543.399 53.3584 498.355 40.4674 498.948C27.5765 499.541 46.3943 543.399 46.3943 543.399C46.3943 543.399 28.2137 517.336 21.7682 524.73C15.3227 532.124 42.29 552.882 42.29 552.882C42.29 552.882 22.1238 543.399 20.7754 550.438C19.4271 557.476 43.0012 564.944 43.0012 564.944C43.0012 564.944 35.4148 567.122 33.6664 569.67H74.0135C74.0135 569.67 74.5914 567.774 67.6273 566.396Z" fill="white"/>
</g>
<path d="M481.638 368.749C503.501 357.068 515.343 342.707 523.112 319.277C524.951 313.712 525.948 306.72 521.668 302.718C517.062 298.424 509.637 300.502 504.034 303.474C493.822 308.967 484.935 316.623 477.994 325.908C469.108 337.812 461.666 353.598 447.057 356.209C445.734 356.554 444.334 356.439 443.086 355.883C439.494 353.907 441.814 348.513 444.083 345.095C448.25 338.825 450.931 331.687 451.921 324.224C452.199 322.886 452.11 321.497 451.663 320.205C451.19 319.341 450.52 318.6 449.708 318.042C448.896 317.484 447.964 317.125 446.988 316.993C439.992 315.481 433.238 319.844 427.583 324.345C413.386 335.819 393.655 354.852 383.875 370.26" fill="#00BA67"/>
<path d="M336.781 238.972C357.076 232.736 374.932 220.353 387.88 203.534C393.981 195.564 399.017 186.357 399.653 176.274C399.997 170.656 397.831 163.751 392.28 162.72C388.275 161.982 384.528 164.73 381.469 167.427C359.751 186.714 343.741 211.585 335.182 239.333" fill="#00BA67"/>
<path d="M454.74 265.529C465.052 263.416 475.606 261.217 485.025 256.407C494.443 251.597 502.865 243.782 505.925 233.681C507.162 229.679 507.454 225.092 505.031 221.657C501.989 217.362 495.853 216.589 490.628 217.328C479.481 219.185 469.452 225.194 462.56 234.145C455.758 243.087 451.356 253.618 449.773 264.738" fill="#00BA67"/>
<path d="M438.48 271.781C441.408 266.067 443.503 259.965 444.702 253.659C446.421 245.07 447.091 235.536 441.987 228.511C441.3 227.4 440.372 226.459 439.271 225.757C438.169 225.055 436.924 224.611 435.627 224.457C434.053 224.487 432.516 224.938 431.176 225.762C428.386 227.339 426.023 229.57 424.289 232.264C422.555 234.957 421.503 238.032 421.224 241.222C420.725 247.063 422.943 252.834 425.83 257.902C428.718 262.969 432.447 267.573 435.421 272.623" fill="#00BA67"/>
<path d="M422.926 287.567C429.466 285.797 436.18 284.743 442.949 284.424C449.765 284.126 456.493 286.055 462.114 289.921C463.187 290.576 463.973 291.613 464.314 292.824C464.363 293.424 464.291 294.029 464.102 294.601C463.913 295.174 463.611 295.703 463.214 296.156C461.868 297.788 460.174 299.098 458.256 299.99C456.337 300.882 454.243 301.333 452.128 301.309C447.915 301.235 443.757 300.336 439.89 298.664C434.579 296.603 429.165 293.786 426.277 288.873" fill="#00BA67"/>
<path d="M399.103 305.054C401.444 299.051 403.054 292.787 403.898 286.399C404.725 279.949 403.213 273.417 399.636 267.985C399.205 267.271 398.553 266.716 397.78 266.405C397.289 266.302 396.783 266.3 396.292 266.401C395.802 266.501 395.337 266.701 394.926 266.989C391.458 269.284 388.999 272.818 388.051 276.866C386.683 281.865 386.633 287.133 387.907 292.158C389.181 297.182 391.736 301.791 395.322 305.535" fill="#00BA67"/>
<path d="M491.143 229.559C487.981 242.51 475.159 250.481 465.138 257.936C454.018 266.233 442.674 274.22 431.365 282.259C409.021 298.235 386.556 314.536 366.997 333.998C355.981 344.844 346.183 356.859 337.778 369.831C336.953 371.119 334.873 369.934 335.715 368.629C350.29 345.851 369.678 326.767 390.596 309.812C411.857 292.635 434.63 277.329 456.734 261.2C462.938 256.682 469.178 252.164 475.142 247.32C481.106 242.476 486.967 236.704 488.892 228.923C488.98 228.62 489.184 228.365 489.46 228.211C489.735 228.057 490.06 228.018 490.364 228.101C490.669 228.185 490.928 228.384 491.086 228.657C491.245 228.929 491.29 229.253 491.212 229.559H491.143Z" fill="#00BA67"/>
<g style="mix-blend-mode:overlay">
<g style="mix-blend-mode:overlay">
<path d="M446.026 341.78C444.795 337.564 442.589 333.697 439.585 330.492C436.581 327.287 432.864 324.834 428.735 323.331C434.114 319.277 440.44 315.498 446.971 316.89C447.947 317.029 448.878 317.393 449.689 317.954C450.501 318.514 451.171 319.255 451.646 320.119C452.093 321.411 452.182 322.8 451.904 324.139C451.078 330.338 449.084 336.324 446.026 341.78Z" fill="#00BA67"/>
</g>
<g style="mix-blend-mode:overlay">
<path d="M482.618 360.504C490.914 351.463 498.247 341.584 504.498 331.027C508.451 324.036 512.8 315 510.101 306.807C509.533 304.983 508.59 303.298 507.334 301.859C512.284 299.867 517.922 299.145 521.668 302.632C525.948 306.635 524.951 313.626 523.112 319.192C515.343 342.708 503.501 357.068 481.638 368.749L475.193 368.852C477.771 366.086 480.229 363.218 482.618 360.504Z" fill="#00BA67"/>
</g>
<g style="mix-blend-mode:overlay">
<path d="M349.053 212.776C346.475 216.555 343.691 220.18 340.872 223.77C345.838 212.106 352.186 201.08 359.778 190.926C360.895 196.664 351.133 209.77 349.053 212.776Z" fill="#00BA67"/>
</g>
<g style="mix-blend-mode:overlay">
<path d="M387.227 192.163C388.085 188.062 387.688 183.798 386.088 179.925C384.487 176.053 381.758 172.751 378.255 170.45C379.32 169.454 380.386 168.458 381.469 167.496C384.528 164.799 388.344 162.051 392.28 162.789C397.832 163.82 399.997 170.725 399.653 176.342C399.017 186.374 393.982 195.633 387.88 203.603C384.738 207.673 381.29 211.497 377.567 215.044C382.317 208.156 385.604 200.369 387.227 192.163Z" fill="#00BA67"/>
</g>
<g style="mix-blend-mode:overlay">
<path d="M461.512 263.57C476.637 259.259 492.037 241.755 495.457 226.553C496.161 223.462 496.376 220.279 496.093 217.122C497.816 217.183 499.506 217.613 501.048 218.384C502.59 219.155 503.948 220.247 505.031 221.588C507.454 225.024 507.162 229.679 505.924 233.613C502.865 243.782 494.443 251.598 485.024 256.407C475.605 261.217 465.052 263.416 454.74 265.529L449.772 264.67C449.772 264.154 449.979 263.656 450.065 263.141C453.715 264.605 457.761 264.757 461.512 263.57Z" fill="#00BA67"/>
</g>
<g style="mix-blend-mode:overlay">
<path d="M421.224 241.154C421.503 237.963 422.555 234.889 424.289 232.195C426.023 229.502 428.386 227.27 431.175 225.694C431.73 225.397 432.304 225.139 432.894 224.921C428.821 236.447 426.638 249.244 433.324 259.946C434.168 261.428 435.486 262.583 437.067 263.225C438.648 263.867 440.399 263.958 442.038 263.485C441.096 266.321 439.917 269.073 438.515 271.713L435.455 272.486C432.482 267.435 428.786 262.849 425.864 257.764C422.943 252.68 420.725 246.994 421.224 241.154Z" fill="#00BA67"/>
</g>
<g style="mix-blend-mode:overlay">
<path d="M453.434 294.112C455.674 292.473 457.499 290.331 458.762 287.859C459.931 288.458 461.052 289.147 462.113 289.921C463.187 290.576 463.973 291.613 464.313 292.824C464.363 293.425 464.291 294.029 464.102 294.602C463.913 295.174 463.611 295.703 463.213 296.156C461.868 297.788 460.174 299.098 458.255 299.99C456.337 300.882 454.243 301.333 452.127 301.309C448.556 301.282 445.02 300.601 441.694 299.3C445.964 298.528 449.989 296.749 453.434 294.112Z" fill="#00BA67"/>
</g>
<g style="mix-blend-mode:overlay">
<path d="M398.193 275.182C395.022 274.422 391.709 274.481 388.567 275.354C389.645 271.909 391.895 268.95 394.927 266.989C395.337 266.701 395.802 266.501 396.293 266.401C396.784 266.3 397.29 266.302 397.78 266.405C398.554 266.717 399.205 267.271 399.636 267.985C401.651 270.851 402.996 274.132 403.572 277.587C401.942 276.462 400.118 275.647 398.193 275.182Z" fill="#00BA67"/>
</g>
</g>
<path d="M173.67 368.749C151.807 357.12 139.948 342.708 132.196 319.191C130.34 313.626 129.343 306.635 133.64 302.632C138.246 298.338 145.671 300.416 151.257 303.388C161.472 308.876 170.36 316.533 177.297 325.822C186.183 337.726 193.625 353.512 208.234 356.123C209.557 356.467 210.956 356.352 212.205 355.797C215.78 353.822 213.459 348.428 211.191 345.009C207.036 338.734 204.362 331.598 203.37 324.139C203.086 322.802 203.169 321.413 203.611 320.119C204.088 319.255 204.76 318.514 205.575 317.956C206.39 317.398 207.324 317.039 208.303 316.907C215.298 315.395 222.053 319.758 227.708 324.259C241.905 335.733 261.619 354.766 271.399 370.175" fill="#00BA67"/>
<path d="M294.551 193.365C284.265 187.861 275.942 179.302 270.729 168.87C268.036 164.011 266.84 158.465 267.291 152.929C267.687 149.854 269.595 146.367 272.688 146.402C274.923 146.402 276.659 148.291 278.016 150.078C287.694 162.76 293.709 177.85 295.41 193.709" fill="#00BA67"/>
<path d="M200.552 265.529C190.239 263.416 179.703 261.217 170.284 256.407C160.866 251.597 152.495 243.782 149.367 233.681C148.129 229.679 147.854 225.092 150.278 221.657C153.32 217.362 159.439 216.589 164.664 217.328C175.817 219.181 185.853 225.191 192.749 234.145C199.534 243.068 203.93 253.575 205.519 264.67" fill="#00BA67"/>
<path d="M216.811 271.781C213.92 266.06 211.855 259.959 210.675 253.659C208.956 245.07 208.286 235.536 213.39 228.511C213.866 227.569 214.539 226.741 215.362 226.081C216.185 225.421 217.14 224.944 218.162 224.684C219.185 224.424 220.251 224.385 221.29 224.571C222.329 224.757 223.316 225.163 224.184 225.762C226.973 227.341 229.337 229.573 231.073 232.266C232.81 234.958 233.866 238.032 234.153 241.222C234.634 247.063 232.434 252.834 229.53 257.902C226.625 262.969 222.93 267.573 219.956 272.623" fill="#00BA67"/>
<path d="M232.383 287.567C225.853 285.799 219.151 284.745 212.394 284.424C205.577 284.123 198.849 286.053 193.23 289.921C192.156 290.576 191.37 291.613 191.03 292.824C190.973 293.424 191.04 294.029 191.226 294.602C191.412 295.175 191.714 295.704 192.112 296.156C193.459 297.787 195.153 299.097 197.071 299.988C198.989 300.88 201.083 301.331 203.198 301.309C207.419 301.226 211.583 300.315 215.453 298.63C220.764 296.568 226.178 293.751 229.066 288.838" fill="#00BA67"/>
<path d="M256.205 305.054C253.864 299.051 252.254 292.787 251.41 286.399C250.574 279.949 252.087 273.413 255.672 267.985C256.103 267.271 256.755 266.716 257.529 266.405C258.016 266.301 258.52 266.299 259.008 266.4C259.496 266.5 259.958 266.701 260.364 266.989C263.843 269.274 266.305 272.812 267.24 276.866C268.616 281.863 268.67 287.132 267.399 292.157C266.128 297.182 263.574 301.792 259.986 305.535" fill="#00BA67"/>
<path d="M166.469 228.923C168.187 235.794 172.88 241.068 178.105 245.568C183.33 250.069 188.916 254.071 194.416 258.142C205.502 266.319 216.76 274.203 227.966 282.191C250.052 297.96 272.052 314.176 291.199 333.5C301.888 344.169 311.418 355.938 319.628 368.611C320.453 369.9 318.39 371.102 317.548 369.814C302.715 346.624 282.812 327.351 261.448 310.19C239.808 292.807 216.76 277.433 194.416 261.011C188.366 256.562 182.195 252.164 176.489 247.269C170.783 242.373 166.022 236.808 164.251 229.559C163.873 228.064 166.194 227.429 166.555 228.923H166.469Z" fill="#00BA67"/>
<g style="mix-blend-mode:overlay">
<g style="mix-blend-mode:overlay">
<path d="M290.683 177.957C291.68 180.276 292.798 182.526 293.932 184.828C292.48 178.008 290.212 171.387 287.177 165.108C286.008 168.011 289.893 176.102 290.683 177.957Z" fill="#00BA67"/>
</g>
</g>
<g style="mix-blend-mode:overlay">
<g style="mix-blend-mode:overlay">
<path d="M272.293 162.772C272.259 160.47 272.92 158.211 274.189 156.29C275.458 154.369 277.277 152.875 279.408 152.002C278.944 151.349 278.463 150.713 277.982 150.078C276.624 148.36 274.888 146.419 272.654 146.402C269.56 146.402 267.652 149.837 267.257 152.929C266.805 158.465 268.001 164.011 270.694 168.87C271.947 171.395 273.395 173.819 275.026 176.119C273.202 171.906 272.272 167.362 272.293 162.772Z" fill="#00BA67"/>
</g>
</g>
<g style="mix-blend-mode:overlay">
<g style="mix-blend-mode:overlay">
<path d="M209.283 341.78C210.509 337.561 212.713 333.692 215.718 330.486C218.723 327.28 222.442 324.828 226.574 323.331C221.229 319.191 214.852 315.498 208.338 316.889C207.359 317.029 206.426 317.393 205.612 317.953C204.798 318.513 204.125 319.255 203.646 320.119C203.204 321.412 203.121 322.801 203.405 324.138C204.231 330.337 206.225 336.324 209.283 341.78Z" fill="#00BA67"/>
</g>
<g style="mix-blend-mode:overlay">
<path d="M172.691 360.503C164.394 351.459 157.056 341.581 150.794 331.027C146.858 324.035 142.509 315 145.19 306.806C145.773 304.985 146.72 303.302 147.975 301.859C143.025 299.866 137.387 299.145 133.64 302.632C129.343 306.634 130.34 313.626 132.197 319.191C139.948 342.707 151.808 357.119 173.67 368.749L180.116 368.852C177.538 366.086 175.08 363.217 172.691 360.503Z" fill="#00BA67"/>
</g>
<g style="mix-blend-mode:overlay">
<path d="M193.797 263.57C178.672 259.259 163.272 241.755 159.834 226.552C159.147 223.459 158.933 220.279 159.198 217.122C157.477 217.177 155.788 217.606 154.248 218.377C152.708 219.148 151.353 220.243 150.278 221.588C147.854 225.024 148.129 229.679 149.367 233.612C152.495 243.713 160.866 251.529 170.284 256.338C179.703 261.148 190.205 263.347 200.552 265.46L205.519 264.601C205.519 264.085 205.33 263.587 205.244 263.072C201.601 264.558 197.555 264.735 193.797 263.57Z" fill="#00BA67"/>
</g>
<g style="mix-blend-mode:overlay">
<path d="M234.085 241.153C233.798 237.963 232.741 234.89 231.005 232.197C229.269 229.504 226.905 227.273 224.116 225.694C223.561 225.399 222.986 225.141 222.397 224.921C226.471 236.447 228.637 249.244 221.968 259.946C221.122 261.426 219.803 262.579 218.223 263.221C216.643 263.862 214.893 263.955 213.254 263.484C214.175 266.315 215.325 269.067 216.691 271.712L219.768 272.485C222.741 267.435 226.419 262.849 229.341 257.764C232.263 252.68 234.566 246.994 234.085 241.153Z" fill="#00BA67"/>
</g>
<g style="mix-blend-mode:overlay">
<path d="M201.858 294.112C199.623 292.472 197.804 290.33 196.547 287.859C195.373 288.45 194.252 289.139 193.196 289.921C192.122 290.576 191.336 291.613 190.996 292.824C190.939 293.424 191.006 294.029 191.192 294.602C191.378 295.175 191.68 295.704 192.078 296.156C193.425 297.787 195.119 299.097 197.037 299.988C198.955 300.88 201.049 301.331 203.164 301.309C206.742 301.284 210.284 300.603 213.615 299.3C209.341 298.523 205.312 296.745 201.858 294.112Z" fill="#00BA67"/>
</g>
<g style="mix-blend-mode:overlay">
<path d="M257.082 275.182C260.253 274.422 263.566 274.481 266.707 275.354C265.625 271.906 263.369 268.947 260.331 266.989C259.924 266.701 259.462 266.5 258.974 266.4C258.486 266.299 257.982 266.301 257.495 266.405C256.721 266.716 256.07 267.271 255.638 267.985C253.616 270.847 252.271 274.13 251.702 277.587C253.331 276.459 255.155 275.644 257.082 275.182Z" fill="#00BA67"/>
</g>
</g>
<g opacity="0.51">
<path opacity="0.51" d="M444.977 202.882C442.927 202.882 441.265 201.22 441.265 199.171C441.265 197.122 442.927 195.461 444.977 195.461C447.028 195.461 448.69 197.122 448.69 199.171C448.69 201.22 447.028 202.882 444.977 202.882Z" fill="#00BA67"/>
<path opacity="0.51" d="M520.964 282.551C520.964 281.502 521.275 280.475 521.859 279.603C522.443 278.73 523.272 278.049 524.243 277.648C525.213 277.246 526.281 277.141 527.311 277.346C528.341 277.55 529.288 278.056 530.03 278.798C530.773 279.541 531.279 280.486 531.484 281.516C531.689 282.546 531.584 283.613 531.182 284.583C530.78 285.553 530.099 286.382 529.226 286.965C528.352 287.548 527.325 287.859 526.275 287.859C524.866 287.859 523.516 287.3 522.52 286.305C521.524 285.309 520.964 283.959 520.964 282.551Z" fill="#00BA67"/>
<path opacity="0.51" d="M458.178 77.0728C458.181 75.1845 458.744 73.3397 459.796 71.7713C460.849 70.203 462.342 68.9815 464.089 68.2613C465.835 67.541 467.756 67.3543 469.609 67.7248C471.461 68.0953 473.163 69.0062 474.497 70.3426C475.832 71.679 476.741 73.3808 477.108 75.233C477.475 77.0852 477.285 79.0046 476.561 80.7488C475.837 82.493 474.613 83.9836 473.041 85.0323C471.47 86.081 469.623 86.6407 467.734 86.6407C466.478 86.6407 465.233 86.3931 464.073 85.912C462.912 85.431 461.858 84.726 460.971 83.8373C460.083 82.9486 459.379 81.8937 458.9 80.7329C458.421 79.5722 458.175 78.3284 458.178 77.0728Z" fill="#00BA67"/>
<path opacity="0.51" d="M266.965 100.915C266.968 100.077 267.22 99.2582 267.689 98.5627C268.157 97.8673 268.821 97.3261 269.597 97.0076C270.374 96.6891 271.227 96.6076 272.049 96.7732C272.871 96.9389 273.626 97.3443 274.218 97.9383C274.81 98.5324 275.213 99.2884 275.375 100.111C275.538 100.934 275.453 101.786 275.131 102.56C274.809 103.334 274.265 103.996 273.567 104.461C272.869 104.927 272.049 105.175 271.21 105.175C270.083 105.171 269.003 104.72 268.207 103.922C267.412 103.123 266.965 102.042 266.965 100.915Z" fill="#00BA67"/>
<path opacity="0.51" d="M121.299 274.615C121.299 273.256 121.703 271.928 122.458 270.798C123.214 269.668 124.287 268.787 125.544 268.267C126.8 267.747 128.182 267.611 129.516 267.876C130.849 268.141 132.074 268.796 133.036 269.757C133.997 270.718 134.652 271.942 134.917 273.275C135.183 274.608 135.047 275.989 134.526 277.245C134.006 278.5 133.125 279.573 131.994 280.328C130.863 281.083 129.534 281.486 128.174 281.486C126.351 281.486 124.602 280.762 123.313 279.474C122.024 278.185 121.299 276.438 121.299 274.615Z" fill="#00BA67"/>
<path opacity="0.51" d="M204.264 191.733C202.793 191.733 201.6 190.541 201.6 189.071C201.6 187.6 202.793 186.408 204.264 186.408C205.736 186.408 206.928 187.6 206.928 189.071C206.928 190.541 205.736 191.733 204.264 191.733Z" fill="#00BA67"/>
<path opacity="0.51" d="M318.958 7.9844C318.958 6.51259 319.394 5.07387 320.213 3.85034C321.032 2.62681 322.195 1.67349 323.556 1.11104C324.917 0.548593 326.414 0.402302 327.858 0.690691C329.302 0.979079 330.628 1.68918 331.668 2.73111C332.708 3.77304 333.416 5.09996 333.701 6.5439C333.986 7.98784 333.837 9.48389 333.271 10.8427C332.705 12.2015 331.748 13.3619 330.522 14.1772C329.296 14.9924 327.855 15.4257 326.383 15.4223C325.406 15.4223 324.439 15.2298 323.537 14.8558C322.635 14.4818 321.816 13.9337 321.126 13.2428C320.436 12.5519 319.89 11.7318 319.518 10.8295C319.146 9.92716 318.955 8.96035 318.958 7.9844Z" fill="#00BA67"/>
</g>
<path d="M207.238 79.1169C203.225 79.1975 199.278 78.0874 195.897 75.9269C192.515 73.7664 189.85 70.6524 188.239 66.9786C186.628 63.3048 186.142 59.2361 186.844 55.2867C187.546 51.3372 189.404 47.6844 192.182 44.7898C194.961 41.8953 198.536 39.8889 202.455 39.0243C206.374 38.1597 210.462 38.4758 214.201 39.9325C217.941 41.3891 221.164 43.9211 223.465 47.2083C225.765 50.4955 227.038 54.3904 227.124 58.4007C227.234 63.7831 225.202 68.989 221.473 72.8738C217.743 76.7586 212.623 79.0042 207.238 79.1169V79.1169Z" stroke="#00BA67" stroke-width="0.79" stroke-miterlimit="10"/>
<path d="M222.225 42.271C230.269 38.4919 229.822 42.9066 229.479 45.174C229.257 46.1651 228.804 47.0895 228.155 47.8709C219.75 59.2769 206.808 66.3884 193.78 71.9196C190.617 73.2594 187.008 74.5306 183.845 73.1736C183.176 72.9139 182.605 72.4513 182.212 71.8509C181.181 70.1331 182.9 67.9859 184.481 66.6976" stroke="#00BA67" stroke-width="0.79" stroke-miterlimit="10"/>
<path d="M469.435 151.16C469.371 147.994 470.248 144.881 471.954 142.213C473.661 139.546 476.12 137.444 479.022 136.173C481.923 134.903 485.137 134.52 488.256 135.075C491.375 135.629 494.259 137.095 496.545 139.288C498.83 141.481 500.413 144.301 501.095 147.393C501.776 150.485 501.525 153.71 500.373 156.659C499.221 159.608 497.219 162.15 494.622 163.963C492.025 165.775 488.948 166.778 485.781 166.843C483.677 166.886 481.585 166.515 479.625 165.75C477.665 164.985 475.875 163.842 474.357 162.386C472.839 160.929 471.623 159.188 470.779 157.262C469.934 155.336 469.478 153.262 469.435 151.16Z" stroke="#00BA67" stroke-width="0.62" stroke-miterlimit="10"/>
<path d="M498.517 162.961C501.49 169.317 498.018 168.956 496.214 168.698C495.432 168.523 494.705 168.157 494.1 167.633C485.093 161.071 479.473 150.937 475.09 140.63C474.042 138.139 473.028 135.288 474.11 132.797C474.308 132.269 474.669 131.817 475.142 131.509C476.551 130.701 478.201 132.058 479.25 133.226" stroke="#00BA67" stroke-width="0.62" stroke-miterlimit="10"/>
<path d="M184.819 339.881H449.963L536.088 471.454H103L184.819 339.881Z" fill="#E8B57F"/>
<path d="M413.633 259.565C408.809 253.198 413.633 230.092 413.633 230.092C399.635 234.515 371.637 227.438 371.637 230.092C371.637 233.409 373.678 287.052 394.109 287.052C414.539 287.052 467.272 280.573 468.407 280.573C469.542 280.573 500.328 276.805 501.87 264.036C503.412 251.266 493.098 247.922 493.098 247.922C493.098 247.922 485.756 246.661 485.432 249.613C485.166 252.033 489.501 251.645 489.972 254.036C490.756 258.016 485.048 259.045 480.892 259.565C477.265 260.018 472.921 260.722 471.812 257.353C470.904 254.597 472.977 252.636 475.217 250.719C477.955 248.376 484.086 252.037 484.297 248.507C484.378 247.145 483.919 246.342 483.162 245.19C480.97 241.854 477.006 242.509 472.947 242.979C464.101 244.002 462.05 253.594 459.326 260.67C445.706 265.093 422.844 268.732 413.633 259.565Z" fill="#FFA288"/>
<path d="M222.037 263.053C226.861 256.687 217.558 225.253 217.558 225.253C231.556 229.676 264.033 230.927 264.033 233.581C264.033 236.898 261.992 290.541 241.561 290.541C221.131 290.541 168.399 284.062 167.264 284.062C166.129 284.062 135.342 280.294 133.8 267.524C132.258 254.755 142.572 251.411 142.572 251.411C142.572 251.411 149.914 250.149 150.238 253.102C150.504 255.522 146.169 255.134 145.698 257.525C144.914 261.505 150.622 262.534 154.778 263.053C158.405 263.506 162.749 264.211 163.859 260.842C164.766 258.086 162.694 256.124 160.453 254.207C157.715 251.864 151.584 255.526 151.373 251.996C151.292 250.634 151.752 249.831 152.508 248.679C154.7 245.343 158.664 245.998 162.723 246.467C171.569 247.491 173.62 257.082 176.344 264.159C189.964 268.582 212.826 272.221 222.037 263.053Z" fill="#FFA288"/>
<path d="M253.169 180.434C227.417 181.796 218.594 218.5 214.336 236.663C215.359 249.116 280.76 236.663 280.76 236.663C284.337 217.364 278.92 179.071 253.169 180.434Z" fill="#FFE8D8"/>
<path d="M374.55 178.441C400.377 179.837 415.374 217.403 419.644 236.011C419.644 249.931 353.028 236.011 353.028 236.011C349.441 216.24 348.723 177.045 374.55 178.441Z" fill="#FFE8D8"/>
<rect width="18.0841" height="15.5722" transform="matrix(0.99738 -0.0723415 0.0759462 0.997112 307.589 161.563)" fill="#FF9172"/>
<path d="M346.716 128.867C348.083 148.509 336.009 165.305 319.749 166.383C310.476 166.997 296.324 164.224 290.365 156.487C285.874 150.658 289.524 137.307 288.936 128.867C287.57 109.226 298.539 96.3315 314.8 95.254C331.06 94.1764 345.349 109.226 346.716 128.867Z" fill="#FFA288"/>
<path d="M274.601 319.945L373.169 318.45C373.169 318.45 379.111 331.451 381.341 341.376C384.647 356.093 384.916 381.745 384.916 381.745L249.065 377.259C249.065 377.259 254.866 354.591 260.301 341.376C264.067 332.219 274.601 319.945 274.601 319.945Z" fill="#379785"/>
<path d="M248.554 181.395C270.515 173.919 369.02 167.123 380.368 182.77C389.352 198.819 376.795 233.358 377.766 267.117C378.486 292.133 394.229 331.221 385.57 332.823C378.143 343.236 270.067 346.44 259.792 332.823C253.747 324.813 258.906 293.032 259.791 267.117C260.921 234.047 241.593 187.496 248.554 181.395Z" fill="#FFE8D8"/>
<path d="M371.22 350.164C441.229 323.621 471.892 341.87 473.672 361.569C476.67 394.748 416.47 405.531 396.833 411.337C377.196 417.143 316.792 417.904 289.045 417.558V384.38C287.266 384.034 301.211 376.707 371.22 350.164Z" fill="#41B29C"/>
<path d="M328.737 368.787C351.122 382.969 397.243 410.781 405.911 410.687C407.407 410.469 407.706 410.433 406.366 410.651C406.228 410.673 406.076 410.685 405.911 410.687C397.144 411.964 347.261 419.477 345.08 418.625C343.037 417.828 324.821 389.054 315.969 374.767L328.737 368.787Z" fill="black" fill-opacity="0.1"/>
<path d="M360.274 392.116C355.192 393.084 347.958 390.729 345.128 389.457L338.943 413.626L355.765 416.579C355.35 418.831 362.338 430.751 369.474 436.423C377.66 442.928 392.805 447.681 394.417 444.476C396.03 441.271 388.58 426.988 378.988 412.517C374.529 403.984 375.638 386.353 368.87 389.815C364.682 390.38 365.356 391.147 360.274 392.116Z" fill="#FFA288"/>
<path d="M271.387 353.154C201.765 326.612 171.271 344.86 169.501 364.56C166.519 397.738 226.387 408.521 245.915 414.327C265.444 420.134 325.514 420.894 353.108 420.548V387.37C354.877 387.024 341.009 379.697 271.387 353.154Z" fill="#41B29C"/>
<path d="M340.484 332.405C383.326 311.366 370.786 254.491 374.191 217.279C375.213 215.95 375.959 215.893 377.255 215.285C379.298 222.761 378.784 229.846 379.298 239.207C376.234 264.126 378.277 270.273 379.298 282.567C383.044 296.521 389.615 326.026 385.938 332.405C382.26 338.784 342.867 341.376 323.63 341.874C326.524 341.21 331.524 336.805 340.484 332.405Z" fill="black" fill-opacity="0.1"/>
<path d="M316.207 114.389C312.312 110.804 311.545 101.836 311.545 101.836C311.545 101.836 302.72 102.131 298.447 105.152C292.738 109.187 293.372 111.926 291.469 119.316C290.835 126.706 292.104 128.553 290.201 148.875C289.682 154.418 290.194 162.435 294 165.5C284.368 166.402 260.977 164.336 264.681 163.326C269.312 162.064 270.238 118.246 271.35 107.967C272.461 97.689 280.797 78.5749 285.613 74.9685C289.466 72.0833 302.778 74.9685 308.952 76.7717C328.957 72.6243 350.901 73.5878 363.146 92.8352C364.628 99.471 387.288 141.112 384.712 154.13C377.1 160.576 347 185 340.311 179C330.418 170.126 330.572 150.91 332 146C333.358 141.33 340.497 144.061 341.579 139.022C342.509 134.694 342.895 132.705 340.311 129.169C337.887 125.852 332.558 126.068 329.528 123.951C324.823 120.665 318.57 116.564 316.207 114.389Z" fill="#FFC15C"/>
<path d="M263.547 202.808C259.846 211.577 254.465 227.422 254.294 241.459C252.923 241.459 241.441 242.613 235.786 242.036C237.328 232.229 241.699 225.24 247.611 216.653C252.377 209.73 268.174 191.847 263.547 202.808Z" fill="black" fill-opacity="0.1"/>
</svg>
