<svg width="113" height="144" viewBox="0 0 113 144" fill="none" xmlns="http://www.w3.org/2000/svg">
<path d="M71.2256 0C71.2256 0 82.6703 27.9987 33.6203 46.8053C6.96761 57.0215 -13.5032 83.2064 10.9389 123.656C12.9631 105.576 21.6428 65.7112 58.9649 56.6144C58.9649 56.6144 24.2277 69.6036 21.1592 128.4C39.0086 130.906 80.8707 132.59 93.2994 96.2622C109.712 48.2647 71.2256 0 71.2256 0Z" fill="#3A7F0D"/>
<path d="M21.1754 128.156C59.0682 113.033 86.6398 77.6056 90.4451 35.3141C82.6985 14.4182 71.2255 0 71.2255 0C71.2255 0 82.6703 27.9987 33.6203 46.8053C6.96761 57.0215 -13.5032 83.2064 10.9389 123.656C12.9631 105.576 21.6428 65.7111 58.9649 56.6144C58.9628 56.6147 24.329 69.5715 21.1754 128.156Z" fill="#49A010"/>
<path d="M107.498 89.4153C103.998 85.6188 99.195 83.5278 93.9733 83.5278C90.0701 83.5278 86.4955 84.7619 83.3486 87.1954C81.7607 88.4237 80.3219 89.9265 79.0534 91.6806C77.7853 89.9271 76.346 88.4237 74.7576 87.1954C71.6112 84.7619 68.0367 83.5278 64.1335 83.5278C58.9117 83.5278 54.1083 85.6188 50.608 89.4153C47.1495 93.1674 45.2444 98.2934 45.2444 103.85C45.2444 109.568 47.3755 114.803 51.9509 120.324C56.0439 125.263 61.9265 130.277 68.7388 136.082C71.0649 138.065 73.7016 140.312 76.4394 142.706C77.1627 143.339 78.0907 143.688 79.0534 143.688C80.0155 143.688 80.9441 143.339 81.6663 142.707C84.4041 140.312 87.0424 138.064 89.3695 136.08C96.1807 130.276 102.063 125.263 106.156 120.324C110.732 114.803 112.862 109.568 112.862 103.849C112.862 98.2934 110.957 93.1674 107.498 89.4153Z" fill="#FF2222"/>
<rect x="75.5847" y="101.427" width="6.93755" height="23.8652" fill="#F1FFF3"/>
<rect x="67.1208" y="116.828" width="6.93755" height="23.8652" transform="rotate(-90 67.1208 116.828)" fill="#F1FFF3"/>
</svg>
